<svg width="62" height="63" viewBox="0 0 62 63" fill="none" xmlns="http://www.w3.org/2000/svg">
<path d="M30.4534 0.628311C27.2792 0.900311 24.0914 1.8115 21.2169 3.2939C18.8329 4.51789 17.2118 5.71468 15.1547 7.76827C12.035 10.869 10.0324 14.201 8.88809 18.1722C8.16606 20.6746 7.98897 22.0074 7.90723 25.353L7.82549 28.3857L5.50957 31.9489C4.24263 33.9073 3.11191 35.7025 3.01655 35.9473C2.75771 36.5321 2.77134 37.7833 3.03018 38.3953C3.49336 39.4833 3.86118 39.7825 5.94551 40.7753C7.03535 41.2921 7.9481 41.7409 7.96172 41.7545C7.97534 41.7681 8.30229 43.5497 8.68374 45.712C9.59648 50.8528 9.85532 51.5464 11.3811 53.1512C12.2802 54.0896 13.1657 54.6744 14.3782 55.1368C15.2637 55.4768 15.4135 55.4904 19.4459 55.5584C23.1105 55.6264 23.6418 55.6672 23.9552 55.8848C24.4592 56.2248 24.5682 56.5376 25.1676 59.3528C25.5627 61.2295 25.7807 61.9503 25.985 62.1679C26.2575 62.4399 26.3801 62.4399 37.8779 62.4807C44.2535 62.4943 49.6891 62.4807 49.9343 62.4399C50.5201 62.3311 50.9152 61.9231 50.9152 61.4335C50.9152 61.2295 50.5474 59.2848 50.0978 57.1224C49.403 53.8312 49.2668 52.9744 49.2668 51.8184C49.2532 48.7992 49.621 47.888 53.1085 42.1761C56.1601 37.1577 56.9502 35.6345 57.7267 33.2953C58.5713 30.7385 58.8438 29.0929 58.9119 26.1962C59.0345 21.6402 58.2716 18.145 56.2963 14.2282C53.1085 7.86347 47.1416 3.0899 40.1666 1.30831C37.6327 0.669113 33.5049 0.369911 30.4534 0.628311ZM35.8617 2.8179C39.8941 3.15789 43.3953 4.39549 46.7738 6.62588C48.8172 7.98587 51.5827 10.7467 52.945 12.773C54.607 15.2754 55.7786 18.077 56.3916 21.001C56.6641 22.2658 56.705 22.8506 56.705 25.5162C56.6914 28.1681 56.6505 28.7529 56.3916 29.9361C55.6015 33.4857 54.7978 35.2265 51.2558 41.0201C47.8228 46.6368 47.3051 47.8336 47.1144 50.608C46.9917 52.4168 47.1416 53.6816 47.8364 56.9864C48.177 58.6184 48.463 60.0328 48.463 60.1416C48.463 60.3048 46.8691 60.332 38.0414 60.332H27.6198L27.5517 60.0328C27.5108 59.856 27.2928 58.8904 27.0885 57.8704C26.6253 55.7488 26.3665 55.1504 25.5899 54.4432C24.541 53.5048 24.4592 53.4912 19.8546 53.396C17.2935 53.3416 15.5089 53.2464 15.2092 53.1512C14.4463 52.8928 13.1521 51.9952 12.6617 51.3832C11.7898 50.2952 11.5854 49.6016 10.7817 45.0184C10.3594 42.6385 9.93706 40.5577 9.8417 40.4081C9.74634 40.2449 8.76548 39.7009 7.64839 39.1841C5.25073 38.0689 5.00552 37.8921 5.00552 37.2121C5.00552 36.7905 5.40059 36.0969 7.49854 32.9145L9.97793 29.1201L10.0733 25.7882C10.1278 23.7074 10.2368 22.021 10.373 21.3138C11.2721 16.5402 13.3156 12.6234 16.6668 9.27786C21.5984 4.35469 28.1511 2.1379 35.8617 2.8179Z" fill="#EF3340"/>
<path d="M35.8617 2.8179C39.8941 3.15789 43.3953 4.39549 46.7738 6.62588C48.8172 7.98587 51.5827 10.7467 52.945 12.773C54.607 15.2754 55.7786 18.077 56.3916 21.001C56.6641 22.2658 56.705 22.8506 56.705 25.5162C56.6914 28.1681 56.6505 28.7529 56.3916 29.9361C55.6015 33.4857 54.7978 35.2265 51.2558 41.0201C47.8228 46.6368 47.3051 47.8336 47.1144 50.608C46.9917 52.4168 47.1416 53.6816 47.8364 56.9864C48.177 58.6184 48.463 60.0328 48.463 60.1416C48.463 60.3048 46.8691 60.332 38.0414 60.332H27.6198L27.5517 60.0328C27.5108 59.856 27.2928 58.8904 27.0885 57.8704C26.6253 55.7488 26.3665 55.1504 25.5899 54.4432C24.541 53.5048 24.4592 53.4912 19.8546 53.396C17.2935 53.3416 15.5089 53.2464 15.2092 53.1512C14.4463 52.8928 13.1521 51.9952 12.6617 51.3832C11.7898 50.2952 11.5854 49.6016 10.7817 45.0184C10.3594 42.6385 9.93706 40.5577 9.8417 40.4081C9.74634 40.2449 8.76548 39.7009 7.64839 39.1841C5.25073 38.0689 5.00552 37.8921 5.00552 37.2121C5.00552 36.7905 5.40059 36.0969 7.49854 32.9145L9.97793 29.1201L10.0733 25.7882C10.1278 23.7074 10.2368 22.021 10.373 21.3138C11.2721 16.5402 13.3156 12.6234 16.6668 9.27786C21.5984 4.35469 28.1511 2.1379 35.8617 2.8179Z" fill="#EF3340"/>
<path d="M26.2302 9.45444C23.274 10.4064 21.3531 13.5344 21.8708 16.5672C22.225 18.58 22.4566 18.8928 26.9931 23.4488C31.5977 28.0727 31.8565 28.2767 33.3959 28.2631C34.9762 28.2495 35.1397 28.1271 39.6897 23.5712C43.477 19.7768 43.8312 19.3824 44.2807 18.444C45.8746 15.18 44.5532 11.3176 41.3109 9.78084C39.0086 8.69284 36.0796 9.14164 34.0771 10.896L33.3959 11.4808L32.6603 10.8688C30.8075 9.33204 28.3281 8.78804 26.2302 9.45444ZM30.14 11.7936C30.5078 11.9704 31.2843 12.5552 31.8429 13.0856C32.4014 13.616 32.9736 14.092 33.1098 14.1328C33.5185 14.2824 34.0362 13.9696 35.1124 12.9496C36.3521 11.7664 37.224 11.372 38.5727 11.372C39.8396 11.372 40.6297 11.6984 41.5289 12.5824C42.428 13.48 42.7958 14.3912 42.7822 15.6696C42.7686 17.288 42.5233 17.628 38.1367 22.0208C34.0907 26.0735 33.8318 26.2639 33.0008 26.0327C32.3742 25.8559 24.8543 18.308 24.4047 17.4104C23.3148 15.18 24.4183 12.4328 26.7615 11.5624C27.5516 11.2632 29.2954 11.3856 30.14 11.7936Z" fill="#FFF0EF"/>
<path d="M30.14 11.7936C30.5078 11.9704 31.2843 12.5552 31.8429 13.0856C32.4014 13.616 32.9736 14.092 33.1098 14.1328C33.5185 14.2824 34.0362 13.9696 35.1124 12.9496C36.3521 11.7664 37.224 11.372 38.5727 11.372C39.8396 11.372 40.6297 11.6984 41.5289 12.5824C42.428 13.48 42.7958 14.3912 42.7822 15.6696C42.7686 17.288 42.5233 17.628 38.1367 22.0208C34.0907 26.0735 33.8318 26.2639 33.0008 26.0327C32.3742 25.8559 24.8543 18.308 24.4047 17.4104C23.3148 15.18 24.4183 12.4328 26.7615 11.5624C27.5516 11.2632 29.2954 11.3856 30.14 11.7936Z" fill="#FFF0EF"/>
<path d="M13.0433 27.8281C12.8935 27.9777 12.7436 28.2361 12.6891 28.4265C12.4167 29.5009 14.5964 30.6841 16.8442 30.6841C19.6369 30.6841 21.9119 29.0521 20.7404 27.8961C20.3044 27.4473 19.923 27.4745 18.9013 27.9913C18.1247 28.3993 17.9204 28.4401 16.8578 28.4401C15.7952 28.4401 15.6045 28.3993 14.8416 27.9913C13.8607 27.4881 13.4248 27.4473 13.0433 27.8281Z" fill="white"/>
</svg>
