<svg width="64" height="64" viewBox="0 0 64 64" fill="none" xmlns="http://www.w3.org/2000/svg">
<path d="M48.2889 0.822704C48.2025 0.863007 48.0355 0.99543 47.9262 1.11634C47.1834 1.93967 46.4004 2.79179 45.9974 3.2121C45.7325 3.4827 45.1222 4.13906 44.6386 4.68028C44.1492 5.21573 43.6425 5.7627 43.5159 5.88937C43.3834 6.01604 42.871 6.57452 42.3701 7.12725C41.8692 7.67997 41.3568 8.24422 41.2243 8.37088C40.424 9.17694 36.4571 13.2418 35.7086 14.0363C35.2077 14.5603 34.6204 15.1418 34.3901 15.3318C34.1598 15.5218 33.9352 15.7176 33.8834 15.7636C33.8316 15.8097 33.6358 15.9421 33.4458 16.0573C32.4268 16.6733 31.9431 16.7654 30.2965 16.656C29.7495 16.6215 29.5249 16.633 29.0874 16.7136C28.7937 16.7712 28.5231 16.8403 28.4886 16.8633C28.454 16.8921 28.4137 16.8979 28.3965 16.8806C28.3101 16.8 26.5713 17.5772 26.3928 17.773C26.3755 17.7903 26.2374 17.8997 26.0762 18.0091C25.6904 18.2739 25.0571 18.8842 24.7577 19.2757C24.2395 19.9436 23.7501 20.8706 23.6004 21.4636C23.5889 21.5097 23.5371 21.6594 23.491 21.786C23.4449 21.9185 23.3816 22.1545 23.3586 22.3042C23.301 22.6439 23.2952 24.0372 23.3471 24.4C23.5198 25.6206 24.3086 26.9333 25.2758 27.6357C25.7192 27.9524 26.6001 28.4303 26.744 28.4303C26.7843 28.4303 26.9513 28.4763 27.124 28.5282C27.4407 28.6376 27.481 28.6894 27.5789 29.196C27.6077 29.3573 27.9877 30.1633 28.0855 30.2842C28.1374 30.3418 28.1777 30.4109 28.1777 30.4397C28.1777 30.4685 28.2122 30.5318 28.2525 30.5721C28.3792 30.7103 28.7534 31.2112 28.7534 31.2515C28.7534 31.2688 28.5174 31.3609 28.2295 31.4472C27.9358 31.5336 27.4925 31.7179 27.2392 31.8503L26.7786 32.0979L26.3237 31.8503C26.0762 31.7121 25.8516 31.5969 25.8228 31.5969C25.794 31.5969 25.6731 31.5509 25.5522 31.4991C25.4255 31.4472 25.3046 31.4069 25.2758 31.4185C25.2528 31.4242 25.0801 31.3839 24.9016 31.3321C24.3143 31.1594 23.1455 31.1997 22.6504 31.4012C22.6043 31.4242 22.5007 31.4415 22.4201 31.453C22.3395 31.4588 22.0689 31.5624 21.8155 31.6776C20.5489 32.2648 19.6565 33.1515 18.9655 34.516C18.7122 35.0169 18.4358 35.846 18.3668 36.3354C18.2055 37.4236 18.2055 37.6942 18.361 38.9091C18.4186 39.3524 18.7295 40.2851 19.0058 40.8379C19.3455 41.5172 19.9443 42.2773 20.5201 42.7551C21.4874 43.5554 21.6831 43.8088 22.0286 44.6494C22.0919 44.8106 22.1149 44.9257 22.2416 45.6166C22.2877 45.8585 22.2992 48.1615 22.2934 53.3318C22.2819 57.3851 22.2762 61.1851 22.2762 61.7724C22.2762 62.9642 22.3107 63.1024 22.6216 63.206C22.8346 63.2751 23.0304 63.2233 23.1916 63.0448C23.2952 62.9297 23.301 62.613 23.3471 54.7597C23.3989 46.4342 23.3931 45.8412 23.1916 44.9142C22.9152 43.6591 22.5122 43.0545 21.1477 41.8454C20.6755 41.4309 20.1862 40.8091 19.9616 40.3485C19.714 39.8245 19.5528 39.4157 19.5183 39.22C19.501 39.1279 19.4492 38.8745 19.4031 38.6615C19.3455 38.3966 19.3225 38.0051 19.334 37.4812C19.3513 36.6176 19.4665 36.0706 19.7831 35.3163C19.8752 35.0918 19.9674 34.8615 19.9846 34.8039C20.0019 34.7521 20.0365 34.706 20.0595 34.706C20.0825 34.706 20.1286 34.6369 20.1689 34.5563C20.2437 34.3836 20.5201 34.0151 20.808 33.71C21.4413 33.0191 22.4374 32.4606 23.2262 32.3512C23.8422 32.2706 24.7462 32.3339 25.0858 32.4836C25.1895 32.5297 25.3968 32.6103 25.5465 32.6679C25.6962 32.7197 25.8286 32.783 25.8458 32.8003C25.8574 32.8233 25.7422 32.9845 25.5925 33.1572C25.224 33.5948 24.9534 34.0094 24.6713 34.5851C24.4122 35.1033 24.3834 35.3509 24.5389 35.5582C24.6598 35.7194 25.0455 35.7885 25.2355 35.6906C25.3046 35.6503 25.4716 35.3912 25.6155 35.0976C26.2777 33.7618 27.1989 32.8982 28.3734 32.5124C29.2543 32.2245 29.974 32.2303 30.9413 32.5239C31.7416 32.7657 32.6743 33.5027 33.2386 34.326C33.4286 34.6024 33.7625 35.2185 33.7625 35.2933C33.7625 35.3163 33.8086 35.4488 33.8719 35.5869C34.0907 36.0879 34.2231 36.8306 34.2231 37.5963C34.2231 38.2354 34.1886 38.5118 34.0216 39.2545C33.9007 39.7957 33.3652 40.8206 32.9622 41.2812C32.6398 41.6497 32.5822 41.7072 31.9719 42.2485C30.8146 43.2676 30.3886 44.1542 30.2216 45.8757C30.1525 46.5782 30.1468 47.4879 30.1986 51.7197C30.2274 54.4718 30.2389 58.1048 30.2216 59.786C30.1928 62.0776 30.1986 62.8779 30.2504 62.9757C30.3368 63.1312 30.6707 63.2751 30.8492 63.2291C30.924 63.2118 31.0507 63.1312 31.1255 63.0506L31.258 62.9066L31.2465 54.5063C31.2292 45.916 31.2292 45.9966 31.4307 45.0179C31.5113 44.6148 31.8049 44.0103 32.1158 43.6015C32.3058 43.3597 32.4383 43.233 32.968 42.8069C33.9468 42.0124 34.701 40.8148 35.058 39.4848C35.1731 39.0645 35.1674 39.1048 35.2652 38.2354C35.3228 37.7115 35.3228 37.4812 35.2652 36.9976C35.2249 36.6694 35.1904 36.3642 35.1904 36.3182C35.1904 36.1512 34.9255 35.3048 34.7355 34.85C34.4477 34.1533 34.0101 33.4566 33.5495 32.973L33.3537 32.7657L33.8028 32.6679C34.9083 32.426 35.8755 31.9539 36.9062 31.1594C37.7007 30.5433 38.501 29.4436 38.9155 28.4072C39.0537 28.0503 39.1171 27.8488 39.2955 27.1636C39.3243 27.0542 39.3531 26.3 39.3474 25.4882C39.3474 24.066 39.3531 23.9969 39.4913 23.5939C39.618 23.2139 39.9404 22.5748 40.0325 22.5C40.0555 22.4827 40.1937 22.3042 40.3377 22.0969C40.4816 21.8897 41.1207 21.216 41.7483 20.6C45.4562 16.9439 48.2255 14.2436 49.0431 13.4721C49.2677 13.2648 49.4116 13.0863 49.3886 13.046C49.3655 13.0057 49.3713 13 49.4116 13.023C49.4749 13.0633 52.1349 10.6106 52.2443 10.4091C52.3365 10.2421 52.2616 9.93119 52.1004 9.78725C51.9334 9.64907 51.6571 9.62028 51.4555 9.73543C51.3462 9.79301 50.2983 10.7833 49.1755 11.883C48.9798 12.073 48.404 12.6142 47.8974 13.0863C46.3716 14.5027 42.0592 18.7748 42.0937 18.8382C42.111 18.8669 42.1052 18.8785 42.0765 18.8612C42.0246 18.8266 40.2974 20.4791 39.7849 21.0491C39.2437 21.6594 38.7428 22.4942 38.4895 23.2197C38.2995 23.7551 38.2304 24.4 38.2822 25.1427C38.3686 26.323 38.3052 26.9045 38.0174 27.7279C37.8158 28.2979 37.6892 28.5627 37.338 29.0924C36.9349 29.7085 35.7949 30.7909 35.5531 30.7909C35.5186 30.7909 35.4898 30.8139 35.4898 30.8427C35.4898 30.8715 35.4322 30.9176 35.3631 30.9406C35.2883 30.9579 35.1674 31.0212 35.0868 31.073C34.9486 31.1651 34.6204 31.2976 34.0504 31.4991C33.561 31.6718 32.5995 31.7351 31.8625 31.643C30.5613 31.476 29.2313 30.4512 28.7304 29.2133C28.6555 29.0348 28.5807 28.9082 28.5634 28.9254C28.5462 28.9427 28.5462 28.9082 28.5634 28.8448C28.5922 28.7297 28.621 28.7239 29.5249 28.6318C29.6862 28.6145 29.928 28.5569 30.0719 28.5109C30.2216 28.4591 30.3771 28.413 30.4231 28.4072C31.1831 28.3094 31.5977 27.7566 31.2004 27.3651C31.0277 27.1866 30.7916 27.1809 30.331 27.3421C30.1468 27.4054 29.9222 27.4688 29.8358 27.4803C29.7495 27.4918 29.571 27.5321 29.4328 27.5724C28.9895 27.6933 27.9819 27.6645 27.458 27.5148C26.2143 27.1636 25.3565 26.4785 24.8325 25.4248C24.441 24.6476 24.3489 24.2388 24.3546 23.3348C24.3604 22.333 24.5331 21.7515 25.1665 20.5712C25.3622 20.2027 26.0128 19.4369 26.3928 19.126C26.6116 18.9418 26.7728 18.7691 26.7555 18.7403C26.7383 18.7057 26.7498 18.7 26.7786 18.7172C26.8131 18.7403 27.0146 18.6539 27.2219 18.5272C27.6249 18.2797 28.1719 18.0263 28.3734 17.986C28.4368 17.9688 28.6095 17.9169 28.7534 17.8651C29.0068 17.7672 29.8704 17.7327 31.1428 17.7672C31.7128 17.7788 32.1446 17.7442 32.4555 17.6521C32.588 17.6175 32.7262 17.583 32.7549 17.5772C32.9219 17.5427 33.7049 17.18 33.9122 17.0418C34.0446 16.9554 34.3037 16.7885 34.488 16.6618C34.914 16.3854 40.2455 11.0021 42.3701 8.71634C42.7213 8.3421 43.084 7.95058 43.1762 7.8527C43.274 7.75483 43.631 7.36331 43.9765 6.98331C44.3219 6.60331 44.9322 5.94119 45.3352 5.51513C46.7055 4.0527 47.8628 2.763 47.8398 2.72846C47.8225 2.71119 47.8283 2.70543 47.8455 2.7227C47.8686 2.73422 48.001 2.62482 48.1392 2.47513C48.2831 2.32543 48.5307 2.0721 48.6862 1.90513C48.951 1.63452 48.9798 1.57695 48.9798 1.34089C48.9798 0.914825 48.6574 0.667252 48.2889 0.822704Z" fill="#B00C2F" stroke="#B00C2F" stroke-width="0.7"/>
<path d="M34.0273 0.862782C34.0504 0.903084 34.0446 0.90884 34.0043 0.885811C33.9352 0.845509 33.6473 1.08732 33.6473 1.19096C33.6473 1.21975 33.6243 1.25429 33.5898 1.26581C33.561 1.27156 33.4228 1.43278 33.2904 1.61126C32.9507 2.06036 32.2252 2.98157 32.0755 3.1543C31.707 3.5746 31.2982 4.15612 31.327 4.20794C31.3443 4.24248 31.3385 4.24824 31.304 4.23096C31.2407 4.19066 30.9816 4.45551 30.4519 5.08308C30.2676 5.30187 29.997 5.61854 29.8473 5.77399C29.7034 5.93521 29.4558 6.22309 29.2946 6.40733C29.1334 6.59733 28.811 6.97157 28.5749 7.23642C28.1431 7.72581 27.7976 8.12309 26.5137 9.60855C26.1279 10.0634 25.3046 10.9443 24.6885 11.5661C24.0725 12.1822 23.5888 12.7119 23.6119 12.7407C23.6407 12.7637 23.6291 12.7695 23.5946 12.7522C23.514 12.7061 23.0937 13.1322 23.1513 13.2013C23.1801 13.2243 23.1685 13.2301 23.134 13.2128C23.0591 13.1667 21.401 14.6983 21.424 14.7846C21.4355 14.8192 21.4182 14.8364 21.3894 14.8249C21.3319 14.8134 20.1861 15.8613 19.3628 16.6846C19.0922 16.9552 18.2343 17.7786 17.4513 18.5213C16.6682 19.2583 16.0464 19.8916 16.0694 19.9262C16.0867 19.9549 16.0752 19.9665 16.0407 19.9434C15.9658 19.8974 15.2116 20.7437 14.7798 21.3598C14.607 21.6074 14.4401 21.8204 14.4113 21.8377C14.3537 21.878 13.5534 23.2195 13.5534 23.2828C13.5534 23.3059 13.5188 23.3692 13.4728 23.4152C13.4325 23.4671 13.3001 23.7262 13.1849 23.991C13.0064 24.394 12.9834 24.4862 13.0467 24.5668C13.1101 24.6474 13.1101 24.6474 13.0294 24.5898C12.9546 24.5265 12.9143 24.5956 12.7301 25.0907C12.6149 25.4074 12.517 25.701 12.517 25.7471C12.517 25.7931 12.471 25.9428 12.4134 26.081C12.3155 26.3171 12.2522 26.5877 12.0276 27.7334C11.7916 28.9252 13.1392 59.0788 13.3695 60.7716C13.4098 61.1055 13.4501 61.4855 13.4559 61.6122C13.4559 61.7446 13.4847 62.0325 13.5192 62.2455C13.548 62.4643 13.5768 62.6716 13.5768 62.7119C13.5768 62.7464 13.6459 62.8558 13.7265 62.9537C13.9165 63.1782 14.2274 63.2013 14.4635 62.9998C14.6535 62.8385 14.665 62.6025 14.5383 61.6064C14.4865 61.2264 14.4347 60.7198 14.4117 60.4837C14.3944 60.2476 14.3368 59.764 14.2908 59.4185C14.1871 58.7334 12.8625 29.2822 12.9776 28.5452C13.0122 28.338 13.0525 28.0846 13.064 27.9752C13.1273 27.5665 13.3173 26.7259 13.4037 26.484C13.4498 26.3516 13.4958 26.2192 13.4958 26.1962C13.5131 26.0292 13.9104 24.941 14.0658 24.6474C14.1637 24.4516 14.2673 24.1983 14.2731 24.1407C14.2731 24.1062 14.2904 24.0716 14.3076 24.0543C14.3307 24.0371 14.4976 23.7665 14.6761 23.4498C14.964 22.9489 15.4188 22.2407 15.511 22.1543C15.6664 22.0046 15.914 21.6246 15.8852 21.5786C15.8622 21.544 15.8679 21.5268 15.8967 21.5325C15.9658 21.5555 17.4398 20.024 17.434 19.9319C17.4282 19.8916 17.457 19.8686 17.4916 19.8858C17.5664 19.9146 18.8849 18.6595 18.8619 18.5789C18.8561 18.5443 18.8676 18.5328 18.8964 18.5501C18.9655 18.5904 19.2073 18.3313 19.1555 18.268C19.1267 18.2449 19.1382 18.2392 19.1728 18.2565C19.2361 18.291 19.3858 18.1758 19.3513 18.1183C19.3455 18.1068 19.3513 18.101 19.3628 18.1068C19.4146 18.1413 19.881 17.7037 19.8464 17.6461C19.8291 17.6174 19.8407 17.6058 19.8694 17.6231C19.9443 17.6692 20.0767 17.5252 20.0134 17.4619C19.9904 17.4331 20.0019 17.4331 20.0364 17.4504C20.117 17.4965 20.307 17.3007 20.2494 17.2316C20.2207 17.2086 20.2322 17.2028 20.2667 17.2201C20.3185 17.2489 21.2685 16.4025 22.1149 15.5677C22.2761 15.4064 22.9094 14.7961 23.5255 14.2089C25.5407 12.2858 26.2949 11.5201 26.2488 11.4395C26.2201 11.3992 26.2258 11.3819 26.2604 11.4049C26.2949 11.4279 26.4504 11.3013 26.6001 11.1228C26.7555 10.9443 26.9513 10.7313 27.0319 10.6449C27.4407 10.2304 27.8897 9.65461 27.8552 9.59127C27.8322 9.55673 27.8379 9.54522 27.8725 9.56249C27.9473 9.60855 28.2525 9.27461 28.2064 9.19976C28.1891 9.17097 28.2064 9.1537 28.2467 9.17097C28.3216 9.19976 28.9664 8.46855 28.9434 8.38218C28.9319 8.35915 28.9434 8.34188 28.9722 8.35339C28.9952 8.35915 29.0182 8.34764 29.0298 8.32461C29.0413 8.30733 29.1737 8.15763 29.3176 8.00218C29.4673 7.84097 29.7034 7.58187 29.8473 7.41491C29.9913 7.25369 30.2273 6.98884 30.377 6.82187C30.5267 6.6549 30.6419 6.48793 30.6246 6.45339C30.6131 6.41309 30.6188 6.3843 30.6476 6.39581C30.6994 6.40733 31.304 5.76824 31.8567 5.11187C32.0582 4.87581 32.3288 4.55339 32.4613 4.39793C32.5879 4.24248 32.6916 4.09278 32.6858 4.06975C32.6743 4.04096 32.6916 4.01793 32.7204 4.01793C32.7491 4.01793 32.9161 3.82793 33.0946 3.59763C33.2673 3.37309 33.584 2.97581 33.7913 2.72248C34.4016 1.96824 34.7413 1.47308 34.7413 1.3349C34.7413 1.12763 34.6261 0.926113 34.4707 0.857021C34.2807 0.770657 33.9755 0.77066 34.0273 0.862782Z" fill="#EF3340" stroke="#EF3340" stroke-width="0.7"/>
<path d="M21.355 24.6935C21.0383 24.9296 20.0019 26.2308 20.0019 26.392C20.0019 26.415 19.9674 26.4784 19.9271 26.5244C19.8292 26.6396 19.4665 27.4975 19.3398 27.912C19.1038 28.6605 19.0116 29.2708 18.9886 30.2093L18.9656 31.1478L19.1728 31.3435C19.4262 31.5853 19.645 31.5968 19.8695 31.3896C20.025 31.2456 20.0307 31.2168 20.0135 30.7678C20.0019 30.3475 20.0595 29.6105 20.1516 28.9829C20.215 28.5799 20.5719 27.5896 20.808 27.1693C20.9347 26.9505 21.0383 26.749 21.0383 26.7375C21.0383 26.6799 21.6371 25.9141 21.9077 25.6262C22.1438 25.3729 22.1898 25.2923 22.1898 25.1023C22.1898 24.6762 21.7004 24.4402 21.355 24.6935Z" fill="#EF3340" stroke="#EF3340" stroke-width="0.7"/>
<path d="M59.0182 21.1085C58.9088 21.1545 58.6727 21.333 58.5 21.5C58.3273 21.667 50.4478 27.8833 50.1139 28.1481C49.7799 28.413 49.4978 28.6433 49.4806 28.6606C49.4633 28.6778 49.2733 28.8333 49.0487 29.006C48.8299 29.1787 48.6054 29.3572 48.5593 29.3918C48.0296 29.8236 45.0472 31.8618 44.3563 32.2706C44.2469 32.3339 43.7921 32.6103 43.343 32.8751C42.8939 33.1457 42.1569 33.5718 41.7021 33.8194C40.4124 34.516 40.0324 34.8039 39.589 35.4142C39.2493 35.8748 39.1342 36.1051 38.973 36.6175C38.8406 37.0263 38.8175 37.2048 38.8118 37.8151C38.8118 38.2987 38.8406 38.6615 38.9039 38.909C39.1457 39.8936 39.3875 41.0048 39.4336 41.3618C39.4451 41.4539 39.4912 41.6957 39.543 41.903C39.589 42.1103 39.6409 42.4039 39.6639 42.5651C39.6812 42.7206 39.7215 42.9566 39.7503 43.0891C39.779 43.2157 39.8193 43.4403 39.8366 43.5784C39.8539 43.7166 39.9057 44.0794 39.9518 44.3787C40.1706 45.8009 40.4296 48.1154 40.4699 49.0136C40.4872 49.3303 40.5275 49.9636 40.5621 50.4242C40.6427 51.5124 40.6427 54.8345 40.5621 55.606C40.5275 55.94 40.4872 56.4294 40.4699 56.7C40.4296 57.4024 40.1475 59.8897 39.946 61.3175C39.8999 61.6572 39.8424 62.1581 39.8309 62.423C39.8021 62.8894 39.8078 62.9181 39.9403 63.0563C40.1533 63.2694 40.3433 63.2981 40.5851 63.1484C40.6945 63.0794 40.7981 62.97 40.8154 62.9009C40.8557 62.7109 40.9939 61.6803 41.1321 60.5575C41.1954 60.0048 41.2933 59.239 41.3393 58.859C41.3854 58.479 41.4315 57.9897 41.4487 57.7766C41.4603 57.5578 41.5178 57.0166 41.5639 56.5675C41.6963 55.4333 41.6963 50.7121 41.5696 49.3303C41.5236 48.8063 41.466 48.1327 41.4487 47.8333C41.4315 47.5339 41.3796 47.0387 41.3336 46.7394C41.2875 46.44 41.2415 46.0081 41.2242 45.7836C41.2069 45.5591 41.1666 45.2366 41.1321 45.0697C41.0975 44.8969 41.063 44.6148 41.0457 44.4421C41.0284 44.2636 40.9766 43.9239 40.9306 43.6878C40.8903 43.4518 40.8384 43.1409 40.8212 42.9969C40.8039 42.853 40.7521 42.5421 40.706 42.306C40.6542 42.07 40.5621 41.5748 40.4987 41.2121C40.4296 40.8494 40.3375 40.3945 40.2972 40.2045C40.2512 40.0145 40.1648 39.6115 40.0957 39.3121C40.0324 39.0127 39.946 38.65 39.9057 38.506C39.8193 38.1606 39.8366 37.51 39.946 37.0897C40.159 36.2606 40.7521 35.5697 41.6963 35.0515C42.0015 34.8787 42.3469 34.6945 42.4563 34.6312C43.1242 34.2684 45.4906 32.8578 45.5999 32.76C45.6345 32.7254 45.9339 32.5297 46.2621 32.3166C46.953 31.8733 47.4136 31.5681 47.4942 31.4991C47.5287 31.4703 47.6842 31.3609 47.8396 31.2515C48.0009 31.1421 48.139 31.0384 48.1448 31.0097C48.1563 30.9866 48.1909 30.9636 48.2196 30.9636C48.2484 30.9636 48.3175 30.9233 48.3693 30.8772C48.4269 30.8312 48.7839 30.5606 49.1639 30.2727C50.5687 29.2075 59.4961 22.1276 59.6803 21.8685C59.8127 21.6727 59.7897 21.4021 59.6227 21.2236C59.5479 21.143 59.4615 21.0739 59.427 21.0739C59.3982 21.0739 59.3406 21.0624 59.2945 21.0452C59.2542 21.0336 59.1276 21.0624 59.0182 21.1085Z" fill="#EF3340" stroke="#EF3340" stroke-width="0.7"/>
</svg>
