<svg width="64" height="64" viewBox="0 0 64 64" fill="none" xmlns="http://www.w3.org/2000/svg">
<path d="M34.0273 0.862798C34.0504 0.903101 34.0446 0.908858 34.0043 0.885827C33.9352 0.845524 33.6473 1.08734 33.6473 1.19098C33.6473 1.21976 33.6243 1.25431 33.5898 1.26582C33.561 1.27158 33.4228 1.43279 33.2904 1.61128C32.9507 2.06037 32.2252 2.98159 32.0755 3.15431C31.707 3.57462 31.2982 4.15613 31.327 4.20795C31.3443 4.2425 31.3385 4.24825 31.304 4.23098C31.2407 4.19068 30.9816 4.45552 30.4519 5.0831C30.2676 5.30189 29.997 5.61856 29.8473 5.77401C29.7034 5.93522 29.4558 6.2231 29.2946 6.40735C29.1334 6.59735 28.811 6.97159 28.5749 7.23644C28.1431 7.72583 27.7976 8.12311 26.5137 9.60856C26.1279 10.0634 25.3046 10.9443 24.6885 11.5661C24.0725 12.1822 23.5888 12.7119 23.6119 12.7407C23.6407 12.7637 23.6291 12.7695 23.5946 12.7522C23.514 12.7062 23.0937 13.1322 23.1513 13.2013C23.1801 13.2243 23.1685 13.2301 23.134 13.2128C23.0591 13.1668 21.401 14.6983 21.424 14.7846C21.4355 14.8192 21.4182 14.8365 21.3894 14.8249C21.3319 14.8134 20.1861 15.8613 19.3628 16.6846C19.0922 16.9553 18.2343 17.7786 17.4513 18.5213C16.6682 19.2583 16.0464 19.8916 16.0694 19.9262C16.0867 19.955 16.0752 19.9665 16.0407 19.9434C15.9658 19.8974 15.2116 20.7437 14.7798 21.3598C14.607 21.6074 14.4401 21.8204 14.4113 21.8377C14.3537 21.878 13.5534 23.2195 13.5534 23.2828C13.5534 23.3059 13.5188 23.3692 13.4728 23.4153C13.4325 23.4671 13.3001 23.7262 13.1849 23.991C13.0064 24.3941 12.9834 24.4862 13.0467 24.5668C13.1101 24.6474 13.1101 24.6474 13.0294 24.5898C12.9546 24.5265 12.9143 24.5956 12.7301 25.0907C12.6149 25.4074 12.517 25.701 12.517 25.7471C12.517 25.7931 12.471 25.9428 12.4134 26.081C12.3155 26.3171 12.2522 26.5877 12.0276 27.7334C11.7916 28.9253 13.1392 59.0789 13.3695 60.7716C13.4098 61.1055 13.4501 61.4855 13.4559 61.6122C13.4559 61.7446 13.4847 62.0325 13.5192 62.2455C13.548 62.4643 13.5768 62.6716 13.5768 62.7119C13.5768 62.7464 13.6459 62.8558 13.7265 62.9537C13.9165 63.1783 14.2274 63.2013 14.4635 62.9998C14.6535 62.8386 14.665 62.6025 14.5383 61.6064C14.4865 61.2264 14.4347 60.7198 14.4117 60.4837C14.3944 60.2477 14.3368 59.764 14.2908 59.4186C14.1871 58.7334 12.8625 29.2822 12.9776 28.5453C13.0122 28.338 13.0525 28.0847 13.064 27.9753C13.1273 27.5665 13.3173 26.7259 13.4037 26.4841C13.4498 26.3516 13.4958 26.2192 13.4958 26.1962C13.5131 26.0292 13.9104 24.941 14.0658 24.6474C14.1637 24.4516 14.2673 24.1983 14.2731 24.1407C14.2731 24.1062 14.2904 24.0716 14.3076 24.0544C14.3307 24.0371 14.4976 23.7665 14.6761 23.4498C14.964 22.9489 15.4188 22.2407 15.511 22.1544C15.6664 22.0047 15.914 21.6247 15.8852 21.5786C15.8622 21.5441 15.8679 21.5268 15.8967 21.5325C15.9658 21.5556 17.4398 20.024 17.434 19.9319C17.4282 19.8916 17.457 19.8686 17.4916 19.8859C17.5664 19.9147 18.8849 18.6595 18.8619 18.5789C18.8561 18.5443 18.8676 18.5328 18.8964 18.5501C18.9655 18.5904 19.2073 18.3313 19.1555 18.268C19.1267 18.245 19.1382 18.2392 19.1728 18.2565C19.2361 18.291 19.3858 18.1759 19.3513 18.1183C19.3455 18.1068 19.3513 18.101 19.3628 18.1068C19.4146 18.1413 19.881 17.7037 19.8464 17.6462C19.8291 17.6174 19.8407 17.6059 19.8694 17.6231C19.9443 17.6692 20.0767 17.5253 20.0134 17.4619C19.9904 17.4331 20.0019 17.4331 20.0364 17.4504C20.117 17.4965 20.307 17.3007 20.2494 17.2316C20.2207 17.2086 20.2322 17.2028 20.2667 17.2201C20.3185 17.2489 21.2685 16.4025 22.1149 15.5677C22.2761 15.4065 22.9094 14.7962 23.5255 14.2089C25.5407 12.2859 26.2949 11.5201 26.2488 11.4395C26.2201 11.3992 26.2258 11.3819 26.2604 11.4049C26.2949 11.428 26.4504 11.3013 26.6001 11.1228C26.7555 10.9443 26.9513 10.7313 27.0319 10.6449C27.4407 10.2304 27.8897 9.65462 27.8552 9.59129C27.8322 9.55674 27.8379 9.54523 27.8725 9.5625C27.9473 9.60857 28.2525 9.27462 28.2064 9.19978C28.1891 9.17099 28.2064 9.15371 28.2467 9.17099C28.3216 9.19977 28.9664 8.46856 28.9434 8.3822C28.9319 8.35917 28.9434 8.3419 28.9722 8.35341C28.9952 8.35917 29.0182 8.34765 29.0298 8.32462C29.0413 8.30735 29.1737 8.15765 29.3176 8.0022C29.4673 7.84099 29.7034 7.58189 29.8473 7.41492C29.9913 7.25371 30.2273 6.98886 30.377 6.82189C30.5267 6.65492 30.6419 6.48795 30.6246 6.4534C30.6131 6.4131 30.6188 6.38431 30.6476 6.39583C30.6994 6.40734 31.304 5.76825 31.8567 5.11189C32.0582 4.87583 32.3288 4.55341 32.4613 4.39795C32.5879 4.2425 32.6916 4.0928 32.6858 4.06977C32.6743 4.04098 32.6916 4.01795 32.7204 4.01795C32.7491 4.01795 32.9161 3.82795 33.0946 3.59765C33.2673 3.3731 33.584 2.97583 33.7913 2.72249C34.4016 1.96825 34.7413 1.4731 34.7413 1.33492C34.7413 1.20256 34.6943 1.07256 34.6199 0.977881C34.5778 0.924287 34.5269 0.882011 34.4707 0.857038C34.2807 0.770674 33.9755 0.770677 34.0273 0.862798Z" fill="#EF3340"/>
<path d="M59.0183 21.1083C58.9089 21.1544 58.6728 21.3329 58.5001 21.4999C58.3274 21.6668 50.4479 27.8831 50.114 28.148C49.7801 28.4128 49.4979 28.6431 49.4807 28.6604C49.4634 28.6777 49.2734 28.8331 49.0488 29.0059C48.8301 29.1786 48.6055 29.3571 48.5594 29.3916C48.0298 29.8235 45.0473 31.8616 44.3564 32.2704C44.247 32.3338 43.7922 32.6101 43.3431 32.875C42.894 33.1456 42.157 33.5716 41.7022 33.8192C40.4125 34.5159 40.0325 34.8038 39.5891 35.4141C39.2494 35.8747 39.1343 36.105 38.9731 36.6174C38.8407 37.0262 38.8176 37.2047 38.8119 37.815C38.8119 38.2986 38.8407 38.6613 38.904 38.9089C39.1458 39.8935 39.3876 41.0047 39.4337 41.3616C39.4452 41.4538 39.4913 41.6956 39.5431 41.9028C39.5891 42.1101 39.641 42.4038 39.664 42.565C39.6813 42.7204 39.7216 42.9565 39.7504 43.0889C39.7791 43.2156 39.8194 43.4401 39.8367 43.5783C39.854 43.7165 39.9058 44.0792 39.9519 44.3786C40.1707 45.8007 40.4298 48.1153 40.4701 49.0135C40.4873 49.3301 40.5276 49.9635 40.5622 50.4241C40.6428 51.5122 40.6428 54.8344 40.5622 55.6059C40.5276 55.9398 40.4873 56.4292 40.4701 56.6998C40.4298 57.4022 40.1476 59.8895 39.9461 61.3174C39.9001 61.6571 39.8425 62.158 39.831 62.4228C39.8022 62.8892 39.8079 62.918 39.9404 63.0562C39.9749 63.0907 40.0088 63.1204 40.0424 63.1452C40.2163 63.2739 40.3826 63.2738 40.5852 63.1483C40.6946 63.0792 40.7982 62.9698 40.8155 62.9007C40.8558 62.7107 40.994 61.6801 41.1322 60.5574C41.1955 60.0047 41.2934 59.2389 41.3394 58.8589C41.3855 58.4789 41.4316 57.9895 41.4488 57.7765C41.4604 57.5577 41.5179 57.0165 41.564 56.5674C41.6964 55.4331 41.6964 50.7119 41.5697 49.3301C41.5237 48.8062 41.4661 48.1325 41.4488 47.8331C41.4316 47.5338 41.3797 47.0386 41.3337 46.7392C41.2876 46.4398 41.2416 46.008 41.2243 45.7835C41.207 45.5589 41.1667 45.2365 41.1322 45.0695C41.0976 44.8968 41.0631 44.6147 41.0458 44.4419C41.0285 44.2635 40.9767 43.9238 40.9307 43.6877C40.8904 43.4516 40.8385 43.1407 40.8213 42.9968C40.804 42.8528 40.7522 42.5419 40.7061 42.3059C40.6543 42.0698 40.5622 41.5747 40.4988 41.2119C40.4297 40.8492 40.3376 40.3944 40.2973 40.2044C40.2513 40.0144 40.1649 39.6113 40.0958 39.3119C40.0325 39.0125 39.9461 38.6498 39.9058 38.5059C39.8194 38.1604 39.8367 37.5098 39.9461 37.0895C40.1591 36.2604 40.7522 35.5695 41.6964 35.0513C42.0016 34.8786 42.347 34.6944 42.4564 34.631C43.1243 34.2683 45.4907 32.8577 45.6001 32.7598C45.6346 32.7253 45.934 32.5295 46.2622 32.3165C46.9531 31.8731 47.4137 31.568 47.4943 31.4989C47.5288 31.4701 47.6843 31.3607 47.8397 31.2513C48.001 31.1419 48.1391 31.0383 48.1449 31.0095C48.1564 30.9865 48.191 30.9635 48.2197 30.9635C48.2485 30.9635 48.3176 30.9231 48.3694 30.8771C48.427 30.831 48.784 30.5604 49.164 30.2725C50.5688 29.2074 59.4962 22.1274 59.6804 21.8683C59.8128 21.6726 59.7898 21.402 59.6228 21.2235C59.5569 21.1524 59.4819 21.0903 59.4414 21.0766C59.436 21.0748 59.4312 21.0738 59.4271 21.0738C59.3983 21.0738 59.3407 21.0623 59.2947 21.045C59.2543 21.0335 59.1277 21.0623 59.0183 21.1083Z" fill="#EF3340"/>
<path d="M14.5383 61.6064C14.665 62.6025 14.6535 62.8386 14.4635 62.9998L40.0424 63.1452C40.0088 63.1204 39.9749 63.0907 39.9404 63.0562C39.8079 62.918 39.8022 62.8892 39.831 62.4228C39.8425 62.158 39.9001 61.6571 39.9461 61.3174C40.1476 59.8895 40.4298 57.4022 40.4701 56.6998C40.4873 56.4292 40.5276 55.9398 40.5622 55.6059C40.6428 54.8344 40.6428 51.5122 40.5622 50.4241C40.5276 49.9635 40.4873 49.3301 40.4701 49.0135C40.4298 48.1153 40.1707 45.8007 39.9519 44.3786C39.9058 44.0792 39.854 43.7165 39.8367 43.5783C39.8194 43.4401 39.7791 43.2156 39.7504 43.0889C39.7216 42.9565 39.6813 42.7204 39.664 42.565C39.641 42.4038 39.5891 42.1101 39.5431 41.9028C39.4913 41.6956 39.4452 41.4538 39.4337 41.3616C39.3876 41.0047 39.1458 39.8935 38.904 38.9089C38.8407 38.6613 38.8119 38.2986 38.8119 37.815C38.8176 37.2047 38.8407 37.0262 38.9731 36.6174C39.1343 36.105 39.2494 35.8747 39.5891 35.4141C40.0325 34.8038 40.4125 34.5159 41.7022 33.8192C42.157 33.5716 42.894 33.1456 43.3431 32.875C43.7922 32.6101 44.247 32.3338 44.3564 32.2704C45.0473 31.8616 48.0298 29.8235 48.5594 29.3916C48.6055 29.3571 48.8301 29.1786 49.0488 29.0059C49.2734 28.8331 49.4634 28.6777 49.4807 28.6604C49.4979 28.6431 49.7801 28.4128 50.114 28.148C50.4479 27.8831 58.3274 21.6668 58.5001 21.4999C58.6728 21.3329 58.9089 21.1544 59.0183 21.1083C59.1277 21.0623 59.2543 21.0335 59.2947 21.045C59.3407 21.0623 59.3983 21.0738 59.4271 21.0738C59.4312 21.0738 59.436 21.0748 59.4414 21.0766L34.6199 0.977881C34.6943 1.07256 34.7413 1.20256 34.7413 1.33492C34.7413 1.4731 34.4016 1.96825 33.7913 2.72249C33.584 2.97583 33.2673 3.3731 33.0946 3.59765C32.9161 3.82795 32.7491 4.01795 32.7204 4.01795C32.6916 4.01795 32.6743 4.04098 32.6858 4.06977C32.6916 4.0928 32.5879 4.2425 32.4613 4.39795C32.3288 4.55341 32.0582 4.87583 31.8567 5.11189C31.304 5.76825 30.6994 6.40734 30.6476 6.39583C30.6188 6.38431 30.6131 6.4131 30.6246 6.4534C30.6419 6.48795 30.5267 6.65492 30.377 6.82189C30.2273 6.98886 29.9913 7.25371 29.8473 7.41492C29.7034 7.58189 29.4673 7.84099 29.3176 8.0022C29.1737 8.15765 29.0413 8.30735 29.0298 8.32462C29.0182 8.34765 28.9952 8.35917 28.9722 8.35341C28.9434 8.3419 28.9319 8.35917 28.9434 8.3822C28.9664 8.46856 28.3216 9.19977 28.2467 9.17099C28.2064 9.15371 28.1891 9.17099 28.2064 9.19978C28.2525 9.27462 27.9473 9.60857 27.8725 9.5625C27.8379 9.54523 27.8322 9.55674 27.8552 9.59129C27.8897 9.65462 27.4407 10.2304 27.0319 10.6449C26.9513 10.7313 26.7555 10.9443 26.6001 11.1228C26.4504 11.3013 26.2949 11.428 26.2604 11.4049C26.2258 11.3819 26.2201 11.3992 26.2488 11.4395C26.2949 11.5201 25.5407 12.2859 23.5255 14.2089C22.9094 14.7962 22.2761 15.4065 22.1149 15.5677C21.2685 16.4025 20.3185 17.2489 20.2667 17.2201C20.2322 17.2028 20.2207 17.2086 20.2494 17.2316C20.307 17.3007 20.117 17.4965 20.0364 17.4504C20.0019 17.4331 19.9904 17.4331 20.0134 17.4619C20.0767 17.5253 19.9443 17.6692 19.8694 17.6231C19.8407 17.6059 19.8291 17.6174 19.8464 17.6462C19.881 17.7037 19.4146 18.1413 19.3628 18.1068C19.3513 18.101 19.3455 18.1068 19.3513 18.1183C19.3858 18.1759 19.2361 18.291 19.1728 18.2565C19.1382 18.2392 19.1267 18.245 19.1555 18.268C19.2073 18.3313 18.9655 18.5904 18.8964 18.5501C18.8676 18.5328 18.8561 18.5443 18.8619 18.5789C18.8849 18.6595 17.5664 19.9147 17.4916 19.8859C17.457 19.8686 17.4282 19.8916 17.434 19.9319C17.4398 20.024 15.9658 21.5556 15.8967 21.5325C15.8679 21.5268 15.8622 21.5441 15.8852 21.5786C15.914 21.6247 15.6664 22.0047 15.511 22.1544C15.4188 22.2407 14.964 22.9489 14.6761 23.4498C14.4976 23.7665 14.3307 24.0371 14.3076 24.0544C14.2904 24.0716 14.2731 24.1062 14.2731 24.1407C14.2673 24.1983 14.1637 24.4516 14.0658 24.6474C13.9104 24.941 13.5131 26.0292 13.4958 26.1962C13.4958 26.2192 13.4498 26.3516 13.4037 26.4841C13.3173 26.7259 13.1273 27.5665 13.064 27.9753C13.0525 28.0847 13.0122 28.338 12.9776 28.5453C12.8625 29.2822 14.1871 58.7334 14.2908 59.4186C14.3368 59.764 14.3944 60.2477 14.4117 60.4837C14.4347 60.7198 14.4865 61.2264 14.5383 61.6064Z" fill="#EF3340"/>
<path d="M14.4635 62.9998C14.2274 63.2013 13.9165 63.1783 13.7265 62.9537C13.6459 62.8558 13.5768 62.7464 13.5768 62.7119C13.5768 62.6716 13.548 62.4643 13.5192 62.2455C13.4847 62.0325 13.4559 61.7446 13.4559 61.6122C13.4501 61.4855 13.4098 61.1055 13.3695 60.7716C13.1392 59.0789 11.7916 28.9253 12.0276 27.7334C12.2522 26.5877 12.3155 26.3171 12.4134 26.081C12.471 25.9428 12.517 25.7931 12.517 25.7471C12.517 25.701 12.6149 25.4074 12.7301 25.0907C12.9143 24.5956 12.9546 24.5265 13.0294 24.5898C13.1101 24.6474 13.1101 24.6474 13.0467 24.5668C12.9834 24.4862 13.0064 24.3941 13.1849 23.991C13.3001 23.7262 13.4325 23.4671 13.4728 23.4153C13.5188 23.3692 13.5534 23.3059 13.5534 23.2828C13.5534 23.2195 14.3537 21.878 14.4113 21.8377C14.4401 21.8204 14.607 21.6074 14.7798 21.3598C15.2116 20.7437 15.9658 19.8974 16.0407 19.9434C16.0752 19.9665 16.0867 19.955 16.0694 19.9262C16.0464 19.8916 16.6682 19.2583 17.4513 18.5213C18.2343 17.7786 19.0922 16.9553 19.3628 16.6846C20.1861 15.8613 21.3319 14.8134 21.3894 14.8249C21.4182 14.8365 21.4355 14.8192 21.424 14.7846C21.401 14.6983 23.0591 13.1668 23.134 13.2128C23.1685 13.2301 23.1801 13.2243 23.1513 13.2013C23.0937 13.1322 23.514 12.7062 23.5946 12.7522C23.6291 12.7695 23.6407 12.7637 23.6119 12.7407C23.5888 12.7119 24.0725 12.1822 24.6885 11.5661C25.3046 10.9443 26.1279 10.0634 26.5137 9.60856C27.7976 8.12311 28.1431 7.72583 28.5749 7.23644C28.811 6.97159 29.1334 6.59735 29.2946 6.40735C29.4558 6.2231 29.7034 5.93522 29.8473 5.77401C29.997 5.61856 30.2676 5.30189 30.4519 5.0831C30.9816 4.45552 31.2407 4.19068 31.304 4.23098C31.3385 4.24825 31.3443 4.2425 31.327 4.20795C31.2982 4.15613 31.707 3.57462 32.0755 3.15431C32.2252 2.98159 32.9507 2.06037 33.2904 1.61128C33.4228 1.43279 33.561 1.27158 33.5898 1.26582C33.6243 1.25431 33.6473 1.21976 33.6473 1.19098C33.6473 1.08734 33.9352 0.845524 34.0043 0.885827C34.0446 0.908858 34.0504 0.903101 34.0273 0.862798C33.9755 0.770677 34.2807 0.770674 34.4707 0.857038M14.4635 62.9998C14.6535 62.8386 14.665 62.6025 14.5383 61.6064C14.4865 61.2264 14.4347 60.7198 14.4117 60.4837C14.3944 60.2477 14.3368 59.764 14.2908 59.4186C14.1871 58.7334 12.8625 29.2822 12.9776 28.5453C13.0122 28.338 13.0525 28.0847 13.064 27.9753C13.1273 27.5665 13.3173 26.7259 13.4037 26.4841C13.4498 26.3516 13.4958 26.2192 13.4958 26.1962C13.5131 26.0292 13.9104 24.941 14.0658 24.6474C14.1637 24.4516 14.2673 24.1983 14.2731 24.1407C14.2731 24.1062 14.2904 24.0716 14.3076 24.0544C14.3307 24.0371 14.4976 23.7665 14.6761 23.4498C14.964 22.9489 15.4188 22.2407 15.511 22.1544C15.6664 22.0047 15.914 21.6247 15.8852 21.5786C15.8622 21.5441 15.8679 21.5268 15.8967 21.5325C15.9658 21.5556 17.4398 20.024 17.434 19.9319C17.4282 19.8916 17.457 19.8686 17.4916 19.8859C17.5664 19.9147 18.8849 18.6595 18.8619 18.5789C18.8561 18.5443 18.8676 18.5328 18.8964 18.5501C18.9655 18.5904 19.2073 18.3313 19.1555 18.268C19.1267 18.245 19.1382 18.2392 19.1728 18.2565C19.2361 18.291 19.3858 18.1759 19.3513 18.1183C19.3455 18.1068 19.3513 18.101 19.3628 18.1068C19.4146 18.1413 19.881 17.7037 19.8464 17.6462C19.8291 17.6174 19.8407 17.6059 19.8694 17.6231C19.9443 17.6692 20.0767 17.5253 20.0134 17.4619C19.9904 17.4331 20.0019 17.4331 20.0364 17.4504C20.117 17.4965 20.307 17.3007 20.2494 17.2316C20.2207 17.2086 20.2322 17.2028 20.2667 17.2201C20.3185 17.2489 21.2685 16.4025 22.1149 15.5677C22.2761 15.4065 22.9094 14.7962 23.5255 14.2089C25.5407 12.2859 26.2949 11.5201 26.2488 11.4395C26.2201 11.3992 26.2258 11.3819 26.2604 11.4049C26.2949 11.428 26.4504 11.3013 26.6001 11.1228C26.7555 10.9443 26.9513 10.7313 27.0319 10.6449C27.4407 10.2304 27.8897 9.65462 27.8552 9.59129C27.8322 9.55675 27.8379 9.54523 27.8725 9.5625C27.9473 9.60857 28.2525 9.27463 28.2064 9.19978C28.1891 9.17099 28.2064 9.15371 28.2467 9.17099C28.3216 9.19978 28.9664 8.46856 28.9434 8.3822C28.9319 8.35917 28.9434 8.3419 28.9722 8.35341C28.9952 8.35917 29.0182 8.34765 29.0298 8.32462C29.0413 8.30735 29.1737 8.15765 29.3176 8.0022C29.4673 7.84099 29.7034 7.58189 29.8473 7.41492C29.9913 7.25371 30.2273 6.98886 30.377 6.82189C30.5267 6.65492 30.6419 6.48795 30.6246 6.4534C30.6131 6.4131 30.6188 6.38431 30.6476 6.39583C30.6994 6.40734 31.304 5.76825 31.8567 5.11189C32.0582 4.87583 32.3288 4.55341 32.4613 4.39795C32.5879 4.2425 32.6916 4.0928 32.6858 4.06977C32.6743 4.04098 32.6916 4.01795 32.7204 4.01795C32.7491 4.01795 32.9161 3.82795 33.0946 3.59765C33.2673 3.3731 33.584 2.97583 33.7913 2.72249C34.4016 1.96825 34.7413 1.4731 34.7413 1.33492C34.7413 1.20256 34.6943 1.07256 34.6199 0.977881M14.4635 62.9998L40.0424 63.1452M34.4707 0.857038C34.5269 0.882011 34.5778 0.924287 34.6199 0.977881M34.4707 0.857038L34.6199 0.977881M40.5852 63.1483C40.6946 63.0792 40.7982 62.9698 40.8155 62.9007C40.8558 62.7107 40.994 61.6801 41.1322 60.5574C41.1955 60.0047 41.2934 59.2389 41.3394 58.8589C41.3855 58.4789 41.4316 57.9895 41.4488 57.7765C41.4604 57.5577 41.5179 57.0165 41.564 56.5674C41.6964 55.4331 41.6964 50.7119 41.5697 49.3301C41.5237 48.8062 41.4661 48.1325 41.4488 47.8331C41.4316 47.5338 41.3797 47.0386 41.3337 46.7392C41.2876 46.4398 41.2416 46.008 41.2243 45.7835C41.207 45.5589 41.1667 45.2365 41.1322 45.0695C41.0976 44.8968 41.0631 44.6147 41.0458 44.4419C41.0285 44.2635 40.9767 43.9238 40.9307 43.6877C40.8904 43.4516 40.8385 43.1407 40.8213 42.9968C40.804 42.8528 40.7522 42.5419 40.7061 42.3059C40.6543 42.0698 40.5622 41.5747 40.4988 41.2119C40.4297 40.8492 40.3376 40.3944 40.2973 40.2044C40.2513 40.0144 40.1649 39.6113 40.0958 39.3119C40.0325 39.0125 39.9461 38.6498 39.9058 38.5059C39.8194 38.1604 39.8367 37.5098 39.9461 37.0895C40.1591 36.2604 40.7522 35.5695 41.6964 35.0513C42.0016 34.8786 42.347 34.6944 42.4564 34.631C43.1243 34.2683 45.4907 32.8577 45.6001 32.7598C45.6346 32.7253 45.934 32.5295 46.2622 32.3165C46.9531 31.8731 47.4137 31.568 47.4943 31.4989C47.5288 31.4701 47.6843 31.3607 47.8397 31.2513C48.001 31.1419 48.1391 31.0383 48.1449 31.0095C48.1564 30.9865 48.191 30.9635 48.2197 30.9635C48.2485 30.9635 48.3176 30.9231 48.3694 30.8771C48.427 30.831 48.784 30.5604 49.164 30.2725C50.5688 29.2074 59.4962 22.1274 59.6804 21.8683C59.8128 21.6726 59.7898 21.402 59.6228 21.2235M40.5852 63.1483L40.0424 63.1452M40.5852 63.1483C40.3826 63.2738 40.2163 63.2739 40.0424 63.1452M59.6228 21.2235C59.5569 21.1524 59.4819 21.0903 59.4414 21.0766M59.6228 21.2235L59.4414 21.0766M40.0424 63.1452C40.0088 63.1204 39.9749 63.0907 39.9404 63.0562C39.8079 62.918 39.8022 62.8892 39.831 62.4228C39.8425 62.158 39.9001 61.6571 39.9461 61.3174C40.1476 59.8895 40.4297 57.4022 40.4701 56.6998C40.4873 56.4292 40.5276 55.9398 40.5622 55.6059C40.6428 54.8344 40.6428 51.5122 40.5622 50.4241C40.5276 49.9635 40.4873 49.3301 40.4701 49.0135C40.4297 48.1153 40.1707 45.8007 39.9519 44.3786C39.9058 44.0792 39.854 43.7165 39.8367 43.5783C39.8194 43.4401 39.7791 43.2156 39.7504 43.0889C39.7216 42.9565 39.6813 42.7204 39.664 42.565C39.641 42.4038 39.5891 42.1101 39.5431 41.9028C39.4913 41.6956 39.4452 41.4538 39.4337 41.3616C39.3876 41.0047 39.1458 39.8935 38.904 38.9089C38.8407 38.6613 38.8119 38.2986 38.8119 37.815C38.8176 37.2047 38.8407 37.0262 38.9731 36.6174C39.1343 36.105 39.2494 35.8747 39.5891 35.4141C40.0325 34.8038 40.4125 34.5159 41.7022 33.8192C42.157 33.5716 42.894 33.1456 43.3431 32.875C43.7922 32.6101 44.247 32.3338 44.3564 32.2704C45.0473 31.8616 48.0298 29.8235 48.5594 29.3916C48.6055 29.3571 48.8301 29.1786 49.0488 29.0059C49.2734 28.8331 49.4634 28.6777 49.4807 28.6604C49.4979 28.6431 49.7801 28.4128 50.114 28.148C50.4479 27.8831 58.3274 21.6668 58.5001 21.4999C58.6728 21.3329 58.9089 21.1544 59.0183 21.1083C59.1277 21.0623 59.2543 21.0335 59.2947 21.045C59.3407 21.0623 59.3983 21.0738 59.4271 21.0738C59.4312 21.0738 59.436 21.0748 59.4414 21.0766M59.4414 21.0766L34.6199 0.977881" stroke="#EF3340" stroke-width="0.7"/>
<path d="M52.0006 9.72354C51.8363 9.64341 51.6207 9.64104 51.4555 9.73547C51.3461 9.79305 50.2982 10.7834 49.1755 11.883C48.9797 12.073 48.4039 12.6143 47.8973 13.0864C46.3715 14.5027 42.0591 18.7749 42.0936 18.8382C42.1109 18.867 42.1051 18.8785 42.0764 18.8612C42.0245 18.8267 40.2973 20.4791 39.7848 21.0491C39.2436 21.6594 38.7427 22.4943 38.4894 23.2197C38.2994 23.7552 38.2303 24.4 38.2821 25.1427C38.3685 26.323 38.3051 26.9046 38.0173 27.7279C37.8158 28.2979 37.6891 28.5627 37.3379 29.0924C36.9348 29.7085 35.7948 30.7909 35.553 30.7909C35.5185 30.7909 35.4897 30.814 35.4897 30.8427C35.4897 30.8715 35.4321 30.9176 35.363 30.9406C35.2882 30.9579 35.1673 31.0212 35.0867 31.073C34.9485 31.1652 34.6203 31.2976 34.0503 31.4991C33.5609 31.6718 32.5994 31.7352 31.8624 31.643C30.5612 31.4761 29.2312 30.4512 28.7303 29.2134C28.6554 29.0349 28.5806 28.9082 28.5633 28.9255C28.5461 28.9427 28.5461 28.9082 28.5633 28.8449C28.5921 28.7297 28.6209 28.724 29.5248 28.6318C29.6861 28.6146 29.9279 28.557 30.0718 28.5109C30.2215 28.4591 30.377 28.413 30.423 28.4073C31.183 28.3094 31.5976 27.7567 31.2003 27.3652C31.0276 27.1867 30.7915 27.1809 30.3309 27.3421C30.1467 27.4055 29.9221 27.4688 29.8358 27.4803C29.7494 27.4918 29.5709 27.5321 29.4327 27.5724C28.9894 27.6934 27.9818 27.6646 27.4579 27.5149C26.2142 27.1637 25.3564 26.4785 24.8324 25.4249C24.4409 24.6476 24.3488 24.2388 24.3545 23.3349C24.3603 22.333 24.533 21.7515 25.1664 20.5712C25.3621 20.2027 26.0127 19.437 26.3927 19.1261C26.6115 18.9418 26.7727 18.7691 26.7554 18.7403C26.7382 18.7058 26.7497 18.7 26.7785 18.7173C26.813 18.7403 27.0145 18.654 27.2218 18.5273C27.6248 18.2797 28.1718 18.0264 28.3733 17.9861C28.4367 17.9688 28.6094 17.917 28.7533 17.8652C29.0067 17.7673 29.8703 17.7327 31.1427 17.7673C31.7127 17.7788 32.1445 17.7443 32.4555 17.6521C32.5879 17.6176 32.7261 17.583 32.7548 17.5773C32.9218 17.5427 33.7048 17.18 33.9121 17.0418C34.0445 16.9555 34.3036 16.7885 34.4879 16.6618C34.9139 16.3855 40.2454 11.0021 42.37 8.71638C42.7212 8.34214 43.0839 7.95062 43.1761 7.85275C43.2739 7.75487 43.6309 7.36335 43.9764 6.98335C44.3218 6.60335 44.9321 5.94123 45.3351 5.51517C46.7055 4.05275 47.8627 2.76305 47.8397 2.7285C47.8224 2.71123 47.8282 2.70547 47.8455 2.72274C47.8685 2.73426 48.0009 2.62487 48.1391 2.47517C48.283 2.32547 48.5306 2.07214 48.6861 1.90517C48.8642 1.72313 48.9356 1.63749 48.9632 1.52908L50.4999 5.50004L52.0006 9.72354Z" fill="#FFF5F3"/>
<path d="M22.9611 63.207C23.0436 63.177 23.1209 63.1231 23.1915 63.0449C23.2951 62.9297 23.3009 62.613 23.347 54.7597C23.3988 46.4343 23.393 45.8412 23.1915 44.9143C22.9151 43.6591 22.5121 43.0546 21.1476 41.8455C20.6754 41.4309 20.1861 40.8091 19.9615 40.3485C19.7139 39.8246 19.5527 39.4158 19.5182 39.22C19.5009 39.1279 19.4491 38.8746 19.403 38.6615C19.3454 38.3967 19.3224 38.0052 19.3339 37.4812C19.3512 36.6176 19.4664 36.0706 19.783 35.3164C19.8751 35.0918 19.9673 34.8615 19.9845 34.804C20.0018 34.7521 20.0364 34.7061 20.0594 34.7061C20.0824 34.7061 20.1285 34.637 20.1688 34.5564C20.2436 34.3837 20.52 34.0152 20.8079 33.71C21.4412 33.0191 22.4373 32.4606 23.2261 32.3512C23.8421 32.2706 24.7461 32.334 25.0858 32.4837C25.1894 32.5297 25.3967 32.6103 25.5464 32.6679C25.6961 32.7197 25.8285 32.783 25.8458 32.8003C25.8573 32.8234 25.7421 32.9846 25.5924 33.1573C25.2239 33.5949 24.9533 34.0094 24.6712 34.5852C24.4121 35.1034 24.3833 35.3509 24.5388 35.5582C24.6597 35.7194 25.0454 35.7885 25.2354 35.6906C25.3045 35.6503 25.4715 35.3912 25.6154 35.0976C26.2776 33.7618 27.1988 32.8982 28.3733 32.5124C29.2542 32.2246 29.9739 32.2303 30.9412 32.524C31.7415 32.7658 32.6742 33.5027 33.2385 34.3261C33.4285 34.6024 33.7624 35.2185 33.7624 35.2934C33.7624 35.3164 33.8085 35.4488 33.8718 35.587C34.0906 36.0879 34.223 36.8306 34.223 37.5964C34.223 38.2355 34.1885 38.5118 34.0215 39.2546C33.9006 39.7958 33.3651 40.8206 32.9621 41.2812C32.6397 41.6497 32.5821 41.7073 31.9718 42.2485C30.8145 43.2676 30.3885 44.1543 30.2215 45.8758C30.1524 46.5782 30.1467 47.4879 30.1985 51.7197C30.2273 54.4718 30.2388 58.1049 30.2215 59.7861C30.1927 62.0776 30.1985 62.8779 30.2503 62.9758C30.3135 63.0896 30.4674 63.1755 30.6378 63.2069L22.9611 63.207Z" fill="#FFF5F3"/>
<path d="M52.1003 9.78729C52.0703 9.76243 52.0367 9.74111 52.0006 9.72354M48.9797 1.34093C48.9797 1.41819 48.9766 1.47633 48.9632 1.52908M52.0006 9.72354C51.8363 9.64341 51.6207 9.64104 51.4555 9.73547C51.3461 9.79305 50.2982 10.7834 49.1755 11.883C48.9797 12.073 48.4039 12.6143 47.8973 13.0864C46.3715 14.5027 42.0591 18.7749 42.0936 18.8382C42.1109 18.867 42.1051 18.8785 42.0764 18.8612C42.0245 18.8267 40.2973 20.4791 39.7848 21.0491C39.2436 21.6594 38.7427 22.4943 38.4894 23.2197C38.2994 23.7552 38.2303 24.4 38.2821 25.1427C38.3685 26.323 38.3051 26.9046 38.0173 27.7279C37.8158 28.2979 37.6891 28.5627 37.3379 29.0924C36.9348 29.7085 35.7948 30.7909 35.553 30.7909C35.5185 30.7909 35.4897 30.814 35.4897 30.8427C35.4897 30.8715 35.4321 30.9176 35.363 30.9406C35.2882 30.9579 35.1673 31.0212 35.0867 31.073C34.9485 31.1652 34.6203 31.2976 34.0503 31.4991C33.5609 31.6718 32.5994 31.7352 31.8624 31.643C30.5612 31.4761 29.2312 30.4512 28.7303 29.2134C28.6554 29.0349 28.5806 28.9082 28.5633 28.9255C28.5461 28.9427 28.5461 28.9082 28.5633 28.8449C28.5921 28.7297 28.6209 28.724 29.5248 28.6318C29.6861 28.6146 29.9279 28.557 30.0718 28.5109C30.2215 28.4591 30.377 28.413 30.423 28.4073C31.183 28.3094 31.5976 27.7567 31.2003 27.3652C31.0276 27.1867 30.7915 27.1809 30.3309 27.3421C30.1467 27.4055 29.9221 27.4688 29.8358 27.4803C29.7494 27.4918 29.5709 27.5321 29.4327 27.5724C28.9894 27.6934 27.9818 27.6646 27.4579 27.5149C26.2142 27.1637 25.3564 26.4785 24.8324 25.4249C24.4409 24.6476 24.3488 24.2388 24.3545 23.3349C24.3603 22.333 24.533 21.7515 25.1664 20.5712C25.3621 20.2027 26.0127 19.437 26.3927 19.1261C26.6115 18.9418 26.7727 18.7691 26.7554 18.7403C26.7382 18.7058 26.7497 18.7 26.7785 18.7173C26.813 18.7403 27.0145 18.654 27.2218 18.5273C27.6248 18.2797 28.1718 18.0264 28.3733 17.9861C28.4367 17.9688 28.6094 17.917 28.7533 17.8652C29.0067 17.7673 29.8703 17.7327 31.1427 17.7673C31.7127 17.7788 32.1445 17.7443 32.4555 17.6521C32.5879 17.6176 32.7261 17.583 32.7548 17.5773C32.9218 17.5427 33.7048 17.18 33.9121 17.0418C34.0445 16.9555 34.3036 16.7885 34.4879 16.6618C34.9139 16.3855 40.2454 11.0021 42.37 8.71638C42.7212 8.34214 43.0839 7.95062 43.1761 7.85275C43.2739 7.75487 43.6309 7.36335 43.9764 6.98335C44.3218 6.60335 44.9321 5.94123 45.3351 5.51517C46.7055 4.05275 47.8627 2.76305 47.8397 2.7285C47.8224 2.71123 47.8282 2.70547 47.8455 2.72274C47.8685 2.73426 48.0009 2.62487 48.1391 2.47517C48.283 2.32547 48.5306 2.07214 48.6861 1.90517C48.8642 1.72313 48.9356 1.63749 48.9632 1.52908M52.0006 9.72354L50.4999 5.50004L48.9632 1.52908M23.1915 63.0449C23.2951 62.9297 23.3009 62.613 23.347 54.7597C23.3988 46.4343 23.393 45.8412 23.1915 44.9143C22.9151 43.6591 22.5121 43.0546 21.1476 41.8455C20.6754 41.4309 20.1861 40.8091 19.9615 40.3485C19.7139 39.8246 19.5527 39.4158 19.5182 39.22C19.5009 39.1279 19.4491 38.8746 19.403 38.6615C19.3454 38.3967 19.3224 38.0052 19.3339 37.4812C19.3512 36.6176 19.4664 36.0706 19.783 35.3164C19.8751 35.0918 19.9673 34.8615 19.9845 34.804C20.0018 34.7521 20.0364 34.7061 20.0594 34.7061C20.0824 34.7061 20.1285 34.637 20.1688 34.5564C20.2436 34.3837 20.52 34.0152 20.8079 33.71C21.4412 33.0191 22.4373 32.4606 23.2261 32.3512C23.8421 32.2706 24.7461 32.334 25.0858 32.4837C25.1894 32.5297 25.3967 32.6103 25.5464 32.6679C25.6961 32.7197 25.8285 32.783 25.8458 32.8003C25.8573 32.8233 25.7421 32.9846 25.5924 33.1573C25.2239 33.5949 24.9533 34.0094 24.6712 34.5852C24.4121 35.1034 24.3833 35.3509 24.5388 35.5582C24.6597 35.7194 25.0454 35.7885 25.2354 35.6906C25.3045 35.6503 25.4715 35.3912 25.6154 35.0976C26.2776 33.7618 27.1988 32.8982 28.3733 32.5124C29.2542 32.2246 29.9739 32.2303 30.9412 32.524C31.7415 32.7658 32.6742 33.5027 33.2385 34.3261C33.4285 34.6024 33.7624 35.2185 33.7624 35.2934C33.7624 35.3164 33.8085 35.4488 33.8718 35.587C34.0906 36.0879 34.223 36.8306 34.223 37.5964C34.223 38.2355 34.1885 38.5118 34.0215 39.2546C33.9006 39.7958 33.3651 40.8206 32.9621 41.2812C32.6397 41.6497 32.5821 41.7073 31.9718 42.2485C30.8145 43.2676 30.3885 44.1543 30.2215 45.8758C30.1524 46.5782 30.1467 47.4879 30.1985 51.7197C30.2273 54.4718 30.2388 58.1049 30.2215 59.7861C30.1927 62.0776 30.1985 62.8779 30.2503 62.9758C30.3135 63.0896 30.4674 63.1755 30.6378 63.2069L22.9611 63.207C23.0436 63.177 23.1209 63.1231 23.1915 63.0449Z" stroke="#B00C2F"/>
<path d="M21.3547 24.6935C21.0381 24.9296 20.0017 26.2308 20.0017 26.392C20.0017 26.415 19.9672 26.4784 19.9268 26.5244C19.829 26.6396 19.4662 27.4975 19.3396 27.912C19.1035 28.6605 19.0114 29.2708 18.9884 30.2093L18.9653 31.1478L19.1726 31.3435C19.4259 31.5853 19.6447 31.5968 19.8693 31.3896C20.0247 31.2456 20.0305 31.2168 20.0132 30.7678C20.0017 30.3475 20.0593 29.6105 20.1514 28.9829C20.2147 28.5799 20.5717 27.5896 20.8078 27.1693C20.9344 26.9505 21.0381 26.749 21.0381 26.7375C21.0381 26.6799 21.6368 25.9141 21.9075 25.6262C22.1435 25.3729 22.1896 25.2923 22.1896 25.1023C22.1896 24.6762 21.7002 24.4402 21.3547 24.6935Z" fill="white"/>
</svg>
