<svg width="64.000000" height="64.000000" viewBox="0 0 64 64" fill="none" xmlns="http://www.w3.org/2000/svg" xmlns:xlink="http://www.w3.org/1999/xlink">
	<desc>
			Created with Pixso.
	</desc>
	<defs>
		<clipPath id="clip668_44780">
			<rect id="Property 1=Default" width="64.000000" height="64.000000" fill="white" fill-opacity="0"/>
		</clipPath>
	</defs>
	<rect id="Property 1=Default" width="64.000000" height="64.000000" fill="#FFFFFF" fill-opacity="0"/>
	<g clip-path="url(#clip668_44780)">
		<path id="Vector" d="M52.93 25.89C52.65 24.82 51.56 24.18 50.49 24.46C43.17 26.37 37.56 27.25 32 27.22C26.44 27.2 20.83 26.28 13.48 24.45C12.41 24.19 11.32 24.84 11.06 25.91C10.79 26.99 11.44 28.07 12.52 28.34C16.84 29.41 20.65 30.2 24.26 30.68L26 30.91L26 41.87L24.01 57.75C23.88 58.82 24.62 59.8 25.69 59.97C26.76 60.14 27.76 59.43 27.96 58.36L30.96 42.36C30.98 42.24 31 42.12 31 42L35 42C35 42.12 35.01 42.24 35.03 42.36L38.03 58.36C38.23 59.43 39.24 60.14 40.3 59.97C41.37 59.8 42.11 58.82 41.98 57.75L40 41.87L40 30.71L41.68 30.44C44.72 29.96 47.94 29.26 51.5 28.33C52.57 28.05 53.21 26.96 52.93 25.89ZM49.48 20.59C52.69 19.75 55.97 21.68 56.8 24.88C57.64 28.09 55.72 31.37 52.51 32.2C49.49 32.99 46.69 33.62 44 34.11L44 41.62L45.95 57.25C46.35 60.47 44.13 63.42 40.92 63.92C37.72 64.42 34.7 62.29 34.1 59.1L33.1 48.7C33.09 48.6 32.96 48.6 32.94 48.69L32.38 52.95L31.89 59.1C31.3 62.29 28.27 64.42 25.07 63.92C21.87 63.42 19.64 60.47 20.04 57.25L22 41.62L22 34.39C18.72 33.88 15.29 33.15 11.55 32.22C8.34 31.42 6.38 28.17 7.17 24.95C7.97 21.73 11.22 19.77 14.44 20.57C21.64 22.36 26.91 23.2 32.02 23.22C37.11 23.24 42.35 22.45 49.48 20.59Z" fill="#EF3340" fill-opacity="1.000000" fill-rule="evenodd"/>
		<path id="Vector" d="M44 34.11C46.69 33.62 49.49 32.99 52.51 32.2C55.72 31.37 57.64 28.09 56.8 24.88C55.97 21.68 52.69 19.75 49.48 20.59C42.35 22.45 37.11 23.24 32.02 23.22C26.91 23.2 21.64 22.36 14.44 20.57C11.22 19.77 7.97 21.73 7.17 24.95C6.38 28.17 8.34 31.42 11.55 32.22C15.29 33.15 18.72 33.88 22 34.39L22 41.62L20.04 57.25C19.64 60.47 21.87 63.42 25.07 63.92C28.27 64.42 31.3 62.29 31.89 59.1L32.38 52.95L32.57 51.53L32.85 49.41L32.94 48.69C32.96 48.6 33.09 48.6 33.1 48.7L33.17 49.42L33.38 51.55L34.1 59.1C34.7 62.29 37.72 64.42 40.92 63.92C44.13 63.42 46.35 60.47 45.95 57.25L44 41.62L44 34.11ZM34.89 58.99Q35.09 60 35.61 60.81Q36.13 61.63 36.99 62.24Q37.86 62.85 38.81 63.07Q39.76 63.29 40.8 63.13Q41.84 62.97 42.68 62.47Q43.51 61.97 44.15 61.12Q44.78 60.28 45.04 59.34Q45.29 58.4 45.16 57.35L43.2 41.67L43.2 33.44L43.85 33.32Q47.67 32.63 52.31 31.43Q53.35 31.16 54.14 30.56Q54.94 29.96 55.48 29.03Q56.03 28.1 56.16 27.11Q56.3 26.13 56.03 25.08Q55.76 24.04 55.16 23.25Q54.56 22.46 53.63 21.91Q52.7 21.37 51.71 21.23Q50.73 21.09 49.69 21.36Q39.35 24.05 32.02 24.02Q24.93 24 14.25 21.35Q13.2 21.09 12.22 21.24Q11.23 21.39 10.31 21.94Q9.39 22.5 8.8 23.3Q8.21 24.1 7.95 25.14Q7.69 26.19 7.84 27.17Q7.99 28.16 8.54 29.08Q9.1 30 9.9 30.59Q10.7 31.18 11.75 31.44Q17.63 32.9 22.12 33.6L22.8 33.71L22.8 41.67L20.84 57.35Q20.71 58.4 20.96 59.34Q21.21 60.28 21.84 61.12Q22.48 61.97 23.32 62.47Q24.15 62.97 25.19 63.13Q26.24 63.29 27.19 63.07Q28.14 62.85 29 62.24Q29.86 61.63 30.39 60.81Q30.9 60 31.1 58.99L31.59 52.86L32.15 48.59Q32.2 48.2 32.42 48.01Q32.64 47.82 33.04 47.82Q33.47 47.83 33.69 48.05Q33.89 48.26 33.9 48.65L34.89 58.99ZM32.32 48.89L32.3 48.74Q32.31 48.82 32.32 48.89ZM52.5 23.83Q51.65 23.33 50.29 23.68L50.29 23.68Q39.66 26.45 32.01 26.42Q24.63 26.39 13.67 23.68Q13.11 23.54 12.58 23.62Q12.05 23.7 11.55 24Q11.05 24.3 10.74 24.73Q10.42 25.16 10.28 25.72Q10.14 26.28 10.22 26.81Q10.3 27.34 10.6 27.84Q10.9 28.34 11.33 28.66Q11.76 28.97 12.32 29.11Q19.14 30.8 24.15 31.47L25.2 31.61L25.2 41.82L23.22 57.65Q23.05 58.99 23.64 59.77Q24.22 60.55 25.56 60.76Q26.91 60.97 27.7 60.41Q28.5 59.85 28.75 58.51L31.69 42.8L34.3 42.8L37.24 58.51Q37.49 59.85 38.29 60.41Q39.09 60.97 40.43 60.76Q41.77 60.55 42.36 59.77Q42.94 58.99 42.77 57.65L40.8 41.82L40.8 31.39L41.81 31.23Q46.19 30.54 51.7 29.1Q53.06 28.75 53.56 27.9Q54.06 27.04 53.71 25.69Q53.35 24.33 52.5 23.83ZM40 30.71L41.68 30.44C44.72 29.96 47.94 29.26 51.5 28.33C52.57 28.05 53.21 26.96 52.93 25.89C52.65 24.82 51.56 24.18 50.49 24.46C43.17 26.37 37.56 27.25 32 27.22C26.44 27.2 20.83 26.28 13.48 24.45C12.41 24.19 11.32 24.84 11.06 25.91C10.79 26.99 11.44 28.07 12.52 28.34C16.84 29.41 20.65 30.2 24.26 30.68L26 30.91L26 41.87L24.01 57.75C23.88 58.82 24.62 59.8 25.69 59.97C26.76 60.14 27.76 59.43 27.96 58.36L30.96 42.36C30.98 42.24 31 42.12 31 42L35 42C35 42.12 35.01 42.24 35.03 42.36L38.03 58.36C38.23 59.43 39.24 60.14 40.3 59.97C41.37 59.8 42.11 58.82 41.98 57.75L40 41.87L40 30.71Z" fill="#FFFFFF" fill-opacity="1.000000" fill-rule="evenodd"/>
		<path id="Vector" d="M32 4C28.68 4 26 6.68 26 10C26 13.31 28.68 16 32 16C35.31 16 38 13.31 38 10C38 6.68 35.31 4 32 4ZM22 10C22 4.47 26.47 0 32 0C37.52 0 42 4.47 42 10C42 15.52 37.52 20 32 20C26.47 20 22 15.52 22 10Z" fill="#B00C2F" fill-opacity="1.000000" fill-rule="evenodd"/>
		<path id="Vector" d="M22 10C22 4.47 26.47 0 32 0C37.52 0 42 4.47 42 10C42 15.52 37.52 20 32 20C26.47 20 22 15.52 22 10ZM30 1.26Q30.97 1.04 32 1.04Q33.02 1.04 33.99 1.26Q34.75 1.43 35.48 1.74Q36.23 2.06 36.9 2.49Q37.67 3 38.33 3.66Q38.99 4.32 39.5 5.09Q39.93 5.76 40.25 6.51Q40.56 7.24 40.73 8Q40.96 8.97 40.96 10Q40.96 11.02 40.73 11.99Q40.56 12.75 40.25 13.48Q39.93 14.23 39.5 14.9Q38.99 15.67 38.33 16.33Q37.67 16.99 36.9 17.5Q36.23 17.93 35.48 18.25Q34.75 18.56 33.99 18.73Q33.02 18.95 32 18.95Q30.97 18.95 30 18.73Q29.24 18.56 28.51 18.25Q27.76 17.93 27.09 17.5Q26.32 16.99 25.66 16.33Q25 15.67 24.49 14.9Q24.06 14.23 23.74 13.48Q23.43 12.75 23.26 11.99Q23.04 11.02 23.04 10Q23.04 8.97 23.26 8Q23.43 7.24 23.74 6.51Q24.06 5.76 24.49 5.09Q25 4.32 25.66 3.66Q26.32 3 27.09 2.49Q27.76 2.06 28.51 1.74Q29.24 1.43 30 1.26ZM25.12 8.47Q24.96 9.21 24.96 10Q24.96 10.78 25.12 11.52Q25.26 12.14 25.51 12.74Q25.76 13.33 26.11 13.87Q26.5 14.46 27.02 14.97Q27.53 15.49 28.12 15.88Q28.66 16.23 29.25 16.48Q29.85 16.73 30.47 16.87Q31.21 17.04 32 17.04Q32.78 17.04 33.52 16.87Q34.14 16.73 34.74 16.48Q35.33 16.23 35.87 15.88Q36.46 15.49 36.97 14.97Q37.49 14.46 37.88 13.87Q38.23 13.33 38.48 12.74Q38.73 12.14 38.87 11.52Q39.04 10.78 39.04 10Q39.04 9.21 38.87 8.47Q38.73 7.85 38.48 7.25Q38.23 6.66 37.88 6.12Q37.49 5.53 36.97 5.02Q36.46 4.5 35.87 4.11Q35.33 3.76 34.74 3.51Q34.14 3.26 33.52 3.12Q32.78 2.95 32 2.95Q31.21 2.95 30.47 3.12Q29.85 3.26 29.25 3.51Q28.66 3.76 28.12 4.11Q27.53 4.5 27.02 5.02Q26.5 5.53 26.11 6.12Q25.76 6.66 25.51 7.25Q25.26 7.85 25.12 8.47ZM32 4C28.68 4 26 6.68 26 10C26 13.31 28.68 16 32 16C35.31 16 38 13.31 38 10C38 6.68 35.31 4 32 4Z" fill="#FFFFFF" fill-opacity="1.000000" fill-rule="evenodd"/>
	</g>
</svg>
