<svg width="24" height="24" viewBox="0 0 24 24" fill="none" xmlns="http://www.w3.org/2000/svg">
<path d="M17.9083 2.00977H8.84828C7.89438 2.01261 6.98036 2.39281 6.30584 3.06733C5.63133 3.74184 5.25113 4.65586 5.24828 5.60977V10.3498L3.80828 11.1298C3.02828 11.5498 2.48828 12.3298 2.48828 13.2298V19.5898C2.49018 20.2257 2.74365 20.835 3.19332 21.2847C3.643 21.7344 4.25235 21.9879 4.88828 21.9898L14.7283 21.9298H17.9083C18.8622 21.9269 19.7762 21.5467 20.4507 20.8722C21.1252 20.1977 21.5054 19.2837 21.5083 18.3298V5.60977C21.5054 4.65586 21.1252 3.74184 20.4507 3.06733C19.7762 2.39281 18.8622 2.01261 17.9083 2.00977ZM13.5283 19.5898H10.0483V15.9298C10.0483 15.6115 9.92185 15.3063 9.69681 15.0812C9.47177 14.8562 9.16654 14.7298 8.84828 14.7298C8.53002 14.7298 8.2248 14.8562 7.99975 15.0812C7.77471 15.3063 7.64828 15.6115 7.64828 15.9298V19.5898H4.88828V13.2298L8.66828 11.2498C8.83447 11.1611 9.01993 11.1147 9.20828 11.1147C9.39664 11.1147 9.5821 11.1611 9.74828 11.2498L13.5283 13.1698V19.5898ZM19.1083 18.3898C19.1083 18.708 18.9819 19.0133 18.7568 19.2383C18.5318 19.4633 18.2265 19.5898 17.9083 19.5898H15.9283V13.2298C15.9325 12.7823 15.811 12.3426 15.5777 11.9607C15.3443 11.5788 15.0084 11.2701 14.6083 11.0698L10.8283 9.14977C9.80828 8.66977 8.66828 8.60977 7.64828 9.14977V5.60977C7.64828 5.29151 7.77471 4.98628 7.99975 4.76124C8.2248 4.53619 8.53002 4.40977 8.84828 4.40977H17.9083C18.2265 4.40977 18.5318 4.53619 18.7568 4.76124C18.9819 4.98628 19.1083 5.29151 19.1083 5.60977V18.3898ZM15.4483 5.90977H11.2483C10.93 5.90977 10.6248 6.03619 10.3998 6.26124C10.1747 6.48628 10.0483 6.79151 10.0483 7.10977C10.0483 7.42803 10.1747 7.73325 10.3998 7.95829C10.6248 8.18334 10.93 8.30977 11.2483 8.30977H15.4483C15.7665 8.30977 16.0718 8.18334 16.2968 7.95829C16.5219 7.73325 16.6483 7.42803 16.6483 7.10977C16.6483 6.79151 16.5219 6.48628 16.2968 6.26124C16.0718 6.03619 15.7665 5.90977 15.4483 5.90977Z" fill="#B00C2F" stroke="white"/>
<path d="M15.4469 5.91016H11.2469C10.9286 5.91016 10.6234 6.03658 10.3983 6.26163C10.1733 6.48667 10.0469 6.7919 10.0469 7.11016C10.0469 7.42842 10.1733 7.73364 10.3983 7.95868C10.6234 8.18373 10.9286 8.31016 11.2469 8.31016H15.4469C15.7651 8.31016 16.0704 8.18373 16.2954 7.95868C16.5204 7.73364 16.6469 7.42842 16.6469 7.11016C16.6469 6.7919 16.5204 6.48667 16.2954 6.26163C16.0704 6.03658 15.7651 5.91016 15.4469 5.91016Z" fill="#EF3340" stroke="white"/>
</svg>
