<svg width="21" height="24" viewBox="0 0 21 24" fill="none" xmlns="http://www.w3.org/2000/svg">
<path d="M18.7899 10.2147C18.7899 16.4626 10.5004 21.818 10.5004 21.818C10.5004 21.818 2.21094 16.4626 2.21094 10.2147C2.21094 8.0842 3.08429 6.04096 4.63887 4.53447C6.19345 3.02798 8.30191 2.18164 10.5004 2.18164C12.6989 2.18164 14.8074 3.02798 16.362 4.53447C17.9165 6.04096 18.7899 8.0842 18.7899 10.2147Z" stroke="#B00C2F" stroke-width="1.3" stroke-linecap="round" stroke-linejoin="round"/>
<path d="M10.5014 13.0908C12.0275 13.0908 13.2646 11.8697 13.2646 10.3635C13.2646 8.85727 12.0275 7.63623 10.5014 7.63623C8.97539 7.63623 7.73828 8.85727 7.73828 10.3635C7.73828 11.8697 8.97539 13.0908 10.5014 13.0908Z" stroke="#EF3340" stroke-width="1.3" stroke-linecap="round" stroke-linejoin="round"/>
</svg>
