<svg width="24" height="24" viewBox="0 0 24 24" fill="none" xmlns="http://www.w3.org/2000/svg">
<path fill-rule="evenodd" clip-rule="evenodd" d="M8.96282 5.32315C8.96282 7.84454 11.1558 9.89631 13.8499 9.89631C16.5439 9.89631 18.7369 7.84454 18.7369 5.32315C18.7369 2.80177 16.5439 0.75 13.8499 0.75C11.1558 0.75 8.96282 2.80177 8.96282 5.32315ZM17.8175 5.32315C17.8175 7.37095 16.0372 9.03644 13.8499 9.03644C11.6625 9.03644 9.88228 7.37029 9.88228 5.32315C9.88228 3.27602 11.6625 1.60986 13.8499 1.60986C16.0372 1.60986 17.8175 3.27602 17.8175 5.32315ZM2.33438 21.0984H4.174V22.8201C4.174 23.0575 4.37966 23.25 4.63338 23.25H5.97475H6.41434H20.3761C21.3795 23.25 22.1892 22.4296 22.1759 21.4263L22.125 17.5656C22.125 14.4787 20.0783 11.835 17.1906 10.7476C17.1724 10.7394 17.1537 10.7338 17.1344 10.728L17.127 10.7257C16.2407 10.4003 15.2796 10.2151 14.2718 10.2151H13.828C12.8308 10.2151 11.8661 10.3964 10.9714 10.7257L10.9581 10.7298C10.9416 10.7348 10.9255 10.7396 10.9099 10.7469C8.96706 11.4798 7.37762 12.929 6.56346 14.8055H4.63338C4.37966 14.8055 4.174 14.9979 4.174 15.2354V16.9571H2.33438C2.08066 16.9571 1.875 17.1496 1.875 17.387V20.6684C1.875 20.9059 2.08066 21.0984 2.33438 21.0984ZM14.2725 11.075C15.064 11.075 15.8217 11.2059 16.5305 11.4355L17.4507 11.8032C19.679 12.884 21.207 15.0588 21.207 17.5656L21.1896 21.7926C21.1883 22.123 20.92 22.3901 20.5896 22.3901H8.59885L8.59885 21.0984H10.4385C10.6922 21.0984 10.8979 20.9059 10.8979 20.6684V17.387C10.8979 17.1496 10.6922 16.9571 10.4385 16.9571H8.59885V15.2354C8.59885 14.9979 8.39319 14.8055 8.13948 14.8055H7.55995C8.21651 13.4991 9.32042 12.4666 10.6512 11.8184L11.57 11.4467C12.2859 11.2132 13.0435 11.075 13.828 11.075H14.2725ZM2.79446 17.817H4.63408C4.8878 17.817 5.09346 17.6245 5.09346 17.387V15.6653H6.87442H7.68081V17.387C7.68081 17.6245 7.88646 17.817 8.14018 17.817H9.97981V20.2385H8.14018C7.88646 20.2385 7.68081 20.431 7.68081 20.6684V22.3901H6.43554H5.09416V20.6684C5.09416 20.431 4.88851 20.2385 4.63479 20.2385H2.79517L2.79446 17.817Z" fill="#B00C2F"/>
<path d="M5.97475 23.25H4.63338C4.37966 23.25 4.174 23.0575 4.174 22.8201V21.0984H2.33438C2.08066 21.0984 1.875 20.9059 1.875 20.6684V17.387C1.875 17.1496 2.08066 16.9571 2.33438 16.9571H4.174V15.2354C4.174 14.9979 4.37966 14.8055 4.63338 14.8055H6.56346C7.37762 12.929 8.96706 11.4798 10.9099 10.7469C10.9255 10.7396 10.9416 10.7348 10.9581 10.7298M5.97475 23.25C5.97475 23.25 6.16062 23.25 6.41434 23.25M5.97475 23.25H6.41434M6.41434 23.25H20.3761C21.3795 23.25 22.1892 22.4296 22.1759 21.4263L22.125 17.5656C22.125 14.4787 20.0783 11.835 17.1906 10.7476C17.1724 10.7394 17.1537 10.7338 17.1344 10.728M17.127 10.7257C16.2407 10.4003 15.2796 10.2151 14.2718 10.2151H13.828C12.8308 10.2151 11.8661 10.3964 10.9714 10.7257M17.127 10.7257C17.1295 10.7265 17.132 10.7272 17.1344 10.728M17.127 10.7257L17.1344 10.728M10.9714 10.7257C10.9669 10.7271 10.9625 10.7285 10.9581 10.7298M10.9714 10.7257L10.9581 10.7298M6.89421 23.25H8.13948M8.96282 5.32315C8.96282 7.84454 11.1558 9.89631 13.8499 9.89631C16.5439 9.89631 18.7369 7.84454 18.7369 5.32315C18.7369 2.80177 16.5439 0.75 13.8499 0.75C11.1558 0.75 8.96282 2.80177 8.96282 5.32315ZM17.8175 5.32315C17.8175 7.37095 16.0372 9.03644 13.8499 9.03644C11.6625 9.03644 9.88228 7.37029 9.88228 5.32315C9.88228 3.27602 11.6625 1.60986 13.8499 1.60986C16.0372 1.60986 17.8175 3.27602 17.8175 5.32315ZM14.2725 11.075C15.064 11.075 15.8217 11.2059 16.5305 11.4355L17.4507 11.8032C19.679 12.884 21.207 15.0588 21.207 17.5656L21.1896 21.7926C21.1883 22.123 20.92 22.3901 20.5896 22.3901H8.59885L8.59885 21.0984H10.4385C10.6922 21.0984 10.8979 20.9059 10.8979 20.6684V17.387C10.8979 17.1496 10.6922 16.9571 10.4385 16.9571H8.59885V15.2354C8.59885 14.9979 8.39319 14.8055 8.13948 14.8055H7.55995C8.21651 13.4991 9.32042 12.4666 10.6512 11.8184L11.57 11.4467C12.2859 11.2132 13.0435 11.075 13.828 11.075H14.2725ZM2.79446 17.817H4.63408C4.8878 17.817 5.09346 17.6245 5.09346 17.387V15.6653H6.87442H7.68081V17.387C7.68081 17.6245 7.88646 17.817 8.14018 17.817H9.97981V20.2385H8.14018C7.88646 20.2385 7.68081 20.431 7.68081 20.6684V22.3901H6.43554H5.09416V20.6684C5.09416 20.431 4.88851 20.2385 4.63479 20.2385H2.79517L2.79446 17.817Z" stroke="#B00C2F" stroke-width="0.3"/>
<path fill-rule="evenodd" clip-rule="evenodd" d="M2.33438 21.0985H4.174V22.8203C4.174 23.0577 4.37966 23.2502 4.63338 23.2502H5.97475H6.41434H7.9557C7.9557 23.2502 8.35681 23.1852 8.5 23.0002C8.64771 22.8094 8.59885 22.3903 8.59885 22.3903L8.59885 21.0985H10.4385C10.6922 21.0985 10.8979 20.9061 10.8979 20.6686V17.3872C10.8979 17.1498 10.6922 16.9573 10.4385 16.9573H8.59885V15.2356C8.59885 14.9981 8.39319 14.8057 8.13948 14.8057H7.55995H6.56346H4.63338C4.37966 14.8057 4.174 14.9981 4.174 15.2356V16.9573H2.33438C2.08066 16.9573 1.875 17.1498 1.875 17.3872V20.6686C1.875 20.9061 2.08066 21.0985 2.33438 21.0985ZM4.63408 17.8172H2.79446L2.79517 20.2387H4.63479C4.88851 20.2387 5.09416 20.4312 5.09416 20.6686V22.3903H6.43554H7.68081V20.6686C7.68081 20.4312 7.88646 20.2387 8.14018 20.2387H9.97981V17.8172H8.14018C7.88646 17.8172 7.68081 17.6247 7.68081 17.3872V15.6655H6.87442H5.09346V17.3872C5.09346 17.6247 4.8878 17.8172 4.63408 17.8172Z" fill="#EF3340"/>
<path d="M5.97475 23.2502H4.63338C4.37966 23.2502 4.174 23.0577 4.174 22.8203V21.0985H2.33438C2.08066 21.0985 1.875 20.9061 1.875 20.6686V17.3872C1.875 17.1498 2.08066 16.9573 2.33438 16.9573H4.174V15.2356C4.174 14.9981 4.37966 14.8057 4.63338 14.8057H6.56346H7.55995H8.13948C8.39319 14.8057 8.59885 14.9981 8.59885 15.2356V16.9573H10.4385C10.6922 16.9573 10.8979 17.1498 10.8979 17.3872V20.6686C10.8979 20.9061 10.6922 21.0985 10.4385 21.0985H8.59885L8.59885 22.3903M5.97475 23.2502C5.97475 23.2502 6.16062 23.2502 6.41434 23.2502M5.97475 23.2502H6.41434M6.41434 23.2502L8.59885 22.3903M6.41434 23.2502H7.9557C7.9557 23.2502 8.35681 23.1852 8.5 23.0002C8.64771 22.8094 8.59885 22.3903 8.59885 22.3903M2.79446 17.8172H4.63408C4.8878 17.8172 5.09346 17.6247 5.09346 17.3872V15.6655H6.87442H7.68081V17.3872C7.68081 17.6247 7.88646 17.8172 8.14018 17.8172H9.97981V20.2387H8.14018C7.88646 20.2387 7.68081 20.4312 7.68081 20.6686V22.3903H6.43554H5.09416V20.6686C5.09416 20.4312 4.88851 20.2387 4.63479 20.2387H2.79517L2.79446 17.8172Z" stroke="#EF3340" stroke-width="0.3"/>
</svg>
