<svg width="124" height="40" viewBox="0 0 124 40" fill="none" xmlns="http://www.w3.org/2000/svg">
<g clip-path="url(#clip0_88_39805)">
<path d="M50.0357 11.8848L48.4313 16.1769C47.9254 17.5072 47.2277 17.7712 46.5473 17.7712C46.3387 17.7726 46.1312 17.7422 45.9318 17.6808C45.8882 17.5474 45.8658 17.4079 45.8655 17.2676C45.8669 17.1288 45.8809 16.9905 45.9073 16.8543C46.056 16.8739 46.2057 16.8849 46.3556 16.8873C46.7463 16.8873 47.0374 16.7438 47.3358 16.1181H47.0864L45.1016 11.8862C45.2942 11.8379 45.4925 11.8157 45.6911 11.8202C45.8856 11.8115 46.0803 11.8338 46.2677 11.8862L47.4382 14.3831C47.5507 14.6385 47.647 14.9007 47.7265 15.1681H47.7524C47.8101 14.9787 47.8966 14.6644 48.0176 14.3588L48.9647 11.8862C49.1373 11.8385 49.316 11.8163 49.4951 11.8202C49.6773 11.8188 49.859 11.8405 50.0357 11.8848Z" fill="black"/>
<path d="M55.3894 11.8849V17.7039C55.2164 17.7525 55.0371 17.7748 54.8575 17.77C54.6725 17.7777 54.4875 17.7555 54.3097 17.7039V15.1725H52.1187V17.7097C51.9425 17.7566 51.7606 17.7789 51.5782 17.7757C51.3961 17.7831 51.2139 17.7608 51.0391 17.7097V11.8849C51.2117 11.8372 51.3904 11.815 51.5695 11.8189C51.7548 11.8153 51.9396 11.8375 52.1187 11.8849V14.2742H54.3097V11.8849C54.4854 11.8378 54.6669 11.8156 54.8488 11.8189C55.0313 11.8146 55.2134 11.8368 55.3894 11.8849Z" fill="black"/>
<path d="M56.9336 17.7031V11.8841C57.1065 11.8355 57.2859 11.8132 57.4655 11.8181C57.6531 11.815 57.8403 11.8372 58.0219 11.8841V14.3308C58.0255 15.0457 57.9924 15.7603 57.9224 16.4719H57.9556C58.1652 15.8572 58.4176 15.2578 58.7109 14.6781L60.1264 11.8841C60.3297 11.8324 60.5395 11.8102 60.7491 11.8181C60.9612 11.8099 61.1733 11.8321 61.3791 11.8841V17.7031C61.2066 17.7518 61.0278 17.7741 60.8486 17.7691C60.6636 17.7769 60.4786 17.7546 60.3008 17.7031V15.2564C60.2918 14.5638 60.325 13.8713 60.4003 13.1828H60.3671C60.1659 13.7685 59.9251 14.34 59.6464 14.8933L58.205 17.7031C57.9928 17.7519 57.7754 17.7741 57.5577 17.7691C57.3475 17.7791 57.137 17.7568 56.9336 17.7031Z" fill="black"/>
<path d="M67.1215 16.0761C67.1215 17.1423 66.4584 17.7694 65.2951 17.7694H62.9297V11.8184H65.262C66.3575 11.8184 66.947 12.4799 66.947 13.4557C66.947 14.0914 66.64 14.4976 66.2753 14.7042C66.5392 14.8208 66.7613 15.0144 66.9124 15.2593C67.0635 15.5043 67.1364 15.789 67.1215 16.0761ZM65.0385 12.6119H64.0079V14.3569H65.0385C65.6151 14.3569 65.8602 14.0096 65.8602 13.4887C65.8602 12.9678 65.605 12.6119 65.0385 12.6119ZM66.0173 16.056C66.0173 15.4275 65.7103 15.1476 65.0875 15.1476H64.0079V16.9658H65.0875C65.7348 16.9687 66.0173 16.6544 66.0173 16.0589V16.056Z" fill="black"/>
<path d="M72.077 17.3403C72.0791 17.4872 72.0537 17.6332 72.0021 17.7709H68.3984V11.8184H71.9185C71.9673 11.9453 71.9927 12.0799 71.9934 12.2159C71.9966 12.368 71.9711 12.5193 71.9185 12.6622H69.4867V14.3483H71.5048C71.5532 14.4778 71.5781 14.6148 71.5783 14.753C71.5813 14.897 71.5563 15.0403 71.5048 15.1749H69.4867V16.9271H72.0021C72.0542 17.0586 72.0797 17.199 72.077 17.3403Z" fill="black"/>
<path d="M77.3732 13.6787C77.3732 14.8037 76.6524 15.5227 75.4993 15.5227H74.3461V17.7039C74.1703 17.7529 73.9881 17.7752 73.8056 17.7699C73.6206 17.7777 73.4356 17.7554 73.2578 17.7039V11.8203H75.4921C76.6582 11.8189 77.3732 12.5378 77.3732 13.6787ZM76.2517 13.6787C76.2517 13.0343 75.9274 12.6742 75.3551 12.6742H74.3591V14.6703H75.3551C75.9274 14.6703 76.2517 14.3115 76.2517 13.6787Z" fill="black"/>
<path d="M78.3125 14.7952C78.3125 12.7861 79.1846 11.7285 80.8293 11.7285C81.7922 11.7285 82.3154 12.0342 82.3154 12.0342C82.3195 12.1747 82.2935 12.3144 82.239 12.444C82.1846 12.5737 82.103 12.6903 81.9998 12.7861C81.669 12.668 81.3205 12.6068 80.9691 12.6053C80.0567 12.6053 79.4585 13.0918 79.4585 14.8038C79.4585 16.5158 80.0567 16.9692 80.9691 16.9692C81.3459 16.9686 81.7197 16.9041 82.0747 16.7784C82.1783 16.8797 82.2603 17.0009 82.3158 17.1345C82.3713 17.2682 82.3991 17.4116 82.3976 17.5562C82.3976 17.5562 81.8585 17.8618 80.8293 17.8618C79.1846 17.8618 78.3125 16.8114 78.3125 14.7952Z" fill="black"/>
<path d="M83.5078 17.7031V11.8841C83.6802 11.8354 83.8591 11.8131 84.0383 11.8181C84.2259 11.8148 84.4131 11.837 84.5947 11.8841V14.3308C84.5983 15.0457 84.5651 15.7603 84.4952 16.4719H84.5284C84.7393 15.8577 84.9916 15.2584 85.2837 14.6781L86.7035 11.8841C86.9069 11.8326 87.1166 11.8104 87.3262 11.8181C87.5388 11.8099 87.7514 11.8321 87.9576 11.8841V17.7031C87.7847 17.7519 87.6053 17.7742 87.4257 17.7691C87.2407 17.7769 87.0557 17.7546 86.8779 17.7031V15.2564C86.8689 14.5638 86.9021 13.8713 86.9774 13.1828H86.9443C86.746 13.7685 86.5076 14.3401 86.2307 14.8933L84.7893 17.7031C84.5767 17.752 84.3588 17.7742 84.1406 17.7691C83.9275 17.7801 83.714 17.7578 83.5078 17.7031Z" fill="black"/>
<path d="M93.2298 12.7321H91.7279V17.7073C91.552 17.7534 91.3706 17.7756 91.1887 17.7733C91.0062 17.7808 90.8236 17.7585 90.6482 17.7073V12.7321H89.0986C89.0461 12.5892 89.0207 12.4379 89.0237 12.2858C89.0221 12.1282 89.0475 11.9714 89.0986 11.8223H93.2241C93.2741 11.9658 93.2995 12.1167 93.299 12.2686C93.3024 12.4258 93.279 12.5826 93.2298 12.7321Z" fill="black"/>
<path d="M98.0536 17.3403C98.0557 17.4872 98.0303 17.6332 97.9786 17.7709H94.375V11.8184H97.8907C97.9396 11.9453 97.965 12.0799 97.9657 12.2159C97.9688 12.368 97.9434 12.5193 97.8907 12.6622H95.4633V14.3483H97.4813C97.531 14.4775 97.5564 14.6147 97.5563 14.753C97.5596 14.8972 97.5341 15.0406 97.4813 15.1749H95.4633V16.9271H97.9786C98.0308 17.0586 98.0562 17.199 98.0536 17.3403Z" fill="black"/>
<path d="M102.978 12.7321H101.476V17.7073C101.3 17.7535 101.118 17.7757 100.935 17.7733C100.753 17.7808 100.571 17.7585 100.396 17.7073V12.7321H98.8525C98.8 12.5892 98.7746 12.4379 98.7776 12.2858C98.7761 12.1282 98.8014 11.9714 98.8525 11.8223H102.978C103.028 11.9658 103.053 12.1167 103.053 12.2686C103.054 12.4262 103.029 12.5829 102.978 12.7321Z" fill="black"/>
<path d="M103.668 14.7952C103.668 12.7861 104.54 11.7285 106.185 11.7285C107.148 11.7285 107.671 12.0342 107.671 12.0342C107.675 12.1747 107.649 12.3144 107.594 12.444C107.54 12.5737 107.458 12.6903 107.355 12.7861C107.025 12.6681 106.677 12.6069 106.326 12.6053C105.412 12.6053 104.814 13.0918 104.814 14.8038C104.814 16.5158 105.412 16.9692 106.326 16.9692C106.702 16.9689 107.076 16.9043 107.43 16.7784C107.534 16.8797 107.616 17.0009 107.671 17.1345C107.727 17.2682 107.755 17.4116 107.753 17.5562C107.753 17.5562 107.214 17.8618 106.185 17.8618C104.54 17.8618 103.668 16.8114 103.668 14.7952Z" fill="black"/>
<path d="M113.372 17.7044C113.162 17.7522 112.947 17.7744 112.732 17.7704C112.528 17.7748 112.325 17.7526 112.127 17.7044L110.44 15.0926H109.943V17.7044C109.768 17.7567 109.585 17.779 109.402 17.7704C109.22 17.7757 109.039 17.7535 108.863 17.7044V11.8853C109.041 11.8358 109.226 11.8135 109.411 11.8193C109.591 11.8134 109.77 11.8356 109.943 11.8853V14.266H110.44L111.993 11.8853C112.172 11.8413 112.357 11.8192 112.542 11.8193C112.736 11.8192 112.929 11.8413 113.118 11.8853L111.374 14.5803L113.372 17.7044Z" fill="black"/>
<path d="M119.082 17.7046C118.894 17.7554 118.7 17.7776 118.505 17.7706C118.328 17.7781 118.151 17.7558 117.982 17.7046L117.526 16.3743H115.24L114.776 17.7046C114.603 17.7542 114.424 17.7765 114.244 17.7706C114.073 17.7757 113.902 17.7535 113.738 17.7046L115.739 11.8855C115.96 11.8362 116.186 11.8141 116.412 11.8195C116.635 11.8129 116.858 11.8351 117.075 11.8855L119.082 17.7046ZM115.504 15.552H117.248L116.608 13.708C116.519 13.4347 116.447 13.1562 116.392 12.8742H116.367C116.319 13.1569 116.25 13.4355 116.16 13.708L115.504 15.552Z" fill="black"/>
<path d="M123.999 11.8188V17.7024C123.824 17.7535 123.642 17.7758 123.459 17.7684C123.274 17.773 123.089 17.7507 122.91 17.7024V15.4594H122.089L120.876 17.6995C120.675 17.7481 120.469 17.7703 120.262 17.7655C120.061 17.7714 119.859 17.7492 119.664 17.6995L120.976 15.3188C120.337 15.0964 119.872 14.5754 119.872 13.6412C119.872 12.5506 120.545 11.8145 121.746 11.8145L123.999 11.8188ZM122.91 14.6128V12.6712H121.89C121.313 12.6712 120.993 13.017 120.993 13.6455C120.993 14.2741 121.317 14.6128 121.89 14.6128H122.91Z" fill="black"/>
<path d="M50.1651 27.6223C49.9553 27.6701 49.7404 27.6923 49.5251 27.6883C49.3213 27.6926 49.1178 27.6704 48.9197 27.6223L47.2346 25.0105H46.7359V27.6223C46.5613 27.6746 46.379 27.6969 46.1968 27.6883C46.0143 27.6936 45.8321 27.6713 45.6562 27.6223V21.8033C45.8349 21.7539 46.0201 21.7316 46.2054 21.7372C46.3846 21.7314 46.5637 21.7537 46.7359 21.8033V24.184H47.2346L48.7871 21.8033C48.9663 21.7594 49.1503 21.7372 49.3349 21.7372C49.529 21.737 49.7224 21.7592 49.9114 21.8033L48.1601 24.4997L50.1651 27.6223Z" fill="black"/>
<path d="M55.4479 21.7383V27.6219C55.2753 27.6696 55.0965 27.6918 54.9174 27.6879C54.7348 27.6978 54.5518 27.6755 54.3769 27.6219V22.5735H52.9989L52.8662 24.4074C52.65 27.3177 51.8039 27.7467 51.1552 27.7467C50.9831 27.7483 50.812 27.7206 50.6493 27.6649C50.6004 27.544 50.5749 27.415 50.5743 27.2847C50.5723 27.1462 50.5978 27.0087 50.6493 26.88C50.7513 26.8917 50.8543 26.8917 50.9563 26.88C51.2302 26.8384 51.7116 26.5327 51.8774 24.3916L52.085 21.7383H55.4479Z" fill="black"/>
<path d="M56.9922 27.623V21.8039C57.1651 21.7553 57.3445 21.7331 57.5241 21.7379C57.7117 21.7349 57.8989 21.7571 58.0805 21.8039V24.2507C58.0841 24.9656 58.0509 25.6802 57.981 26.3917H58.0142C58.2238 25.7771 58.4762 25.1777 58.7695 24.5979L60.1893 21.8039C60.3927 21.7523 60.6024 21.7301 60.8121 21.7379C61.0246 21.7299 61.2372 21.7521 61.4434 21.8039V27.623C61.2705 27.6716 61.0911 27.6938 60.9115 27.689C60.7265 27.6968 60.5415 27.6745 60.3638 27.623V25.1763C60.3547 24.4832 60.3879 23.7903 60.4632 23.1012H60.4301C60.2297 23.6877 59.9889 24.2597 59.7093 24.8132L58.2679 27.623C58.0558 27.6719 57.8383 27.6941 57.6207 27.689C57.409 27.6994 57.197 27.6771 56.9922 27.623Z" fill="black"/>
<path d="M67.3347 21.8048V27.6239C67.1618 27.6726 66.9824 27.6949 66.8028 27.6899C66.6178 27.6977 66.4328 27.6754 66.255 27.6239V25.0867H64.064V27.6239C63.8878 27.671 63.7059 27.6932 63.5235 27.6899C63.3414 27.6973 63.1593 27.675 62.9844 27.6239V21.8048C63.1575 21.7571 63.3367 21.7348 63.5163 21.7388C63.7011 21.7351 63.8855 21.7573 64.064 21.8048V24.1941H66.255V21.8048C66.4312 21.7577 66.6132 21.7355 66.7956 21.7388C66.9776 21.7345 67.1592 21.7567 67.3347 21.8048Z" fill="black"/>
<path d="M68.8789 27.623V21.8039C69.0518 21.7553 69.2312 21.7331 69.4108 21.7379C69.5984 21.7349 69.7856 21.7571 69.9672 21.8039V24.2507C69.9709 24.9656 69.9377 25.6802 69.8678 26.3917H69.9009C70.1105 25.7771 70.3629 25.1777 70.6562 24.5979L72.0761 21.8039C72.2794 21.7523 72.4891 21.7301 72.6988 21.7379C72.9113 21.7299 73.1239 21.7521 73.3301 21.8039V27.623C73.1572 27.6716 72.9779 27.6938 72.7982 27.689C72.6133 27.6968 72.4282 27.6745 72.2505 27.623V25.1763C72.2414 24.4832 72.2746 23.7903 72.3499 23.1012H72.3168C72.1155 23.6874 71.8747 24.2593 71.5961 24.8132L70.1546 27.623C69.9425 27.6719 69.7251 27.6941 69.5074 27.689C69.2957 27.6994 69.0837 27.6771 68.8789 27.623Z" fill="black"/>
<path d="M79.3824 27.6223C79.1731 27.6701 78.9586 27.6923 78.7439 27.6883C78.5396 27.6926 78.3356 27.6705 78.137 27.6223L76.452 25.0106H75.9547V27.6223C75.7795 27.6745 75.5967 27.6968 75.4141 27.6883C75.2321 27.6937 75.0503 27.6714 74.875 27.6223V21.8033C75.0532 21.7538 75.2379 21.7315 75.4228 21.7373C75.6024 21.7313 75.7819 21.7536 75.9547 21.8033V24.184H76.452L78.0001 21.8033C78.1793 21.7594 78.3632 21.7372 78.5478 21.7373C78.7419 21.7373 78.9354 21.7594 79.1244 21.8033L77.3817 24.4997L79.3824 27.6223Z" fill="black"/>
<path d="M85.0877 27.6225C84.9 27.6734 84.7056 27.6956 84.5111 27.6886C84.3342 27.6961 84.1573 27.6737 83.9879 27.6225L83.5309 26.2923H81.252L80.7879 27.6225C80.6151 27.6722 80.4356 27.6945 80.256 27.6886C80.0848 27.6937 79.914 27.6714 79.75 27.6225L81.7493 21.8035C81.9697 21.7543 82.1952 21.7321 82.421 21.7375C82.6445 21.7308 82.8678 21.753 83.0855 21.8035L85.0877 27.6225ZM81.51 25.47H83.2527L82.6142 23.6303C82.5244 23.3567 82.4522 23.0778 82.398 22.7951H82.3735C82.3249 23.0782 82.2556 23.3573 82.1659 23.6303L81.51 25.47Z" fill="black"/>
<path d="M49.9158 31.6572V37.5408C49.7435 37.5904 49.5645 37.6127 49.3853 37.6068C49.1974 37.6174 49.0091 37.5951 48.8289 37.5408V32.5368H46.7445V37.5379C46.569 37.586 46.3874 37.6082 46.2054 37.6039C46.0199 37.6141 45.834 37.5918 45.6562 37.5379V31.6543L49.9158 31.6572Z" fill="black"/>
<path d="M51.4609 37.5429V31.7239C51.6339 31.6753 51.8132 31.653 51.9928 31.6579C52.1804 31.6548 52.3676 31.677 52.5492 31.7239V34.1706C52.5529 34.8855 52.5197 35.6001 52.4498 36.3117H52.4858C52.6958 35.6971 52.9482 35.0978 53.2411 34.5179L54.661 31.7239C54.8643 31.6722 55.074 31.65 55.2837 31.6579C55.4962 31.6498 55.7088 31.672 55.915 31.7239V37.5429C55.7421 37.5915 55.5628 37.6138 55.3831 37.6089C55.1982 37.6167 55.0132 37.5944 54.8354 37.5429V35.0962C54.8263 34.4031 54.8596 33.7102 54.9348 33.0211H54.9017C54.7011 33.6071 54.4603 34.1786 54.181 34.7317L52.7395 37.5429C52.5274 37.5919 52.31 37.614 52.0923 37.6089C51.8797 37.6196 51.6667 37.5974 51.4609 37.5429Z" fill="black"/>
<path d="M57.4492 37.5412V31.7221C57.6683 31.6804 57.8907 31.6583 58.1137 31.6561C58.3312 31.655 58.5482 31.6771 58.761 31.7221L59.6835 33.6236C59.8937 34.0644 60.071 34.5201 60.2139 34.9868H60.2471C60.3141 34.7021 60.4107 34.4251 60.5354 34.1603C60.9174 33.3581 61.3152 32.5315 61.6972 31.7207C61.9183 31.6731 62.1442 31.651 62.3704 31.6547C62.6119 31.6595 62.8527 31.6816 63.0911 31.7207V37.5398C62.9211 37.5881 62.7446 37.6104 62.5678 37.6058C62.3887 37.6107 62.2098 37.5885 62.0374 37.5398V35.2007C62.0374 34.3239 62.0705 33.2992 62.1195 32.9046H62.0792C61.9869 33.2103 61.6885 33.9708 61.4147 34.5908L60.5714 36.2669C60.4473 36.3023 60.3185 36.3188 60.1894 36.3157C60.0707 36.3201 59.9521 36.3035 59.8392 36.2669C59.5739 35.7216 59.3 35.1834 59.042 34.6381C58.7787 34.078 58.5486 33.503 58.353 32.9161H58.3112C58.3862 33.2548 58.428 34.222 58.428 35.1074V37.5469C58.2723 37.5952 58.1096 37.6175 57.9465 37.6129C57.778 37.6157 57.61 37.5915 57.4492 37.5412Z" fill="black"/>
<path d="M68.9863 31.7222L67.3849 36.0115C66.8775 37.3432 66.1798 37.6072 65.4994 37.6072C65.2913 37.6088 65.0842 37.5783 64.8854 37.5168C64.8418 37.3833 64.8194 37.2439 64.8191 37.1035C64.8202 36.9648 64.8342 36.8264 64.8609 36.6902C65.0091 36.7098 65.1583 36.7208 65.3077 36.7232C65.6984 36.7232 65.9895 36.5797 66.2879 35.9541H66.0342L64.0508 31.7222C64.2434 31.6738 64.4417 31.6516 64.6403 31.6562C64.8348 31.6474 65.0295 31.6697 65.2169 31.7222L66.3874 34.2177C66.5007 34.4732 66.597 34.7359 66.6757 35.0041H66.7002C66.7578 34.8132 66.8443 34.499 66.9654 34.1933L67.9125 31.7222C68.0856 31.6744 68.2648 31.6522 68.4443 31.6562C68.6271 31.655 68.8092 31.6772 68.9863 31.7222Z" fill="black"/>
<path d="M22.5999 7.74605H22.8737V6.93526L23.9159 5.89773V5.72266H23.7026L22.6791 6.74153H21.8633V7.01418H22.5999V7.74605Z" fill="#EE303C"/>
<path d="M16.3213 5.72266H16.1094V5.89773L17.1501 6.93526V7.74605H17.424V7.01418H18.1606V6.74153H17.3447L16.3213 5.72266Z" fill="#B00C2F"/>
<path d="M34.9689 22.8082C34.231 22.0717 33.8166 21.0739 33.8166 20.0336C33.8166 18.9933 34.231 17.9955 34.9689 17.259L38.1689 14.0732C38.758 13.4869 39.2253 12.7908 39.5441 12.0246C39.8628 11.2585 40.0269 10.4374 40.0269 9.60812C40.0269 8.77886 39.8628 7.95772 39.5441 7.19159C39.2253 6.42547 38.758 5.72936 38.1689 5.14303L34.9689 1.95726C32.4968 -0.503812 28.6366 -0.665971 26.3634 1.59563L24.4001 3.54871L22.2163 5.72278H23.9144V7.41181L26.0953 5.23917L28.0586 3.28466C29.3962 1.95439 31.7343 2.11655 33.2709 3.64629L36.4709 6.83206C37.2096 7.56848 37.6245 8.56667 37.6245 9.6074C37.6245 10.6481 37.2096 11.6463 36.4709 12.3827L33.2709 15.5685C32.0837 16.754 31.4171 18.3596 31.4171 20.0336C31.4171 21.7076 32.0837 23.3132 33.2709 24.4987L36.4709 27.6845C37.2096 28.4209 37.6245 29.4191 37.6245 30.4598C37.6245 31.5005 37.2096 32.4987 36.4709 33.2352L33.2709 36.4209C31.7343 37.9507 29.2982 38.0152 27.8409 36.5644L21.7075 30.4584L20.0109 28.7679L14.0231 22.8068C12.4865 21.2771 12.3236 18.9494 13.6598 17.6192L16.0844 15.2055L18.3143 17.4254L20.0109 15.7364L17.781 13.5164L16.0844 11.826L11.9632 15.9287C9.69006 18.1917 9.85294 22.0348 12.3265 24.4973L18.3143 30.4584L20.0109 32.1474L26.1443 38.2535C28.5371 40.6356 32.4954 40.5696 34.9675 38.11L38.1675 34.9242C38.7566 34.3379 39.2238 33.6417 39.5426 32.8756C39.8614 32.1095 40.0255 31.2884 40.0255 30.4591C40.0255 29.6298 39.8614 28.8087 39.5426 28.0426C39.2238 27.2764 38.7566 26.5803 38.1675 25.994L34.9689 22.8082ZM24.5904 5.09424C24.5378 5.14664 24.4708 5.18233 24.3978 5.1968C24.3248 5.21127 24.2491 5.20387 24.1804 5.17553C24.1116 5.14718 24.0529 5.09918 24.0115 5.03758C23.9702 4.97598 23.9481 4.90356 23.9481 4.82947C23.9481 4.75539 23.9702 4.68296 24.0115 4.62137C24.0529 4.55977 24.1116 4.51176 24.1804 4.48342C24.2491 4.45508 24.3248 4.44767 24.3978 4.46214C24.4708 4.47661 24.5378 4.51231 24.5904 4.56471C24.6613 4.63456 24.7014 4.72958 24.702 4.82888C24.7025 4.92817 24.6634 5.02362 24.5933 5.09424H24.5904Z" fill="#B00C2F"/>
<path d="M28.0583 15.9296L25.6353 13.5173L23.9444 11.8269L22.2478 13.5173L18.3213 17.4264L20.0179 19.1154L23.9444 15.2064L26.369 17.6201C27.7066 18.9504 27.5423 21.278 26.0057 22.8077L12.1879 36.5653C10.7306 38.0147 8.29595 37.9501 6.75792 36.4218L3.55788 33.2361C2.81989 32.4993 2.40547 31.5012 2.40547 30.4607C2.40547 29.4202 2.81989 28.4222 3.55788 27.6854L6.75792 24.4996C7.34697 23.9133 7.81423 23.2172 8.13302 22.4511C8.45182 21.6849 8.6159 20.8638 8.6159 20.0345C8.6159 19.2053 8.45182 18.3841 8.13302 17.618C7.81423 16.8519 7.34697 16.1558 6.75792 15.5694L3.55788 12.3837C2.81989 11.6469 2.40547 10.6488 2.40547 9.60832C2.40547 8.56782 2.81989 7.56977 3.55788 6.83298L6.75792 3.64721C8.29451 2.11747 10.6326 1.95531 11.9702 3.28558L13.9335 5.24009L16.1144 7.41272V5.72226H17.811L15.6229 3.54819L13.6596 1.59368C11.3864 -0.667923 7.52621 -0.505766 5.05411 1.95531L1.85408 5.14108C1.26503 5.72741 0.797767 6.42351 0.478972 7.18964C0.160177 7.95577 -0.00390625 8.77691 -0.00390625 9.60617C-0.00390625 10.4354 0.160177 11.2566 0.478972 12.0227C0.797767 12.7888 1.26503 13.4849 1.85408 14.0713L5.05411 17.257C5.79201 17.9936 6.2064 18.9914 6.2064 20.0317C6.2064 21.0719 5.79201 22.0697 5.05411 22.8063L1.85408 25.992C1.26503 26.5784 0.797767 27.2745 0.478972 28.0406C0.160177 28.8067 -0.00390625 29.6279 -0.00390625 30.4571C-0.00390625 31.2864 0.160177 32.1075 0.478972 32.8737C0.797767 33.6398 1.26503 34.3359 1.85408 34.9222L5.05411 38.108C7.52621 40.5691 11.4845 40.6351 13.8773 38.2515L20.0107 32.1455L21.7073 30.4564L27.6922 24.4996C30.1686 22.0357 30.3315 18.1927 28.0583 15.9296ZM15.4297 4.56419C15.4823 4.51179 15.5494 4.4761 15.6224 4.46163C15.6953 4.44716 15.771 4.45456 15.8398 4.4829C15.9085 4.51124 15.9673 4.55925 16.0086 4.62085C16.05 4.68245 16.0721 4.75487 16.0721 4.82896C16.0721 4.90304 16.05 4.97546 16.0086 5.03706C15.9673 5.09866 15.9085 5.14667 15.8398 5.17501C15.771 5.20335 15.6953 5.21076 15.6224 5.19629C15.5494 5.18182 15.4823 5.14612 15.4297 5.09372C15.3592 5.02348 15.3196 4.92825 15.3196 4.82896C15.3196 4.72966 15.3592 4.63443 15.4297 4.56419Z" fill="#EE303C"/>
</g>
<defs>
<clipPath id="clip0_88_39805">
<rect width="124" height="40" fill="white"/>
</clipPath>
</defs>
</svg>
