<svg width="24" height="24" viewBox="0 0 24 24" fill="none" xmlns="http://www.w3.org/2000/svg">
<g clip-path="url(#clip0_43_42858)">
<path d="M5 6C5 7.32608 5.52678 8.59785 6.46447 9.53553C7.40215 10.4732 8.67392 11 10 11C11.3261 11 12.5979 10.4732 13.5355 9.53553C14.4732 8.59785 15 7.32608 15 6C15 4.67392 14.4732 3.40215 13.5355 2.46447C12.5979 1.52678 11.3261 1 10 1C8.67392 1 7.40215 1.52678 6.46447 2.46447C5.52678 3.40215 5 4.67392 5 6Z" stroke="#B00C2F" stroke-width="1.3" stroke-linecap="round" stroke-linejoin="round"/>
<path d="M17.5 21H2V18.3333C2 16.9188 2.52177 15.5623 3.45052 14.5621C4.37927 13.5619 5.63893 13 6.95238 13H15.5" stroke="#B00C2F" stroke-width="1.3" stroke-linecap="round" stroke-linejoin="round"/>
<path d="M17.4997 21L21.2681 17.2467C21.4992 17.0188 21.683 16.7462 21.8087 16.445C21.9344 16.1438 21.9995 15.8201 22 15.4929C22.0005 15.1657 21.9365 14.8418 21.8118 14.5402C21.6871 14.2385 21.5041 13.9654 21.2737 13.7368C20.8037 13.2697 20.1727 13.0076 19.5152 13.0063C18.8577 13.005 18.2258 13.2647 17.7539 13.7299L17.502 13.9813L17.2511 13.7299C16.7811 13.2632 16.1504 13.0013 15.4932 13C14.8359 12.9987 14.2042 13.2581 13.7324 13.723C13.5013 13.9508 13.3174 14.2233 13.1916 14.5245C13.0658 14.8256 13.0006 15.1494 13 15.4765C12.9994 15.8037 13.0633 16.1277 13.1879 16.4294C13.3125 16.731 13.4954 17.0043 13.7257 17.2329L17.4997 21Z" stroke="#EF3340" stroke-width="1.3" stroke-linecap="round" stroke-linejoin="round"/>
</g>
<defs>
<clipPath id="clip0_43_42858">
<rect width="24" height="24" fill="white"/>
</clipPath>
</defs>
</svg>
