<svg width="20" height="20" viewBox="0 0 20 20" fill="none" xmlns="http://www.w3.org/2000/svg">
<g id="boy_0105y" clip-path="url(#clip0_1233_59232)">
<path id="Vector" d="M3.33502 8.07002C3.23534 8.47203 3.48045 8.87875 3.88252 8.97843L3.88252 8.97843C5.23601 9.31393 6.43205 9.56131 7.5663 9.71207C7.56631 9.71207 7.56631 9.71207 7.56632 9.71207L8.00041 9.76982V13.0785L7.38119 18.0323C7.33094 18.4345 7.60925 18.8039 8.00968 18.8664L8.00971 18.8664C8.41018 18.9289 8.78788 18.662 8.86258 18.2636L9.80008 13.2636L9.8001 13.2635C9.80076 13.2599 9.8014 13.2564 9.80201 13.2528H10.8238C10.8244 13.2564 10.8251 13.2599 10.8257 13.2635L10.8257 13.2636L11.7632 18.2636C11.8379 18.662 12.2156 18.9289 12.6161 18.8664L12.6161 18.8664C13.0166 18.8039 13.2949 18.4345 13.2446 18.0324L13.1206 18.0478L13.2446 18.0323L12.6254 13.0788V9.70562L13.0473 9.63888L13.0277 9.51541L13.0473 9.63887C14.0016 9.48782 15.0103 9.26703 16.127 8.97625L16.127 8.97625C16.5278 8.87185 16.7682 8.46236 16.6638 8.06147C16.5594 7.6606 16.1499 7.42031 15.749 7.52463L15.749 7.52463C13.4663 8.11906 11.7254 8.39135 10.0033 8.38447C8.27902 8.37753 6.53517 8.09065 4.24343 7.52252C3.84138 7.42285 3.43464 7.66793 3.33502 8.07002ZM3.33502 8.07002L3.45635 8.1001M3.33502 8.07002C3.33502 8.07002 3.33502 8.07003 3.33502 8.07004L3.45635 8.1001M3.45635 8.1001C3.53935 7.76504 3.87829 7.56079 4.21335 7.64385C6.5096 8.2131 8.26435 8.50247 10.0028 8.50947C11.7394 8.51641 13.4918 8.2416 15.7805 7.6456L7.58279 9.58816C6.45472 9.43822 5.26354 9.19197 3.9126 8.8571C3.57754 8.77404 3.37329 8.4351 3.45635 8.1001ZM15.497 6.55694L15.4655 6.43597L15.497 6.55694C16.4323 6.3134 17.388 6.87416 17.6315 7.80947C17.875 8.74479 17.3142 9.70046 16.3789 9.94401C15.4388 10.1888 14.5646 10.3873 13.7283 10.5378L13.6254 10.5563V10.6608V13.0088V13.0166L13.6264 13.0243L14.2369 17.9083C14.3542 18.8467 13.7047 19.7086 12.7703 19.8544C11.8377 20 10.9581 19.3798 10.7814 18.4533L10.4704 15.2076C10.4534 15.0299 10.1957 15.0253 10.1724 15.2024L9.99772 16.5319L9.99756 16.5319L9.99705 16.5382L9.84422 18.4543C9.66708 19.3803 8.78774 20 7.85551 19.8544C6.92107 19.7086 6.27163 18.8467 6.38888 17.9083L6.99945 13.024L7.00041 13.0163V13.0085V10.7489V10.6419L6.89463 10.6254C5.87471 10.4667 4.80841 10.2382 3.64186 9.94902L3.64186 9.94902C2.70375 9.7165 2.13179 8.76748 2.36436 7.82937C2.59694 6.89124 3.54597 6.31929 4.48402 6.55186L4.48402 6.55186C6.73982 7.1111 8.39648 7.37804 10.0073 7.38447C11.6129 7.39091 13.2627 7.1387 15.497 6.55694Z" fill="#EF3340" stroke="#FFF7F5" stroke-width="0.25"/>
<path id="Vector_2" d="M16.0231 7.40085L16.0231 7.40085C16.4421 7.28975 16.867 7.54625 16.9748 7.96825C17.0825 8.38945 16.8352 8.82277 16.4172 8.93371L16.4172 8.93371C15.2474 9.24406 14.1908 9.4797 13.1912 9.64092L13.1713 9.51751L13.1912 9.64092L12.7439 9.71303V13.3218L13.3927 18.6098C13.4445 19.0323 13.1576 19.4239 12.7395 19.4904L12.7395 19.4904C12.321 19.5569 11.9296 19.2725 11.8524 18.8533L10.8703 13.5163L10.8703 13.5162C10.8692 13.5103 10.8682 13.5044 10.8672 13.4984H9.78738C9.78642 13.5044 9.7854 13.5103 9.78432 13.5162L9.7843 13.5163L8.80218 18.8533C8.72505 19.2725 8.33364 19.5569 7.91504 19.4904L7.91501 19.4904C7.49701 19.4239 7.2101 19.0323 7.26191 18.6098L7.38598 18.625L7.26191 18.6098L7.91069 13.3214V9.78142L7.45046 9.71903C7.45046 9.71903 7.45045 9.71903 7.45045 9.71903C6.26239 9.55813 5.00958 9.29412 3.59175 8.93602L3.59175 8.93602C3.17237 8.83009 2.92017 8.39964 3.02293 7.97728L16.0231 7.40085ZM16.0231 7.40085C13.6316 8.0354 11.8074 8.32612 10.003 8.31877M16.0231 7.40085L10.003 8.31877M10.003 8.31877C8.19619 8.31136 6.36902 8.00508 3.96804 7.39861C3.54779 7.29246 3.12585 7.55402 3.02294 7.97725L10.003 8.31877Z" fill="#EF3340" stroke="#EF3340" stroke-width="0.25"/>
<path id="Vector_3" d="M10 1.0875C8.87476 1.0875 7.9625 1.99969 7.9625 3.125C7.9625 4.25031 8.87476 5.1625 10 5.1625C11.1253 5.1625 12.0375 4.25031 12.0375 3.125C12.0375 1.99969 11.1253 1.0875 10 1.0875ZM7.0375 3.125C7.0375 1.48887 8.36387 0.1625 10 0.1625C11.6361 0.1625 12.9625 1.48887 12.9625 3.125C12.9625 4.76113 11.6361 6.0875 10 6.0875C8.36387 6.0875 7.0375 4.76113 7.0375 3.125Z" fill="#B00C2F" stroke="white" stroke-width="0.325"/>
<circle id="Ellipse 1" cx="10" cy="3.125" r="2.5" fill="#B00C2F"/>
</g>
<defs>
<clipPath id="clip0_1233_59232">
<rect width="20" height="20" fill="white"/>
</clipPath>
</defs>
</svg>
