<svg width="40" height="40" viewBox="0 0 40 40" fill="none" xmlns="http://www.w3.org/2000/svg">
<path d="M34.7413 22.8126C34.0081 22.0757 33.5964 21.0775 33.5964 20.0368C33.5964 18.9961 34.0081 17.9979 34.7413 17.2609L37.9206 14.0748C39.1002 12.8895 39.7626 11.2837 39.7626 9.60969C39.7626 7.93565 39.1002 6.32992 37.9206 5.14459L34.7413 1.95846C32.2849 -0.493863 28.4487 -0.665525 26.1918 1.59627L24.2417 3.5619L22.0807 5.72371H23.7748V7.42147L25.9263 5.24079L27.8783 3.28648C29.2054 1.95657 31.5282 2.1188 33.0548 3.64867L36.234 6.8348C36.9682 7.57124 37.3806 8.56965 37.3806 9.61064C37.3806 10.6516 36.9682 11.65 36.234 12.3865L33.0548 15.5707C31.8752 16.7561 31.2128 18.3618 31.2128 20.0358C31.2128 21.7099 31.8752 23.3156 33.0548 24.5009L36.234 27.6871C36.9682 28.4235 37.3806 29.4219 37.3806 30.4629C37.3806 31.5039 36.9682 32.5023 36.234 33.2387L33.0548 36.4249C31.5282 37.9547 29.1019 38.0189 27.66 36.5682L21.5668 30.462L19.8822 28.7736L13.934 22.8126C12.4055 21.2809 12.2398 18.953 13.5725 17.6231L15.9801 15.2085L18.1956 17.4307L19.8897 15.7329L17.6742 13.5127L15.9801 11.8149L11.886 15.9178C9.62716 18.1815 9.79092 22.0241 12.2474 24.4858L18.1956 30.4469L19.8897 32.1446L25.9828 38.2509C28.3602 40.6334 32.2924 40.5674 34.7489 38.1057L37.9281 34.9195C39.1081 33.7348 39.7707 32.1292 39.7707 30.4554C39.7707 28.7815 39.1081 27.176 37.9281 25.9912L34.7413 22.8126ZM24.4336 5.09554C24.3812 5.14879 24.3141 5.18521 24.241 5.20017C24.1678 5.21512 24.0919 5.20794 24.0228 5.17953C23.9537 5.15112 23.8946 5.10276 23.853 5.04062C23.8115 4.97847 23.7893 4.90533 23.7893 4.8305C23.7893 4.75567 23.8115 4.68254 23.853 4.62039C23.8946 4.55824 23.9537 4.50988 24.0228 4.48147C24.0919 4.45306 24.1678 4.44588 24.241 4.46083C24.3141 4.47579 24.3812 4.51221 24.4336 4.56546C24.5032 4.63607 24.5422 4.73129 24.5422 4.8305C24.5422 4.92971 24.5032 5.02493 24.4336 5.09554Z" fill="#FFF" stroke="#B00C2F" stroke-width="0.2"/>
<path d="M27.8772 15.9331L25.4679 13.5204L23.7737 11.8226L22.0796 13.5204L18.1775 17.4309L19.8717 19.1192L23.7737 15.2087L26.1831 17.6233C27.5102 18.9532 27.3483 21.281 25.8217 22.8128L12.1032 36.5741C10.6557 38.0247 8.23691 37.9606 6.70845 36.4307L3.53105 33.2446C2.79689 32.5081 2.38451 31.5097 2.38451 30.4687C2.38451 29.4277 2.79689 28.4293 3.53105 27.6929L6.70656 24.5011C7.88706 23.3163 8.5501 21.7103 8.5501 20.036C8.5501 18.3616 7.88706 16.7557 6.70656 15.5709L3.52918 12.3866C2.79502 11.6502 2.38262 10.6518 2.38262 9.61081C2.38262 8.56981 2.79502 7.57141 3.52918 6.83497L6.70656 3.64884C8.23502 2.11897 10.5578 1.95108 11.8849 3.28665L13.835 5.24096L16.0034 7.41409V5.71633H17.6975L15.5216 3.56206L13.5715 1.59644C11.3126 -0.667245 7.47832 -0.503128 5.02187 1.95862L1.84259 5.14475C0.66302 6.33009 0.000614656 7.93582 0.000614656 9.60986C0.000614656 11.2839 0.66302 12.8896 1.84259 14.075L5.02187 17.2611C5.75511 17.998 6.16687 18.9963 6.16687 20.0369C6.16687 21.0776 5.75511 22.0758 5.02187 22.8128L1.84259 25.9989C0.662675 27.1837 0 28.7892 0 30.4631C0 32.137 0.662675 33.7425 1.84259 34.9272L5.02187 38.1134C7.47832 40.5657 11.4105 40.6411 13.7879 38.2586L19.8811 32.1523L21.5658 30.4546L27.5158 24.5011C29.9723 22.0488 30.1342 18.1968 27.8772 15.9331ZM15.3296 4.56563C15.382 4.51237 15.4491 4.47595 15.5222 4.461C15.5954 4.44604 15.6714 4.45323 15.7404 4.48164C15.8095 4.51005 15.8686 4.5584 15.9102 4.62055C15.9518 4.6827 15.974 4.75584 15.974 4.83067C15.974 4.90549 15.9518 4.97863 15.9102 5.04078C15.8686 5.10293 15.8095 5.15128 15.7404 5.1797C15.6714 5.20811 15.5954 5.21529 15.5222 5.20034C15.4491 5.18538 15.382 5.14896 15.3296 5.09571C15.26 5.0251 15.221 4.92988 15.221 4.83067C15.221 4.73145 15.26 4.63624 15.3296 4.56563Z" fill="#FFF" stroke="#B00C2F" stroke-width="0.2"/>
</svg>
