<svg width="21" height="20" viewBox="0 0 21 20" fill="none" xmlns="http://www.w3.org/2000/svg">
<g id="subway-time-4">
<path id="Vector" d="M9.83594 9.16797H9.98203V3.48594H11.35V10.6859H5.81797V9.31797H9.68203H9.83203H9.83594V9.16797ZM0.817969 10C0.817969 4.55941 5.22737 0.15 10.668 0.15C16.1086 0.15 20.518 4.55941 20.518 10C20.518 15.4406 16.1086 19.85 10.668 19.85C5.22737 19.85 0.817969 15.4406 0.817969 10ZM2.18594 10C2.18594 14.6844 5.98356 18.482 10.668 18.482C15.3524 18.482 19.15 14.6844 19.15 10C19.15 5.31559 15.3524 1.51797 10.668 1.51797C5.98356 1.51797 2.18594 5.31559 2.18594 10Z" fill="#B00C2F" stroke="white" stroke-width="0.3"/>
</g>
</svg>
