<svg width="40" height="40" viewBox="0 0 40 40" fill="none" xmlns="http://www.w3.org/2000/svg">
<path fill-rule="evenodd" clip-rule="evenodd" d="M14.938 8.87192C14.938 13.0742 18.593 16.4938 23.0831 16.4938C27.5732 16.4938 31.2282 13.0742 31.2282 8.87192C31.2282 4.66961 27.5732 1.25 23.0831 1.25C18.593 1.25 14.938 4.66961 14.938 8.87192ZM29.6958 8.87192C29.6958 12.2849 26.7287 15.0607 23.0831 15.0607C19.4376 15.0607 16.4705 12.2838 16.4705 8.87192C16.4705 5.46003 19.4376 2.68311 23.0831 2.68311C26.7287 2.68311 29.6958 5.46003 29.6958 8.87192ZM3.89063 35.1639H6.95667V38.0334C6.95667 38.4292 7.29943 38.75 7.72229 38.75H9.95792H10.6906H33.9602C35.6325 38.75 36.982 37.3826 36.9599 35.7104L36.875 29.2761C36.875 24.1312 33.4638 19.725 28.651 17.9126C28.6207 17.8989 28.5895 17.8896 28.5574 17.88L28.545 17.8762C27.0679 17.3339 25.466 17.0252 23.7863 17.0252H23.0466C21.3846 17.0252 19.7768 17.3273 18.2856 17.8762L18.2635 17.883C18.236 17.8913 18.2092 17.8993 18.1831 17.9115C14.9451 19.133 12.296 21.5483 10.9391 24.6758H7.72229C7.29943 24.6758 6.95667 24.9966 6.95667 25.3923V28.2619H3.89063C3.46776 28.2619 3.125 28.5827 3.125 28.9784V34.4474C3.125 34.8431 3.46776 35.1639 3.89063 35.1639ZM23.7875 18.4583C25.1067 18.4583 26.3694 18.6766 27.5508 19.0591L29.0845 19.672C32.7983 21.4733 35.3449 25.098 35.3449 29.2761L35.316 36.321C35.3138 36.8717 34.8667 37.3169 34.316 37.3169H14.3314L14.3314 35.1639H17.3975C17.8203 35.1639 18.1631 34.8431 18.1631 34.4474V28.9784C18.1631 28.5827 17.8203 28.2619 17.3975 28.2619H14.3314V25.3923C14.3314 24.9966 13.9887 24.6758 13.5658 24.6758H12.5999C13.6942 22.4986 15.534 20.7777 17.752 19.6974L19.2833 19.0779C20.4765 18.6887 21.7391 18.4583 23.0466 18.4583H23.7875ZM4.65861 29.695H7.72347C8.14633 29.695 8.4891 29.3742 8.4891 28.9784V26.1089H11.4574H12.8013V28.9784C12.8013 29.3742 13.1441 29.695 13.567 29.695H16.633V33.7308H13.567C13.1441 33.7308 12.8013 34.0516 12.8013 34.4474V37.3169H10.7259H8.49027V34.4474C8.49027 34.0516 8.14751 33.7308 7.72465 33.7308H4.65861V29.695Z" fill="white"/>
<path d="M9.95792 38.75H7.72229C7.29943 38.75 6.95667 38.4292 6.95667 38.0334V35.1639H3.89063C3.46776 35.1639 3.125 34.8431 3.125 34.4474V28.9784C3.125 28.5827 3.46776 28.2619 3.89063 28.2619H6.95667V25.3923C6.95667 24.9966 7.29943 24.6758 7.72229 24.6758H10.9391C12.296 21.5483 14.9451 19.133 18.1831 17.9115C18.2092 17.8993 18.236 17.8913 18.2635 17.883M9.95792 38.75C9.95792 38.75 10.2677 38.75 10.6906 38.75M9.95792 38.75H10.6906M10.6906 38.75H33.9602C35.6325 38.75 36.982 37.3826 36.9599 35.7104L36.875 29.2761C36.875 24.1312 33.4638 19.725 28.651 17.9126C28.6207 17.8989 28.5895 17.8896 28.5574 17.88M28.545 17.8762C27.0679 17.3339 25.466 17.0252 23.7863 17.0252H23.0466C21.3846 17.0252 19.7768 17.3273 18.2856 17.8762M28.545 17.8762C28.5491 17.8775 28.5533 17.8787 28.5574 17.88M28.545 17.8762L28.5574 17.88M18.2856 17.8762C18.2782 17.8786 18.2708 17.8808 18.2635 17.883M18.2856 17.8762L18.2635 17.883M11.4904 38.75H13.5658M7.72347 29.695H4.65743H4.65861M7.72347 29.695C8.14633 29.695 8.4891 29.3742 8.4891 28.9784V26.1089H11.4574H12.8013V28.9784C12.8013 29.3742 13.1441 29.695 13.567 29.695H16.633V33.7308H13.567C13.1441 33.7308 12.8013 34.0516 12.8013 34.4474V37.3169H10.7259H8.49027V34.4474C8.49027 34.0516 8.14751 33.7308 7.72465 33.7308H4.65861V29.695M7.72347 29.695H4.65861M14.938 8.87192C14.938 13.0742 18.593 16.4938 23.0831 16.4938C27.5732 16.4938 31.2282 13.0742 31.2282 8.87192C31.2282 4.66961 27.5732 1.25 23.0831 1.25C18.593 1.25 14.938 4.66961 14.938 8.87192ZM29.6958 8.87192C29.6958 12.2849 26.7287 15.0607 23.0831 15.0607C19.4376 15.0607 16.4705 12.2838 16.4705 8.87192C16.4705 5.46003 19.4376 2.68311 23.0831 2.68311C26.7287 2.68311 29.6958 5.46003 29.6958 8.87192ZM23.7875 18.4583C25.1067 18.4583 26.3694 18.6766 27.5508 19.0591L29.0845 19.672C32.7983 21.4733 35.3449 25.098 35.3449 29.2761L35.316 36.321C35.3138 36.8717 34.8667 37.3169 34.316 37.3169H14.3314L14.3314 35.1639H17.3975C17.8203 35.1639 18.1631 34.8431 18.1631 34.4474V28.9784C18.1631 28.5827 17.8203 28.2619 17.3975 28.2619H14.3314V25.3923C14.3314 24.9966 13.9887 24.6758 13.5658 24.6758H12.5999C13.6942 22.4986 15.534 20.7777 17.752 19.6974L19.2833 19.0779C20.4765 18.6887 21.7391 18.4583 23.0466 18.4583H23.7875Z" stroke="white" stroke-width="0.5"/>
<path fill-rule="evenodd" clip-rule="evenodd" d="M3.89063 35.1639H6.95667V38.0334C6.95667 38.4292 7.29943 38.75 7.72229 38.75H9.95792H10.6906H14.3314L14.3314 37.3169L14.3314 35.1639H17.3975C17.8203 35.1639 18.1631 34.8431 18.1631 34.4474V28.9784C18.1631 28.5827 17.8203 28.2619 17.3975 28.2619H14.3314V25.3923C14.3314 24.9966 13.9887 24.6758 13.5658 24.6758H10.9391H7.72229C7.29943 24.6758 6.95667 24.9966 6.95667 25.3923V28.2619H3.89063C3.46776 28.2619 3.125 28.5827 3.125 28.9784V34.4474C3.125 34.8431 3.46776 35.1639 3.89063 35.1639ZM7.72347 29.695H4.65861V33.7308H7.72465C8.14751 33.7308 8.49027 34.0516 8.49027 34.4474V37.3169H10.7259H12.8013V34.4474C12.8013 34.0516 13.1441 33.7308 13.567 33.7308H16.633V29.695H13.567C13.1441 29.695 12.8013 29.3742 12.8013 28.9784V26.1089H11.4574H8.4891V28.9784C8.4891 29.3742 8.14633 29.695 7.72347 29.695Z" fill="white"/>
<path d="M9.95792 38.75H7.72229C7.29943 38.75 6.95667 38.4292 6.95667 38.0334V35.1639H3.89063C3.46776 35.1639 3.125 34.8431 3.125 34.4474V28.9784C3.125 28.5827 3.46776 28.2619 3.89063 28.2619H6.95667V25.3923C6.95667 24.9966 7.29943 24.6758 7.72229 24.6758H10.9391H13.5658C13.9887 24.6758 14.3314 24.9966 14.3314 25.3923V28.2619H17.3975C17.8203 28.2619 18.1631 28.5827 18.1631 28.9784V34.4474C18.1631 34.8431 17.8203 35.1639 17.3975 35.1639H14.3314L14.3314 37.3169L14.3314 38.75H10.6906M9.95792 38.75C9.95792 38.75 10.2677 38.75 10.6906 38.75M9.95792 38.75H10.6906M7.72347 29.695H4.65743H4.65861M7.72347 29.695C8.14633 29.695 8.4891 29.3742 8.4891 28.9784V26.1089H11.4574H12.8013V28.9784C12.8013 29.3742 13.1441 29.695 13.567 29.695H16.633V33.7308H13.567C13.1441 33.7308 12.8013 34.0516 12.8013 34.4474V37.3169H10.7259H8.49027V34.4474C8.49027 34.0516 8.14751 33.7308 7.72465 33.7308H4.65861V29.695M7.72347 29.695H4.65861" stroke="white" stroke-width="0.5"/>
</svg>
