<svg width="22" height="24" viewBox="0 0 22 24" fill="none" xmlns="http://www.w3.org/2000/svg">
<path fill-rule="evenodd" clip-rule="evenodd" d="M7.96282 5.32315C7.96282 7.84454 10.1558 9.89631 12.8499 9.89631C15.5439 9.89631 17.7369 7.84454 17.7369 5.32315C17.7369 2.80177 15.5439 0.75 12.8499 0.75C10.1558 0.75 7.96282 2.80177 7.96282 5.32315ZM16.8175 5.32315C16.8175 7.37095 15.0372 9.03644 12.8499 9.03644C10.6625 9.03644 8.88228 7.37029 8.88228 5.32315C8.88228 3.27602 10.6625 1.60986 12.8499 1.60986C15.0372 1.60986 16.8175 3.27602 16.8175 5.32315ZM1.33438 21.0984H3.174V22.8201C3.174 23.0575 3.37966 23.25 3.63338 23.25H4.97475H5.41434H18.1602C19.8325 23.25 21.182 21.8826 21.1599 20.2104L21.125 17.5656C21.125 14.4787 19.0783 11.835 16.1906 10.7476C16.1724 10.7394 16.1537 10.7338 16.1344 10.728L16.127 10.7257C15.2407 10.4003 14.2796 10.2151 13.2718 10.2151H12.828C11.8308 10.2151 10.8661 10.3964 9.97135 10.7257L9.95809 10.7298C9.94158 10.7348 9.9255 10.7396 9.90987 10.7469C7.96706 11.4798 6.37762 12.929 5.56346 14.8055H3.63338C3.37966 14.8055 3.174 14.9979 3.174 15.2354V16.9571H1.33438C1.08066 16.9571 0.875 17.1496 0.875 17.387V20.6684C0.875 20.9059 1.08066 21.0984 1.33438 21.0984ZM13.2725 11.075C14.064 11.075 14.8217 11.2059 15.5305 11.4355L16.4507 11.8032C18.679 12.884 20.207 15.0588 20.207 17.5656L20.1912 21.3942C20.189 21.9449 19.7419 22.3901 19.1913 22.3901H7.59885L7.59885 21.0984H9.43848C9.69219 21.0984 9.89785 20.9059 9.89785 20.6684V17.387C9.89785 17.1496 9.69219 16.9571 9.43848 16.9571H7.59885V15.2354C7.59885 14.9979 7.39319 14.8055 7.13948 14.8055H6.55995C7.21651 13.4991 8.32042 12.4666 9.6512 11.8184L10.57 11.4467C11.2859 11.2132 12.0435 11.075 12.828 11.075H13.2725ZM1.79517 17.817H3.63408C3.8878 17.817 4.09346 17.6245 4.09346 17.387V15.6653H5.87442H6.68081V17.387C6.68081 17.6245 6.88646 17.817 7.14018 17.817H8.97981V20.2385H7.14018C6.88646 20.2385 6.68081 20.431 6.68081 20.6684V22.3901H5.43554H4.09416V20.6684C4.09416 20.431 3.88851 20.2385 3.63479 20.2385H1.79517V17.817Z" fill="#B00C2F"/>
<path d="M4.97475 23.25H3.63338C3.37966 23.25 3.174 23.0575 3.174 22.8201V21.0984H1.33438C1.08066 21.0984 0.875 20.9059 0.875 20.6684V17.387C0.875 17.1496 1.08066 16.9571 1.33438 16.9571H3.174V15.2354C3.174 14.9979 3.37966 14.8055 3.63338 14.8055H5.56346C6.37762 12.929 7.96706 11.4798 9.90987 10.7469C9.9255 10.7396 9.94158 10.7348 9.95809 10.7298M4.97475 23.25C4.97475 23.25 5.16062 23.25 5.41434 23.25M4.97475 23.25H5.41434M5.41434 23.25H18.1602C19.8325 23.25 21.182 21.8826 21.1599 20.2104L21.125 17.5656C21.125 14.4787 19.0783 11.835 16.1906 10.7476C16.1724 10.7394 16.1537 10.7338 16.1344 10.728M16.127 10.7257C15.2407 10.4003 14.2796 10.2151 13.2718 10.2151H12.828C11.8308 10.2151 10.8661 10.3964 9.97135 10.7257M16.127 10.7257C16.1295 10.7265 16.132 10.7272 16.1344 10.728M16.127 10.7257L16.1344 10.728M9.97135 10.7257C9.9669 10.7271 9.96248 10.7285 9.95809 10.7298M9.97135 10.7257L9.95809 10.7298M5.89421 23.25H7.13948M3.63408 17.817H1.79446H1.79517M3.63408 17.817C3.8878 17.817 4.09346 17.6245 4.09346 17.387V15.6653H5.87442H6.68081V17.387C6.68081 17.6245 6.88646 17.817 7.14018 17.817H8.97981V20.2385H7.14018C6.88646 20.2385 6.68081 20.431 6.68081 20.6684V22.3901H5.43554H4.09416V20.6684C4.09416 20.431 3.88851 20.2385 3.63479 20.2385H1.79517V17.817M3.63408 17.817H1.79517M7.96282 5.32315C7.96282 7.84454 10.1558 9.89631 12.8499 9.89631C15.5439 9.89631 17.7369 7.84454 17.7369 5.32315C17.7369 2.80177 15.5439 0.75 12.8499 0.75C10.1558 0.75 7.96282 2.80177 7.96282 5.32315ZM16.8175 5.32315C16.8175 7.37095 15.0372 9.03644 12.8499 9.03644C10.6625 9.03644 8.88228 7.37029 8.88228 5.32315C8.88228 3.27602 10.6625 1.60986 12.8499 1.60986C15.0372 1.60986 16.8175 3.27602 16.8175 5.32315ZM13.2725 11.075C14.064 11.075 14.8217 11.2059 15.5305 11.4355L16.4507 11.8032C18.679 12.884 20.207 15.0588 20.207 17.5656L20.1912 21.3942C20.189 21.9449 19.7419 22.3901 19.1913 22.3901H7.59885L7.59885 21.0984H9.43848C9.69219 21.0984 9.89785 20.9059 9.89785 20.6684V17.387C9.89785 17.1496 9.69219 16.9571 9.43848 16.9571H7.59885V15.2354C7.59885 14.9979 7.39319 14.8055 7.13948 14.8055H6.55995C7.21651 13.4991 8.32042 12.4666 9.6512 11.8184L10.57 11.4467C11.2859 11.2132 12.0435 11.075 12.828 11.075H13.2725Z" stroke="#B00C2F" stroke-width="0.2"/>
</svg>
