<svg width="20" height="18" viewBox="0 0 20 18" fill="none" xmlns="http://www.w3.org/2000/svg">
<path d="M18.9994 17.9009L18.9994 17.9009L19.0026 17.901C19.0853 17.9031 19.1675 17.8858 19.2423 17.8505L19.2423 17.8504L19.247 17.8484C19.3657 17.7997 19.4673 17.7169 19.539 17.6105C19.6107 17.5041 19.6493 17.3789 19.65 17.2507V3.58707C19.6394 3.11892 19.5368 2.65743 19.348 2.22891C19.159 1.80006 18.8874 1.41265 18.5486 1.0888C18.2099 0.764959 17.8107 0.511031 17.3737 0.341527C16.9368 0.172023 16.4708 0.0902648 16.0023 0.100923L16.0023 0.100949H16H4V0.100974L3.99773 0.100923C3.5292 0.0902648 3.06317 0.172023 2.62626 0.341527C2.18934 0.511031 1.79011 0.764959 1.45136 1.0888C1.11261 1.41265 0.840986 1.80006 0.652006 2.22891C0.463177 2.65742 0.360559 3.11892 0.35 3.58706V10.6648C0.360559 11.133 0.463177 11.5945 0.652006 12.023C0.840986 12.4518 1.11261 12.8392 1.45136 13.1631C1.79011 13.4869 2.18934 13.7409 2.62626 13.9104C3.06317 14.0799 3.5292 14.1616 3.99773 14.151V14.1509H4H14.9425H14.984L15.0133 14.1803L18.5379 17.7124C18.538 17.7125 18.538 17.7125 18.538 17.7126C18.5987 17.7727 18.6707 17.8204 18.7499 17.8527C18.8291 17.885 18.9139 17.9014 18.9994 17.9009ZM15.5001 12.8992L15.5379 12.8066L15.5001 12.8992C15.4209 12.8668 15.3361 12.8505 15.2506 12.8509H15.25H4.00173C3.40152 12.8717 2.81742 12.6542 2.37687 12.246C1.93588 11.8373 1.67459 11.2707 1.65008 10.67L1.65 10.67V10.6659V3.58595H1.64992L1.65008 3.58187C1.67459 2.98115 1.93588 2.41455 2.37687 2.0059C2.81743 1.59766 3.40153 1.38021 4.00175 1.40095H15.9983C16.5985 1.38021 17.1826 1.59766 17.6231 2.0059C18.0641 2.41455 18.3254 2.98115 18.3499 3.58187L18.35 3.58187V3.58595V15.4434V15.6854L18.1792 15.5141L15.7121 13.0394C15.712 13.0394 15.7119 13.0393 15.7119 13.0392C15.6512 12.9791 15.5792 12.9315 15.5001 12.8992Z" fill="white" stroke="#B00C2F" stroke-width="0.2"/>
<path d="M10 8.25C9.37868 8.25 8.875 7.74632 8.875 7.125C8.875 6.50368 9.37868 6 10 6C10.6213 6 11.125 6.50368 11.125 7.125C11.125 7.74632 10.6213 8.25 10 8.25Z" fill="white"/>
<path d="M5.875 8.25C5.25368 8.25 4.75 7.74632 4.75 7.125C4.75 6.50368 5.25368 6 5.875 6C6.49632 6 7 6.50368 7 7.125C7 7.74632 6.49632 8.25 5.875 8.25Z" fill="white"/>
<path d="M14.125 8.25C13.5037 8.25 13 7.74632 13 7.125C13 6.50368 13.5037 6 14.125 6C14.7463 6 15.25 6.50368 15.25 7.125C15.25 7.74632 14.7463 8.25 14.125 8.25Z" fill="white"/>
</svg>
