<svg width="34" height="30" viewBox="0 0 34 30" fill="none" xmlns="http://www.w3.org/2000/svg">
<path d="M31.9988 29.7996L31.9988 29.7995L32.0052 29.7997C32.1379 29.8031 32.2696 29.7754 32.3897 29.7187L32.3896 29.7185L32.399 29.7146C32.5908 29.6359 32.7549 29.5021 32.8707 29.3302C32.9865 29.1584 33.0489 28.9562 33.05 28.7491V5.97687C33.0325 5.20113 32.8624 4.43641 32.5495 3.72634C32.2363 3.0156 31.7861 2.37353 31.2247 1.83681C30.6633 1.3001 30.0016 0.879259 29.2775 0.598336C28.5534 0.317413 27.781 0.181913 27.0045 0.199576L27.0045 0.199628H27H7V0.19968L6.99545 0.199576C6.21896 0.181913 5.4466 0.317413 4.72249 0.598336C3.99838 0.879259 3.33672 1.3001 2.7753 1.83681C2.21388 2.37353 1.76372 3.0156 1.45052 3.72634C1.13761 4.43641 0.967548 5.20112 0.950001 5.97686V17.7724C0.967548 18.5481 1.13761 19.3128 1.45052 20.0229C1.76372 20.7337 2.21388 21.3757 2.7753 21.9124C3.33672 22.4492 3.99838 22.87 4.72249 23.1509C5.4466 23.4318 6.21896 23.5673 6.99545 23.5497V23.5496H7H25.2375H25.3205L25.3791 23.6084L31.2533 29.4951C31.2535 29.4952 31.2536 29.4953 31.2537 29.4954C31.3517 29.5926 31.468 29.6695 31.5957 29.7217L31.5201 29.9068L31.5957 29.7217C31.7237 29.7739 31.8607 29.8004 31.9988 29.7996ZM30.6084 25.8783L26.4967 21.7541C26.4965 21.754 26.4964 21.7539 26.4963 21.7538C26.3983 21.6566 26.282 21.5798 26.1543 21.5276C26.0263 21.4753 25.8893 21.4488 25.7512 21.4496H25.75H7.00345C5.99451 21.4843 5.01269 21.1187 4.27213 20.4325C3.53069 19.7454 3.09136 18.7928 3.05017 17.7828L3.05 17.7828V17.7746V5.97463H3.04983L3.05017 5.96648C3.09136 4.95647 3.53069 4.00384 4.27213 3.31677C5.0127 2.63051 5.99453 2.26492 7.00349 2.29963H26.9965C28.0055 2.26492 28.9873 2.63051 29.7279 3.31677C30.4693 4.00384 30.9086 4.95647 30.9498 5.96648L30.95 5.96647V5.97463V25.7371V26.221L30.6084 25.8783Z" fill="#B00C2F" stroke="white" stroke-width="0.4"/>
<path d="M17 13.75C15.9645 13.75 15.125 12.9105 15.125 11.875C15.125 10.8395 15.9645 10 17 10C18.0355 10 18.875 10.8395 18.875 11.875C18.875 12.9105 18.0355 13.75 17 13.75Z" fill="#EF3340"/>
<path d="M10.125 13.75C9.08947 13.75 8.25 12.9105 8.25 11.875C8.25 10.8395 9.08947 10 10.125 10C11.1605 10 12 10.8395 12 11.875C12 12.9105 11.1605 13.75 10.125 13.75Z" fill="#EF3340"/>
<path d="M23.875 13.75C22.8395 13.75 22 12.9105 22 11.875C22 10.8395 22.8395 10 23.875 10C24.9105 10 25.75 10.8395 25.75 11.875C25.75 12.9105 24.9105 13.75 23.875 13.75Z" fill="#EF3340"/>
</svg>
