<svg width="102" height="19" viewBox="0 0 102 19" fill="none" xmlns="http://www.w3.org/2000/svg">
<path d="M9.49475 13.813L4.86575 16.2467L5.75 11.092L2 7.4417L7.175 6.6917L9.4895 2.00195L11.804 6.6917L16.979 7.4417L13.229 11.092L14.1133 16.2467L9.49475 13.813Z" fill="#B00C2F"/>
<path d="M30.4948 13.813L25.8658 16.2467L26.75 11.092L23 7.4417L28.175 6.6917L30.4895 2.00195L32.804 6.6917L37.979 7.4417L34.229 11.092L35.1133 16.2467L30.4948 13.813Z" fill="#B00C2F"/>
<path d="M51.4948 13.813L46.8658 16.2467L47.75 11.092L44 7.4417L49.175 6.6917L51.4895 2.00195L53.804 6.6917L58.979 7.4417L55.229 11.092L56.1133 16.2467L51.4948 13.813Z" fill="#B00C2F"/>
<path d="M72.4948 13.813L67.8658 16.2467L68.75 11.092L65 7.4417L70.175 6.6917L72.4895 2.00195L74.804 6.6917L79.979 7.4417L76.229 11.092L77.1133 16.2467L72.4948 13.813Z" fill="#B00C2F"/>
<path d="M93.4948 13.813L88.8658 16.2467L89.75 11.092L86 7.4417L91.175 6.6917L93.4895 2.00195L95.804 6.6917L100.979 7.4417L97.229 11.092L98.1133 16.2467L93.4948 13.813Z" stroke="#B00C2F" stroke-linecap="round" stroke-linejoin="round"/>
</svg>
