<svg width="65" height="65" viewBox="0 0 65 65" fill="none" xmlns="http://www.w3.org/2000/svg">
<mask id="mask0_1233_59334" style="mask-type:luminance" maskUnits="userSpaceOnUse" x="0" y="0" width="65" height="65">
<rect width="65" height="65" rx="32.5" fill="white"/>
</mask>
<g mask="url(#mask0_1233_59334)">
<rect width="65" height="65" fill="#F8FBFB"/>
<path d="M40.9375 25.3333C40.9375 26.9815 40.4427 28.5927 39.5155 29.9631C38.5884 31.3335 37.2706 32.4016 35.7289 33.0323C34.1871 33.6631 32.4906 33.8281 30.8539 33.5065C29.2172 33.185 27.7138 32.3913 26.5338 31.2259C25.3538 30.0605 24.5502 28.5756 24.2246 26.9591C23.8991 25.3426 24.0662 23.667 24.7048 22.1443C25.3434 20.6216 26.4248 19.3201 27.8124 18.4044C29.1999 17.4887 30.8312 17 32.5 17C34.7378 17 36.8839 17.878 38.4662 19.4408C40.0486 21.0036 40.9375 23.1232 40.9375 25.3333ZM27.4375 33.6667C25.1997 33.6667 23.0536 34.5446 21.4713 36.1074C19.8889 37.6702 19 39.7899 19 42V42V43.6667C19 43.6667 22.375 47 32.5 47C42.625 47 46 43.6667 46 43.6667V42C46 39.7899 45.1111 37.6702 43.5287 36.1074C41.9464 34.5446 39.8003 33.6667 37.5625 33.6667H27.4375Z" stroke="#E2E5E9" stroke-linecap="round" stroke-linejoin="round"/>
</g>
</svg>
