<svg width="65" height="58" viewBox="0 0 65 58" fill="none" xmlns="http://www.w3.org/2000/svg">
<g clip-path="url(#clip0_1233_58847)">
<path d="M44.7471 7.65989C43.902 7.8334 43.4547 8.42827 43.6784 9.04793C43.8275 9.41972 44.1009 9.44451 46.0396 9.29579C47.2326 9.19665 48.2765 9.07272 48.4008 8.99836C48.7239 8.80007 48.5748 7.73425 48.1771 7.58554C47.7049 7.41203 45.7165 7.43682 44.7471 7.65989Z" fill="#B00C2F"/>
<path d="M38.5557 10.3114C36.4679 11.6747 32.168 15.7644 32.168 16.3841C32.168 16.6319 32.3917 16.9541 32.6899 17.1029C33.1373 17.3507 33.4107 17.1524 35.1009 15.5413C37.3627 13.3601 39.3511 11.7986 40.6684 11.1294C41.4886 10.708 41.6377 10.5345 41.5632 9.9644C41.4389 8.89859 40.5193 8.99774 38.5557 10.3114Z" fill="#B00C2F"/>
<path d="M12.4094 12.4185C7.16495 13.2861 2.96445 17.351 1.42344 23.0767C0.826918 25.2579 0.851773 30.0416 1.44829 32.2228C2.88988 37.5271 6.96611 41.4185 12.1608 42.5091C18.3248 43.798 23.6935 41.7655 29.8079 35.8664L32.4425 33.3382L34.8534 35.6929C40.1724 40.8732 44.348 42.9801 49.319 42.9801C53.6935 43.0049 56.5767 41.8647 59.5345 38.9151C61.6223 36.8579 62.691 34.9989 63.4118 32.0741C63.9835 29.7194 63.9835 24.9604 63.387 22.8288C61.5477 16.1613 56.4027 12.1707 49.5925 12.1459C44.5966 12.1459 40.2967 14.3519 35.2263 19.5322L32.4176 22.4074L30.0564 19.8792C28.7391 18.516 26.9247 16.8057 26.005 16.1117C21.7797 12.9143 17.0821 11.6254 12.4094 12.4185ZM19.8161 14.7484C23.5195 16.0373 25.8808 18.0202 33.1136 25.9767C40.7689 34.4288 44.4475 36.8331 49.6919 36.8083C52.5751 36.7835 54.0415 36.1638 55.7565 34.3049C57.5461 32.3715 58.1177 30.7356 58.1177 27.6373C58.1177 24.2912 57.5212 22.7544 55.4085 20.6476C53.5941 18.8382 52.2519 18.3425 49.2196 18.3425C45.7648 18.3673 43.0059 19.8049 38.8302 23.7707L36.121 26.3484L35.0026 25.2579C34.406 24.663 33.9089 24.0433 33.9089 23.8946C33.9089 23.4237 38.5071 18.739 40.1973 17.4502C43.3041 15.145 46.5601 13.8809 49.5179 13.8809C55.5328 13.8809 60.0564 17.4502 61.5974 23.4484C62.4922 26.869 61.8957 32.0741 60.3298 35.0237C58.8882 37.7006 55.9553 40.0057 52.923 40.7989C51.208 41.2698 47.4798 41.245 45.8145 40.7493C41.3654 39.4356 38.5071 37.0809 29.957 27.7613C26.0796 23.5228 23.4698 21.2673 20.9843 19.9784C18.5734 18.7143 16.759 18.2681 14.6215 18.392C11.2909 18.6151 9.02907 20.2262 7.46321 23.5228C6.76727 25.0348 6.6927 25.357 6.71756 27.6373C6.71756 30.8596 7.31408 32.4707 9.1782 34.3296C10.9181 36.0399 12.633 36.7091 15.4168 36.7339C19.2693 36.7587 22.8982 34.9741 27.0987 30.9339L28.8634 29.2237L30.0067 30.5373L31.15 31.851L29.2362 33.8091C28.1923 34.8749 26.4773 36.4117 25.4582 37.2544C19.1451 42.3108 11.5643 42.3852 6.54357 37.4279C3.93379 34.8502 2.84017 31.9749 2.84017 27.6373C2.84017 23.4237 4.03321 20.1519 6.49386 17.5741C8.10944 15.8886 10.5949 14.5254 12.7822 14.1536C14.7954 13.8066 17.8526 14.0544 19.8161 14.7484ZM18.5237 20.8211C19.2693 21.1185 20.6115 21.8621 21.556 22.4818C23.2461 23.5972 27.4466 27.3895 27.4466 27.7861C27.4466 28.0835 24.812 30.6117 23.1716 31.8758C22.3762 32.4955 20.8849 33.3878 19.8161 33.9083C18.0017 34.7758 17.7283 34.8254 15.5162 34.8254C12.8567 34.8254 11.8377 34.4288 10.3712 32.9168C8.55683 31.0331 7.93545 27.6869 8.9048 24.8613C9.62559 22.7296 11.5891 20.8459 13.6521 20.3006C14.7706 20.0031 17.0324 20.251 18.5237 20.8211ZM52.6993 20.7715C55.0606 21.9861 56.3779 24.5143 56.3779 27.8108C56.3779 29.4467 56.2536 29.9425 55.5577 31.3305C54.2403 34.0074 52.4508 35.0484 49.1948 35.0237C46.3364 34.9989 43.0556 33.2886 39.5262 29.9673L37.2644 27.8108L37.7615 27.2655C38.0349 26.9433 39.377 25.704 40.7441 24.4895C43.3041 22.2091 45.1434 20.9946 46.933 20.4245C48.4243 19.9288 51.4317 20.1023 52.6993 20.7715Z" fill="#B00C2F"/>
<path d="M27.6966 41.8646C27.4977 42.2611 27.5971 42.5586 28.2682 43.4261C29.1381 44.5663 29.7347 44.8389 30.3063 44.368C30.8531 43.9218 30.7786 43.5748 29.8838 42.4346C29.0139 41.2945 28.1439 41.0714 27.6966 41.8646Z" fill="#B00C2F"/>
<path d="M7.06741 44.6661C6.37147 45.8311 6.19749 46.8225 6.64488 47.2687C7.21654 47.8635 7.9622 47.4422 8.40959 46.2772C8.88183 45.0131 8.90669 44.567 8.50901 44.1704C8.01191 43.6747 7.58937 43.8234 7.06741 44.6661Z" fill="#B00C2F"/>
<path d="M23.2714 44.1707C22.8489 44.5921 22.8986 45.3109 23.4703 46.5254C23.9674 47.6656 24.6385 47.9134 25.2101 47.2194C25.7569 46.5502 24.5887 43.8733 23.7685 43.8733C23.6691 43.8733 23.4454 43.9972 23.2714 44.1707Z" fill="#B00C2F"/>
<path d="M12.3104 46.277C11.9376 47.5907 11.9624 48.4582 12.4098 48.83C13.3295 49.5984 14.1497 48.3591 13.9757 46.401C13.9011 45.6078 13.8017 45.4839 13.2301 45.4095C12.6584 45.3351 12.5341 45.4591 12.3104 46.277Z" fill="#B00C2F"/>
<path d="M17.9268 45.5334C17.6783 45.7813 17.728 47.7146 18.0014 48.4334C18.2748 49.1522 19.0205 49.2761 19.4927 48.706C19.8407 48.2847 19.617 46.2026 19.1944 45.6573C18.921 45.3351 18.2002 45.2608 17.9268 45.5334Z" fill="#B00C2F"/>
</g>
<defs>
<clipPath id="clip0_1233_58847">
<rect width="64" height="58" fill="white" transform="translate(0.667969)"/>
</clipPath>
</defs>
</svg>
