<svg width="64" height="64" viewBox="0 0 64 64" fill="none" xmlns="http://www.w3.org/2000/svg">
<path d="M12.8765 54.6448V54.4448H12.6765H8.13426C7.60712 54.4448 7.2 54.0445 7.2 53.5747V45.4078C7.2 44.938 7.60712 44.5377 8.13426 44.5377H12.6765H12.8765V44.3377V40.0526C12.8765 39.5828 13.2837 39.1825 13.8108 39.1825H18.5764H18.7081L18.7602 39.0616C20.7477 34.444 24.6297 30.8742 29.3794 29.0681L29.3866 29.0654L29.3936 29.0621C29.4168 29.0511 29.4425 29.043 29.4855 29.03L29.5201 29.0193L29.5202 29.0196L29.5297 29.016C31.7174 28.2042 34.0758 27.7576 36.5135 27.7576H37.6094C40.0729 27.7576 42.4226 28.2139 44.5898 29.0161L44.5897 29.0164L44.601 29.0199L44.6198 29.0255C44.6694 29.0405 44.7028 29.0509 44.7334 29.0649L44.7332 29.0652L44.7453 29.0698C51.8064 31.75 56.8 38.2612 56.8 45.8522L56.7511 58.9292V58.9299C56.7511 59.3997 56.344 59.8 55.8169 59.8H18.2083H17.1229H13.8108C13.2837 59.8 12.8765 59.3997 12.8765 58.9299V54.6448ZM43.3864 30.5949V30.4498L43.2485 30.4048C41.4795 29.8275 39.5879 29.4977 37.6111 29.4977H36.5135C34.5527 29.4977 32.6609 29.8461 30.8757 30.4329L30.7382 30.4781V30.6229V33.4462C30.7382 36.7529 33.5854 39.4245 37.0614 39.4245C40.5391 39.4245 43.3864 36.7529 43.3864 33.4462V30.5949ZM9.27201 46.2778H9.07201V46.4778V52.5047V52.7047H9.27201H13.8143C14.3414 52.7047 14.7486 53.105 14.7486 53.5747V57.8599V58.0599H14.9486H18.2606H21.3353H21.5353V57.8599V53.5747C21.5353 53.105 21.9424 52.7047 22.4696 52.7047H27.0119H27.2119V52.5047V46.4778V46.2778H27.0119H22.4696C21.9424 46.2778 21.5353 45.8775 21.5353 45.4078V41.1226V40.9226H21.3353H19.3443H14.9468H14.7468V41.1226V45.4078C14.7468 45.8775 14.3397 46.2778 13.8125 46.2778H9.27201ZM28.8696 31.5481V31.2271L28.5815 31.3686C25.26 32.9994 22.5004 35.5992 20.8579 38.8933L20.7137 39.1825H21.0369H22.4678C22.995 39.1825 23.4021 39.5828 23.4021 40.0526V44.3377V44.5377H23.6021H28.1444C28.6715 44.5377 29.0786 44.938 29.0786 45.4078V53.5747C29.0786 54.0445 28.6715 54.4448 28.1444 54.4448H23.6021H23.4021V54.6448L23.4021 57.8599V58.0599H23.6021H54.6844H54.8835L54.8844 57.8607L54.9332 45.8531V45.8522C54.9332 39.5287 51.1096 34.0505 45.5463 31.3306L45.2585 31.1898V31.5102V33.4462C45.2585 37.3327 42.1744 40.5405 38.1735 41.0576L37.9992 41.0801V41.256V45.9082C37.9992 48.4791 40.2131 50.5514 42.909 50.5514C45.605 50.5514 47.817 48.479 47.817 45.9082V44.7098V44.5586L47.6716 44.5173C46.1081 44.0744 44.9727 42.7245 44.9727 41.1292C44.9727 39.1812 46.6571 37.5758 48.7513 37.5758C50.8473 37.5758 52.5317 39.1812 52.5317 41.1292C52.5317 42.7244 51.3963 44.0743 49.8311 44.5173L49.6856 44.5585V44.7098V45.9082C49.6856 49.4169 46.6557 52.2915 42.9072 52.2915C39.1587 52.2915 36.1272 49.4168 36.1272 45.9082V41.256V41.0802L35.9529 41.0576C31.9536 40.5389 28.8696 37.3327 28.8696 33.4462V31.5481ZM36.5676 26.5641C30.0149 26.5641 24.7008 21.5362 24.7008 15.3821C24.7008 9.22794 30.0149 4.2 36.5676 4.2C43.1203 4.2 48.4344 9.22794 48.4344 15.3821C48.4344 21.5362 43.1203 26.5641 36.5676 26.5641ZM36.5676 24.824C42.0677 24.824 46.5641 20.6001 46.5641 15.3821C46.5641 10.1657 42.0677 5.94011 36.5676 5.94011C31.0674 5.94011 26.5711 10.1657 26.5711 15.3821C26.5711 20.5984 31.0674 24.824 36.5676 24.824ZM46.8429 41.1292C46.8429 42.1407 47.7093 42.9442 48.7513 42.9442C49.7949 42.9442 50.6614 42.1408 50.6614 41.1292C50.6614 40.1191 49.7948 39.3159 48.7513 39.3159C47.7095 39.3159 46.8429 40.1174 46.8429 41.1292Z" fill="#B00C2F" stroke="white" stroke-width="0.4"/>
</svg>
