<svg width="64" height="64" viewBox="0 0 64 64" fill="none" xmlns="http://www.w3.org/2000/svg">
<g id="Line">
<path id="Vector" d="M46.5842 51.2988H45.4413C45.4413 51.1906 45.4413 51.0463 45.4413 50.9381C45.4413 49.2071 45.0727 47.512 44.3353 45.9252C51.6717 40.3353 52.9621 30.021 47.2478 22.8442C46.1418 21.4738 44.8146 20.2476 43.3399 19.2739L45.9206 16.7494C46.1787 16.497 46.1787 16.0642 45.9206 15.7757L43.3031 13.2151L44.8515 11.7005C45.1095 11.448 45.1095 11.0152 44.8515 10.7267L38.2155 4.23519C37.9206 3.98275 37.5151 3.98275 37.2201 4.23519L35.6717 5.74988L33.0542 3.18934C32.7962 2.93689 32.3538 2.93689 32.0588 3.18934L28.6671 6.50723C28.4091 6.75968 28.4091 7.19245 28.6671 7.48096L29.9943 8.77926L12.4459 26.09C12.1879 26.3425 12.1879 26.7752 12.4459 27.0637L13.4045 27.9653L12.0404 29.2997C11.045 30.2734 11.045 31.8242 12.0404 32.7979L15.7639 36.4404C16.2432 36.9092 16.8699 37.1617 17.5704 37.1617C18.234 37.1617 18.8976 36.9092 19.3768 36.4404L20.7409 35.106L21.6625 36.0076C21.81 36.1519 21.9575 36.224 22.1418 36.224C22.3261 36.224 22.5105 36.1519 22.6211 36.0076L35.1187 23.818C39.8376 24.395 43.4137 28.326 43.4505 32.9782C43.4505 35.9716 41.939 38.8206 39.4321 40.5156C35.7823 38.3518 31.2478 38.2075 27.4505 40.0829H8.50124C8.13258 40.0829 7.80078 40.3714 7.80078 40.7681V44.1581C7.80078 44.5187 8.09571 44.8433 8.50124 44.8433H22.2524C21.1464 46.6826 20.5565 48.8104 20.5565 50.9381C20.5565 51.0463 20.5565 51.1906 20.5565 51.2988H19.8929C14.8054 51.2988 10.6764 55.3379 10.6764 60.3148C10.6764 60.6754 10.9713 61 11.3768 61H55.1003C55.469 61 55.8008 60.7115 55.8008 60.3148C55.8008 55.3379 51.6717 51.2988 46.5842 51.2988ZM37.7363 5.74988L43.3768 11.2677L42.3077 12.2775L36.6671 6.75968L37.7363 5.74988ZM32.6118 4.74009L35.1925 7.26457L41.8284 13.7561L44.4091 16.2806L42.0128 18.6247L30.2155 7.08425L32.6118 4.74009ZM18.3446 35.5027C18.234 35.6109 18.1234 35.683 17.9759 35.7552C17.5335 35.9355 17.0542 35.8273 16.7224 35.5027L12.9989 31.8603C12.5565 31.4275 12.5565 30.7062 12.9989 30.2734L14.363 28.9391L17.4229 31.9324L17.4598 31.9684L19.7086 34.1684L18.3446 35.5027ZM22.1418 34.6011L21.2201 33.6995L18.5289 31.0668L18.492 31.0308L14.8423 27.4965L13.8837 26.5588L30.9897 9.82512L39.2109 17.8674L34.3814 22.5918L34.3446 22.6279L22.1418 34.6011ZM44.8515 32.9782C44.8146 28.0014 41.3123 23.7098 36.3353 22.6279C37.6257 21.3656 38.8791 20.0673 40.1694 18.8051C40.575 19.1657 40.9805 19.5263 41.386 19.8509C41.681 19.9952 41.9759 20.1394 42.2708 20.2476C43.1187 20.7886 47.6902 23.7458 49.0542 29.6964C49.9022 33.4471 49.3123 37.5584 47.0266 41.0566C46.1418 42.427 44.9989 43.6532 43.7086 44.6991C43.3031 44.0499 42.8238 43.4007 42.3077 42.8237C42.1971 42.6795 40.7962 41.2008 40.6487 41.309C43.3031 39.3616 44.8515 36.2601 44.8515 32.9782ZM9.2017 41.4533H25.2386C24.4644 42.0303 23.8008 42.7155 23.2109 43.4729H9.2017V41.4533ZM21.9943 50.9381C21.9943 47.4399 23.8008 44.086 26.7132 42.0664C29.9206 39.8665 34.1234 39.5058 37.6994 41.1287C42.234 43.1844 44.0404 47.7645 44.0773 50.9021C44.0773 51.0463 44.0773 51.1906 44.0773 51.2627H38.1418C37.7731 48.4137 35.0819 46.3941 32.1694 46.7547C29.7731 47.0432 27.8929 48.9185 27.5611 51.2627H21.9943C21.9943 51.1906 21.9943 51.0824 21.9943 50.9381ZM36.7777 51.984C36.7777 54.1118 35.0082 55.8428 32.833 55.8428C30.6579 55.8428 28.8883 54.1118 28.8883 51.984C28.8883 49.8562 30.6579 48.1251 32.833 48.1251C35.0082 48.1251 36.7777 49.8562 36.7777 51.984ZM12.1141 59.6656C12.4828 55.6986 15.8745 52.6692 19.9298 52.7053H27.5611C27.9298 55.5543 30.6211 57.5739 33.5335 57.1772C35.9298 56.8526 37.81 55.0134 38.1049 52.7053H46.5842C50.6395 52.7053 54.0312 55.7347 54.3999 59.6656H12.1141Z" fill="#B00C2F"/>
</g>
</svg>
