<svg width="65" height="64" viewBox="0 0 65 64" fill="none" xmlns="http://www.w3.org/2000/svg">
<g id="Frame">
<path id="Vector" d="M52.6289 19.4449C55.7848 19.7731 58.9742 19.3894 61.9622 18.3223" stroke="#B00C2F" stroke-width="2" stroke-miterlimit="10" stroke-linecap="round"/>
<path id="Vector_2" d="M18.6457 61.6823C20.4715 56.6296 20.3114 51.0722 18.1977 46.133C16.5617 42.1791 16.1355 37.8288 16.9728 33.6325C17.8102 29.4363 19.8735 25.5828 22.9017 22.5596C25.2145 20.2582 28.0131 18.5036 31.0921 17.4243C34.1712 16.345 37.4528 15.9685 40.6963 16.3223" stroke="#B00C2F" stroke-width="2" stroke-miterlimit="10" stroke-linecap="round"/>
<path id="Vector_3" d="M24.6992 47.7324C27.8299 47.967 30.9743 47.5251 33.9191 46.4369C36.8639 45.3488 39.54 43.6397 41.7659 41.4257C44.794 38.4008 46.857 34.5458 47.6938 30.3483C48.5306 26.1507 48.1038 21.7993 46.4672 17.8444C44.3557 12.9126 44.1928 7.36362 46.0112 2.31641" stroke="#B00C2F" stroke-width="2" stroke-miterlimit="10" stroke-linecap="round"/>
<path id="Vector_4" d="M2.6875 45.6567C5.86893 44.5141 9.2774 44.1484 12.6288 44.5901" stroke="#B00C2F" stroke-width="2" stroke-miterlimit="10" stroke-linecap="round"/>
<path id="Vector_5" d="M33.9453 16.6348L47.684 30.3734" stroke="#B00C2F" stroke-width="2" stroke-miterlimit="10" stroke-linecap="round"/>
<path id="Vector_6" d="M45.1875 5.24805L59.0728 19.1307" stroke="#B00C2F" stroke-width="2" stroke-miterlimit="10" stroke-linecap="round"/>
<path id="Vector_7" d="M5.58984 44.8457L19.4752 58.731" stroke="#B00C2F" stroke-width="2" stroke-miterlimit="10" stroke-linecap="round"/>
<path id="Vector_8" d="M26 20L44.3253 38.3227" stroke="#B00C2F" stroke-width="2" stroke-miterlimit="10" stroke-linecap="round"/>
<path id="Vector_9" d="M16.9766 33.6035L30.7152 47.3448" stroke="#B00C2F" stroke-width="2" stroke-miterlimit="10" stroke-linecap="round"/>
<path id="Vector_10" d="M20.3398 25.6562L38.6652 43.9789" stroke="#B00C2F" stroke-width="2" stroke-miterlimit="10" stroke-linecap="round"/>
</g>
</svg>
