<svg width="64" height="64" viewBox="0 0 64 64" fill="none" xmlns="http://www.w3.org/2000/svg">
<path d="M13.451 1.13681C13.0635 1.43681 13.001 2.09931 13.351 2.41181C13.526 2.57431 24.6135 6.97431 43.251 14.2993C45.276 15.0993 47.251 15.8993 47.626 16.0743C49.7385 17.0743 51.1885 18.7118 51.9635 20.9868C52.576 22.7618 52.601 22.5368 49.701 43.6118C47.6385 58.6243 47.126 62.5993 47.2385 62.8368C47.5385 63.4993 48.601 63.4618 48.851 62.7743C48.926 62.5868 50.1385 53.9118 51.551 43.4993C53.4885 29.2618 54.126 24.2493 54.126 23.2993C54.126 19.6243 52.001 16.1993 48.6885 14.5368C47.901 14.1368 14.201 0.87431 13.976 0.87431C13.876 0.87431 13.6385 0.986809 13.451 1.13681Z" fill="#B00C2F"/>
<path d="M8.85 7.7491C8.675 7.8866 8.5 8.0991 8.475 8.2241C8.4125 8.4491 8.6625 9.2491 8.8 9.2491C8.825 9.2491 14.6375 11.2991 21.7125 13.7991C28.775 16.2991 34.9625 18.4741 35.4375 18.6241C36.7375 19.0241 38.7375 19.0991 40.1875 18.7866C41.4625 18.5116 41.9125 18.5741 42.3625 19.0491C42.7 19.4116 42.825 20.1991 42.6 20.6241C42.3125 21.1741 41.6625 21.4991 40.8875 21.4991C39.9875 21.4991 39.0375 21.9366 38.5625 22.5616C38.35 22.8366 38.0875 23.4491 37.9125 24.0991C37.625 25.2116 37.4125 25.4991 36.925 25.4991C36.4 25.4991 36.25 25.3491 35.4375 23.9991C34.5875 22.5866 34.1625 22.1241 33.3125 21.7366C32.5875 21.3866 8.7125 13.9991 8.3375 13.9991C7.975 13.9991 7.5 14.5116 7.5 14.8991C7.5 15.4741 7.725 15.6116 9.9125 16.2991C11.0875 16.6741 16.65 18.3991 22.2375 20.1491C27.8375 21.8866 32.5875 23.4241 32.8 23.5616C33 23.6991 33.5 24.3491 33.9 24.9991C34.775 26.4241 35.1375 26.8366 35.8125 27.1366C36.875 27.6241 38.1 27.3241 38.9 26.3741C39.25 25.9741 39.4125 25.6116 39.5875 24.8991C39.8875 23.5866 40.0625 23.4116 41.1 23.3116C42.7125 23.1616 43.6125 22.6241 44.2125 21.4491C45.025 19.8741 44.35 17.8866 42.725 17.0491C42.125 16.7366 41.1625 16.6991 40.075 16.9366C39.3375 17.0991 38.75 17.1366 37.7125 17.0991L36.3125 17.0366L31.3125 15.2616C20.225 11.3241 9.375 7.4991 9.275 7.4991C9.2125 7.4991 9.0125 7.6116 8.85 7.7491Z" fill="#B00C2F"/>
<path d="M46.0875 21.8737C45.825 21.9237 45.475 22.0362 45.2875 22.1362C45.1125 22.2362 44.125 23.4362 43.1 24.7987C41.625 26.7862 41.25 27.3612 41.25 27.6862C41.25 28.2862 41.8625 28.7237 42.4125 28.5112C42.575 28.4487 43.4875 27.3487 44.4875 26.0112C45.475 24.6987 46.3375 23.6237 46.425 23.6237C46.7125 23.6237 46.85 23.8237 47.05 24.4862C47.3 25.3487 47.525 27.1487 47.425 27.5487C47.325 27.9612 47.2 27.9862 46.1875 27.8737C45.175 27.7612 44.775 27.8987 44.525 28.3987C44.3375 28.7862 44.4875 29.2862 44.85 29.4862C45.175 29.6612 46.9875 29.7987 47.55 29.6987C48.1 29.5987 48.85 28.9612 49.075 28.4112C49.4 27.6487 49.2625 25.5612 48.8 23.9112C48.3625 22.4112 47.375 21.6612 46.0875 21.8737Z" fill="#B00C2F"/>
<path d="M5.425 24.2242C5.2375 24.3367 5 24.8117 5 25.0367C5 25.6242 6.15 26.1367 10.25 27.3867C17.2125 29.5117 24.0375 30.8617 30.375 31.3867C31.375 31.4617 32.2 31.5492 32.225 31.5617C32.2375 31.5742 31.975 32.1742 31.6375 32.8867C29.8125 36.7242 28.9 41.1367 29.2375 44.5242C29.4125 46.3242 29.6125 47.1492 30.4875 49.6742C31.2 51.7492 31.75 53.7617 32.0875 55.5242C32.3875 57.1867 32.4 60.7867 32.0875 61.7742C31.8375 62.6117 31.95 63.0242 32.5125 63.2492C33.075 63.4867 33.5125 63.1992 33.775 62.4117C34.325 60.7742 34.35 58.1242 33.875 55.2742C33.525 53.2742 33.125 51.7617 32.1375 48.7992C31.55 47.0617 31.2125 45.8117 31.1125 45.0617C30.9375 43.6742 31.025 41.0742 31.3125 39.6367C31.7875 37.2117 33.0125 33.8867 34.1875 31.8492C34.825 30.7492 34.8625 30.4867 34.4625 30.0742C34.2 29.8117 34.0125 29.7742 32.55 29.6992C25.0125 29.2867 16.2 27.5117 8.275 24.8242C6.3125 24.1492 5.7125 24.0242 5.425 24.2242Z" fill="#B00C2F"/>
<path d="M38.1242 30.8243C37.0992 31.2743 36.4492 32.2743 36.4492 33.4368C36.4492 34.3743 36.6367 34.7618 37.7742 36.1868L38.6742 37.2993L37.7117 49.9868C36.8617 61.2243 36.7742 62.6993 36.9242 62.9368C37.3242 63.5493 38.3367 63.3868 38.5242 62.6868C38.6242 62.3368 40.4992 37.8868 40.4992 37.0493C40.4992 36.7368 40.2492 36.3493 39.3742 35.2493C38.1492 33.7243 37.9992 33.3118 38.4992 32.7743C38.9117 32.3368 39.2617 32.3243 40.1367 32.6993C41.2617 33.1743 42.8367 33.2493 44.0992 32.8993C44.7867 32.6993 45.0992 32.6743 45.4242 32.7618C46.2742 32.9993 46.8242 34.0868 46.4992 34.8868C46.2867 35.3993 45.8742 35.6868 44.8992 36.0118C43.8117 36.3618 43.4242 36.5618 43.3242 36.8243C43.1992 37.1368 41.2367 61.6118 41.2742 62.2993C41.2992 62.7993 41.3742 62.9618 41.6492 63.1618C42.0492 63.4618 42.5367 63.3743 42.8117 62.9618C42.9492 62.7368 43.2367 59.7743 43.9992 50.3118C44.5492 43.5118 45.0242 37.9368 45.0367 37.9243C45.0492 37.9118 45.3492 37.8118 45.6992 37.6993C47.4742 37.1243 48.3867 35.9618 48.3867 34.3118C48.3867 32.9368 47.7367 31.8868 46.4742 31.2618C45.5492 30.7993 44.9492 30.7743 43.5492 31.1368C42.4117 31.4243 41.8242 31.3868 40.6992 30.9243C39.8367 30.5743 38.7867 30.5368 38.1242 30.8243Z" fill="#B00C2F"/>
</svg>
