<svg width="345" height="28" viewBox="0 0 345 28" fill="none" xmlns="http://www.w3.org/2000/svg">
<path d="M174.711 6.87674V27.8838H177.704V20.4886C178.654 22.1385 180.237 23.1108 182.54 23.1108C186.138 23.1108 189.217 20.0172 189.217 14.8317C189.217 9.64626 186.138 6.58212 182.54 6.58212C180.237 6.58212 178.654 7.55439 177.704 9.20431V6.87674H174.711ZM177.589 14.8317C177.589 10.9132 179.546 9.14539 181.849 9.14539C184.353 9.14539 186.023 11.2667 186.023 14.8317C186.023 18.3967 184.353 20.5475 181.849 20.5475C179.546 20.5475 177.589 18.7503 177.589 14.8317Z" fill="#E50071"/>
<path d="M198.953 20.4886C196.506 20.4886 194.75 18.6914 194.434 15.7451H206.235C206.551 10.5891 203.759 6.58212 198.981 6.58212C194.578 6.58212 191.354 9.8525 191.354 14.7728C191.354 19.369 194.088 23.1108 199.068 23.1108C202.982 23.1108 205.342 20.6948 206.033 18.0726H203.011C202.349 19.5752 201.14 20.4886 198.953 20.4886ZM198.953 9.08646C201.399 9.08646 203.04 11.0015 203.126 13.3291H194.491C194.923 10.2944 196.621 9.08646 198.953 9.08646Z" fill="#E50071"/>
<path d="M217.231 6.84728C216.972 6.81782 216.655 6.81782 216.396 6.81782C214.439 6.84728 212.913 7.87848 212.107 9.67572V6.87674H209.171V22.7278H212.165V14.4192C212.165 11.0899 213.374 9.94088 215.676 9.94088C216.166 9.94088 216.684 9.97035 217.231 10.0293V6.84728Z" fill="#E50071"/>
<path d="M220.146 6.87674H217.988V9.20431H220.146V22.7278H223.14V9.20431H226.133V6.87674H223.14V5.78662C223.14 4.1367 223.456 3.81261 224.982 3.81261H226.133V1.36719H224.78C221.183 1.36719 220.146 2.31 220.146 5.81608V6.87674Z" fill="#E50071"/>
<path d="M230.612 14.8612C230.612 10.8542 232.713 9.17485 234.958 9.17485C237.26 9.17485 239.333 10.9426 239.333 14.8612C239.333 18.7208 237.26 20.5181 234.958 20.5181C232.713 20.5181 230.612 18.7503 230.612 14.8612ZM234.958 6.58212C231.302 6.58212 227.445 9.11592 227.445 14.8612C227.445 20.577 231.302 23.1108 234.958 23.1108C238.642 23.1108 242.499 20.577 242.499 14.8612C242.499 9.11592 238.642 6.58212 234.958 6.58212Z" fill="#E50071"/>
<path d="M253.546 6.84728C253.287 6.81782 252.971 6.81782 252.711 6.81782C250.754 6.84728 249.229 7.87848 248.423 9.67572V6.87674H245.487V22.7278H248.48V14.4192C248.48 11.0899 249.689 9.94088 251.992 9.94088C252.481 9.94088 252.999 9.97035 253.546 10.0293V6.84728Z" fill="#E50071"/>
<path d="M258.909 14.213C258.909 11.031 260.06 9.14539 262.478 9.14539C265.154 9.14539 265.529 11.2962 265.529 13.5648V22.7278H268.522V14.213C268.522 11.031 269.702 9.14539 272.091 9.14539C274.768 9.14539 275.142 11.2962 275.142 13.5648V22.7278H278.135V12.7399C278.135 9.057 276.725 6.58212 273.098 6.58212C271.055 6.58212 269.27 7.37761 267.975 9.38109C267.284 7.61332 265.903 6.58212 263.485 6.58212C261.269 6.58212 259.801 7.61332 258.909 9.17485V6.87674H255.915V22.7278H258.909V14.213Z" fill="#E50071"/>
<path d="M291.586 16.3343C291.586 19.4869 289.629 20.7538 287.182 20.7538C285.34 20.7538 284.246 19.8404 284.246 18.3967C284.246 16.3638 286.779 15.6567 291.586 15.1853V16.3343ZM286.52 23.1108C289.053 23.1108 290.78 22.2564 291.701 20.6359C291.787 21.6671 291.845 22.1091 291.96 22.7278H294.838C294.551 21.3136 294.407 19.3985 294.407 17.012C294.407 16.3343 294.464 13.5943 294.464 13.2113C294.493 8.46774 292.219 6.49373 288.218 6.49373C284.678 6.49373 281.944 8.4972 281.714 11.8854H284.736C284.851 9.91142 286.031 8.85076 288.103 8.85076C290.003 8.85076 291.442 9.79357 291.442 12.5925V12.9166C285.455 13.5354 280.994 14.596 280.994 18.4557C280.994 21.343 283.383 23.1108 286.52 23.1108Z" fill="#E50071"/>
<path d="M301.155 6.87674H298.162V22.7278H301.155V14.213C301.155 11.031 302.393 9.14539 305.012 9.14539C307.861 9.14539 308.207 11.2962 308.207 13.5648V22.7278H311.2V12.7399C311.2 9.057 309.761 6.58212 306.019 6.58212C303.601 6.58212 302.047 7.61332 301.155 9.17485V6.87674Z" fill="#E50071"/>
<path d="M321.361 6.58212C316.784 6.58212 313.877 10.1471 313.877 14.8317C313.877 19.6342 316.669 23.1108 321.159 23.1108C324.584 23.1108 327.578 20.7832 328.211 17.4539H325.189C324.757 19.3395 323.145 20.4886 321.217 20.4886C319.058 20.4886 317.072 18.7208 317.072 14.8023C317.072 10.9426 319.058 9.20431 321.217 9.20431C323.174 9.20431 324.757 10.4418 325.074 12.239H328.067C327.606 9.14539 324.901 6.58212 321.361 6.58212Z" fill="#E50071"/>
<path d="M337.694 20.4886C335.248 20.4886 333.492 18.6914 333.175 15.7451H344.976C345.293 10.5891 342.501 6.58212 337.723 6.58212C333.319 6.58212 330.095 9.8525 330.095 14.7728C330.095 19.369 332.83 23.1108 337.809 23.1108C341.724 23.1108 344.084 20.6948 344.775 18.0726H341.752C341.09 19.5752 339.882 20.4886 337.694 20.4886ZM337.694 9.08646C340.141 9.08646 341.781 11.0015 341.868 13.3291H333.233C333.664 10.2944 335.363 9.08646 337.694 9.08646Z" fill="#E50071"/>
<path d="M123.283 7.09861H115.192V3.94367H125.787C125.98 3.94367 126.365 3.74649 126.365 3.35212V0H110.762V19.324H113.459L115.192 17.5493V11.2395H122.32V18.5352H116.348L114.614 20.3099V22.8733H122.512C125.787 22.8733 127.906 20.7043 127.906 14.7888C127.713 9.66199 125.594 7.09861 123.283 7.09861Z" fill="#2C3136"/>
<path d="M171.442 0H174.331L165.663 22.6761H162.773L171.442 0Z" fill="#E50071"/>
<path d="M110.184 20.9023H107.68V26.2263H112.881V22.8742V20.9023H110.184Z" fill="#E50071"/>
<path d="M0 22.8743H4.62315V11.2405H9.63156V22.8743H14.2547V7.09961H0V22.8743Z" fill="#2C3136"/>
<path d="M24.4628 6.70312C20.0323 6.70312 16.1797 9.85806 16.1797 14.9848C16.1797 20.1116 19.647 23.2665 24.6554 23.2665C27.7375 23.2665 31.0123 21.6891 32.3607 17.9426H28.1228C27.5449 18.9285 26.3891 19.5201 24.6554 19.5201C22.9218 19.5201 21.1881 18.5341 21.1881 16.1679H32.5533C32.5533 10.6468 29.4712 6.70312 24.4628 6.70312ZM24.4628 10.4496C26.0039 10.4496 27.3523 11.2383 27.5449 12.8158H20.9955C21.5733 11.2383 22.9218 10.4496 24.4628 10.4496Z" fill="#2C3136"/>
<path d="M43.728 6.70508C41.9943 6.70508 40.068 7.49381 39.1048 9.26846V7.09945H34.2891V28.0009H38.9122V20.7051C39.8754 22.4798 41.9943 23.2685 43.5353 23.2685C47.388 23.2685 50.2774 20.1136 50.2774 14.9868C50.4701 9.86001 47.5806 6.70508 43.728 6.70508ZM42.1869 19.522C40.2606 19.522 38.7196 18.3389 38.7196 14.9868C38.7196 11.8318 40.2606 10.4516 42.1869 10.4516C44.1132 10.4516 45.6543 12.029 45.6543 14.9868C45.6543 17.9445 44.1132 19.522 42.1869 19.522Z" fill="#2C3136"/>
<path d="M64.9167 14.3934C66.0725 13.8019 66.6504 12.6188 66.6504 11.2385C66.6504 7.88639 64.1462 7.09766 60.6789 7.09766H52.2031V22.8723H60.8715C64.5315 22.8723 67.0357 21.4921 67.0357 17.9427C67.2283 15.9709 66.2652 14.7878 64.9167 14.3934ZM57.0189 10.2526H60.101C61.4494 10.2526 62.0273 10.8441 62.0273 11.8301C62.0273 12.816 61.2568 13.4075 60.101 13.4075H57.0189V10.2526ZM60.2936 19.5202H57.0189V15.9709H60.2936C61.8347 15.9709 62.6052 16.5625 62.6052 17.7456C62.6052 18.9287 61.8347 19.5202 60.2936 19.5202Z" fill="#2C3136"/>
<path d="M76.091 12.0272H73.972V7.09766H69.1562V22.8723H76.2836C80.5215 22.8723 82.4478 21.4921 82.4478 17.3512C82.4478 13.6047 80.5215 12.0272 76.091 12.0272ZM75.8983 19.5202H73.972V15.1822H75.8983C77.4394 15.1822 78.2099 15.7737 78.2099 17.154C78.2099 18.9287 77.4394 19.5202 75.8983 19.5202Z" fill="#2C3136"/>
<path d="M88.4173 7.09766H83.6016V22.8723H88.4173V7.09766Z" fill="#2C3136"/>
<path d="M101.518 7.09766L95.3536 16.3653V7.09766H90.7305V22.8723H95.161L101.518 13.6047V22.8723H106.141V7.09766H101.518Z" fill="#2C3136"/>
<path d="M134.072 16.3653V7.09766H129.449V22.8723H133.88L140.044 13.6047V22.8723H144.667V7.09766H140.237L134.072 16.3653Z" fill="#2C3136"/>
<path d="M146.781 7.09766V11.0413H151.79V22.6752H156.605V11.0413H161.421V7.09766H146.781Z" fill="#2C3136"/>
<path d="M101.516 1.97183H95.3513C94.9661 1.97183 94.7734 1.77465 94.7734 1.38028V0H101.901V1.38028C101.901 1.77465 101.708 1.97183 101.516 1.97183Z" fill="#2C3136"/>
</svg>
