<svg width="27" height="26" viewBox="0 0 27 26" fill="none" xmlns="http://www.w3.org/2000/svg">
<path fill-rule="evenodd" clip-rule="evenodd" d="M6.9987 6.16602C6.21629 6.16602 5.58203 6.80028 5.58203 7.58268V20.5827C5.58203 21.3651 6.21629 21.9993 6.9987 21.9993H19.9987C20.7811 21.9993 21.4154 21.3651 21.4154 20.5827V7.58268C21.4154 6.80028 20.7811 6.16602 19.9987 6.16602H6.9987ZM4.08203 7.58268C4.08203 5.97185 5.38787 4.66602 6.9987 4.66602H19.9987C21.6095 4.66602 22.9154 5.97185 22.9154 7.58268V20.5827C22.9154 22.1935 21.6095 23.4993 19.9987 23.4993H6.9987C5.38787 23.4993 4.08203 22.1935 4.08203 20.5827V7.58268Z" fill="white"/>
<path fill-rule="evenodd" clip-rule="evenodd" d="M17.832 2.5C18.2462 2.5 18.582 2.83579 18.582 3.25V7.58333C18.582 7.99755 18.2462 8.33333 17.832 8.33333C17.4178 8.33333 17.082 7.99755 17.082 7.58333V3.25C17.082 2.83579 17.4178 2.5 17.832 2.5Z" fill="white"/>
<path fill-rule="evenodd" clip-rule="evenodd" d="M9.16797 2.5C9.58218 2.5 9.91797 2.83579 9.91797 3.25V7.58333C9.91797 7.99755 9.58218 8.33333 9.16797 8.33333C8.75376 8.33333 8.41797 7.99755 8.41797 7.58333V3.25C8.41797 2.83579 8.75376 2.5 9.16797 2.5Z" fill="white"/>
<path fill-rule="evenodd" clip-rule="evenodd" d="M4.08203 11.916C4.08203 11.5018 4.41782 11.166 4.83203 11.166H22.1654C22.5796 11.166 22.9154 11.5018 22.9154 11.916C22.9154 12.3302 22.5796 12.666 22.1654 12.666H4.83203C4.41782 12.666 4.08203 12.3302 4.08203 11.916Z" fill="white"/>
<path fill-rule="evenodd" clip-rule="evenodd" d="M10.582 17.334C10.582 16.9198 10.9178 16.584 11.332 16.584H15.6654C16.0796 16.584 16.4154 16.9198 16.4154 17.334C16.4154 17.7482 16.0796 18.084 15.6654 18.084H11.332C10.9178 18.084 10.582 17.7482 10.582 17.334Z" fill="white"/>
<path fill-rule="evenodd" clip-rule="evenodd" d="M13.5 14.416C13.9142 14.416 14.25 14.7518 14.25 15.166V19.4993C14.25 19.9136 13.9142 20.2493 13.5 20.2493C13.0858 20.2493 12.75 19.9136 12.75 19.4993V15.166C12.75 14.7518 13.0858 14.416 13.5 14.416Z" fill="white"/>
</svg>
