<svg width="18" height="18" viewBox="0 0 18 18" fill="none" xmlns="http://www.w3.org/2000/svg">
<g id="phone-call">
<path id="Vector" d="M16.9995 12.7304V14.9885C17.0004 15.1981 16.9545 15.4056 16.8648 15.5977C16.775 15.7898 16.6434 15.9622 16.4783 16.1039C16.3132 16.2456 16.1183 16.3535 15.906 16.4207C15.6938 16.4878 15.4689 16.5128 15.2457 16.4939C12.7702 16.2422 10.3923 15.4508 8.30312 14.1831C6.35937 13.0274 4.71141 11.4855 3.47627 9.66689C2.11669 7.70324 1.27059 5.46756 1.00653 3.14096C0.986426 2.93282 1.01286 2.72303 1.08416 2.52497C1.15546 2.32691 1.27005 2.1449 1.42065 1.99055C1.57124 1.83619 1.75454 1.71287 1.95886 1.62843C2.16319 1.54398 2.38407 1.50027 2.60744 1.50007H5.02086C5.41128 1.49648 5.78977 1.62583 6.0858 1.86403C6.38182 2.10222 6.57517 2.43301 6.62981 2.79472C6.73168 3.51736 6.92059 4.22691 7.19295 4.90981C7.30118 5.17922 7.32461 5.47202 7.26045 5.7535C7.19629 6.03498 7.04723 6.29336 6.83093 6.49801L5.80925 7.45394C6.95446 9.33837 8.62206 10.8986 10.6361 11.9702L11.6578 11.0142C11.8765 10.8118 12.1527 10.6724 12.4535 10.6123C12.7544 10.5523 13.0673 10.5742 13.3552 10.6755C14.0851 10.9303 14.8435 11.1071 15.6158 11.2024C16.0066 11.254 16.3635 11.4381 16.6186 11.7199C16.8737 12.0016 17.0093 12.3612 16.9995 12.7304Z" stroke="#B00C2F" stroke-linecap="round" stroke-linejoin="round"/>
</g>
</svg>
