<svg width="260" height="412" viewBox="0 0 260 412" fill="none" xmlns="http://www.w3.org/2000/svg">
<path d="M161.799 224.862H116.943V205.68C116.948 202.411 117.839 199.205 119.52 196.403C121.194 193.613 123.189 191.03 125.463 188.704C127.767 186.336 130.295 183.985 132.808 181.714C135.246 179.562 137.574 177.288 139.782 174.901C141.773 172.768 143.503 170.405 144.936 167.863C146.174 165.644 146.807 163.139 146.772 160.599C146.774 158.851 146.485 157.115 145.918 155.461C145.401 153.927 144.579 152.514 143.502 151.306C142.411 150.102 141.092 149.128 139.621 148.439C137.997 147.688 136.223 147.319 134.434 147.36C132.279 147.254 130.133 147.703 128.201 148.665C126.748 149.473 125.527 150.644 124.658 152.063C123.733 153.657 123.115 155.411 122.838 157.233C122.495 159.423 122.323 161.636 122.323 163.852V166.929C122.324 167.829 122.388 168.728 122.516 169.618L122.967 172.84H74.9229L74.6813 170.311C74.5203 168.829 74.3753 167.396 74.2304 166.011C74.0662 164.481 73.9855 162.943 73.9888 161.404C73.8854 153.935 75.6105 146.553 79.0138 139.903C82.381 133.539 87.1104 127.995 92.865 123.668C99.1116 119.068 106.148 115.651 113.626 113.586C121.127 111.445 128.874 110.286 136.673 110.139V-97H142.278V115.599H139.476C131.274 115.525 123.103 116.61 115.204 118.82C108.392 120.735 101.985 123.873 96.2956 128.081C91.1869 131.908 86.99 136.82 84.0067 142.464C81.0333 148.312 79.5296 154.796 79.6259 161.356C79.6204 162.696 79.6903 164.035 79.8352 165.366L80.0285 167.186H116.75V163.82C116.745 161.301 116.945 158.786 117.346 156.299C117.731 153.767 118.6 151.334 119.907 149.132C121.265 146.904 123.173 145.063 125.447 143.784C128.22 142.316 131.331 141.605 134.467 141.723C137.09 141.679 139.689 142.23 142.069 143.333C144.21 144.335 146.126 145.758 147.704 147.519C149.281 149.279 150.487 151.339 151.249 153.577C152.022 155.82 152.414 158.178 152.409 160.551C152.438 164.048 151.561 167.494 149.864 170.553C148.208 173.462 146.213 176.165 143.921 178.606C141.587 181.135 139.125 183.543 136.544 185.821C134.08 187.995 131.713 190.234 129.522 192.505C127.555 194.517 125.825 196.749 124.368 199.157C123.191 201.099 122.572 203.328 122.581 205.599V219.177H156.226V212.219C156.288 210.715 156.651 209.24 157.293 207.879C157.935 206.518 158.842 205.299 159.962 204.295C162.336 201.958 164.882 199.804 167.581 197.852C170.48 195.726 173.604 193.407 176.954 190.862C180.228 188.385 183.254 185.596 185.99 182.535C188.747 179.452 191.052 175.992 192.835 172.26C194.662 168.283 195.565 163.944 195.476 159.568C195.56 153.308 194.199 147.113 191.498 141.465C188.84 136.057 184.984 131.325 180.224 127.63C174.933 123.559 168.923 120.521 162.507 118.675L164.118 113.328C171.168 115.39 177.772 118.749 183.59 123.233C188.985 127.456 193.352 132.847 196.362 139.001C199.488 145.447 201.071 152.533 200.984 159.697C201.062 164.916 199.961 170.086 197.763 174.821C195.743 179.03 193.141 182.934 190.032 186.417C187.057 189.744 183.767 192.775 180.208 195.469C176.836 198.013 173.685 200.359 170.753 202.507C168.288 204.269 165.962 206.219 163.796 208.337C163.203 208.827 162.713 209.43 162.354 210.11C161.995 210.79 161.773 211.534 161.702 212.299L161.799 224.862Z" fill="white"/>
<path d="M142.276 498.004H136.671V276.353H117.07V233.721H162.344V273.551H156.739V239.309H122.659V270.764H142.276V498.004Z" fill="white"/>
<path d="M42.5383 321.196V313.014C42.5299 311.849 42.8479 310.706 43.4564 309.712C44.1879 308.481 45.0698 307.344 46.0817 306.33C47.1769 305.171 48.3848 304.043 49.625 302.948C50.8652 301.853 52.1858 300.564 53.3455 299.308C54.5021 298.077 55.5028 296.709 56.3251 295.233C57.1704 293.706 57.6085 291.986 57.5975 290.24C57.6002 289.056 57.4042 287.88 57.0176 286.761C56.6397 285.65 56.0428 284.626 55.2621 283.75C54.4699 282.873 53.512 282.161 52.4435 281.656C51.2584 281.107 49.9647 280.831 48.6586 280.851C47.0958 280.788 45.5446 281.144 44.1651 281.881C43.0287 282.514 42.0746 283.43 41.3948 284.539C40.75 285.64 40.3183 286.853 40.1225 288.114C39.9281 289.361 39.8311 290.621 39.8326 291.883V293.703H21.053C21.053 293.365 21.053 293.027 20.9402 292.688C20.9402 292.044 20.8436 291.352 20.8436 290.643C20.7793 287.288 21.5427 283.969 23.0662 280.979C24.5857 278.121 26.7133 275.631 29.2992 273.683C32.2054 271.541 35.4812 269.952 38.9628 268.997C42.9618 267.879 47.0997 267.336 51.2517 267.386C55.2126 267.345 59.158 267.888 62.9607 268.997C66.2072 269.959 69.2446 271.522 71.9157 273.603C74.3183 275.487 76.2668 277.887 77.6172 280.625C78.9831 283.496 79.6718 286.642 79.6304 289.822C79.6711 292.042 79.2143 294.243 78.2937 296.264C77.389 298.161 76.2175 299.918 74.8148 301.482C73.4298 303.033 71.898 304.446 70.2407 305.702C68.5495 306.991 67.0195 308.166 65.4089 309.229C64.0524 310.206 62.7711 311.282 61.5756 312.45C61.02 312.945 60.5696 313.547 60.2514 314.219C59.9332 314.891 59.7536 315.621 59.7234 316.364V321.196H42.5383Z" fill="white"/>
<path d="M60.0287 329.875H42.5859V345.997H60.0287V329.875Z" fill="white"/>
<path d="M219.995 80.6058V72.4239C220.012 71.288 220.328 70.1768 220.913 69.2027C221.648 67.9434 222.529 66.7756 223.538 65.7238C224.65 64.5803 225.842 63.4368 227.098 62.3416C228.396 61.194 229.632 59.979 230.802 58.7016C231.96 57.4736 232.966 56.1109 233.798 54.6429C234.638 53.1138 235.07 51.3945 235.054 49.6501C235.057 48.4609 234.861 47.2797 234.474 46.1551C234.091 45.0558 233.495 44.0432 232.719 43.1755C231.929 42.3071 230.977 41.6014 229.916 41.0978C228.729 40.5374 227.428 40.2564 226.115 40.2764C224.553 40.2219 223.004 40.5773 221.622 41.3072C220.492 41.9362 219.543 42.846 218.868 43.9486C218.218 45.0478 217.786 46.2617 217.595 47.5241C217.388 48.7749 217.285 50.041 217.289 51.309V53.129H198.526C198.526 52.7746 198.445 52.4364 198.413 52.0982C198.413 51.4539 198.3 50.7614 198.3 50.0527C198.238 46.6962 199.007 43.3765 200.539 40.3891C202.053 37.5223 204.181 35.0254 206.772 33.077C209.687 30.949 212.96 29.3615 216.436 28.3902C220.442 27.28 224.584 26.7378 228.741 26.7796C232.701 26.7411 236.646 27.2837 240.45 28.3902C243.685 29.3365 246.716 30.8767 249.389 32.9321C251.773 34.818 253.7 37.2185 255.026 39.9543C256.397 42.824 257.091 45.9704 257.055 49.1508C257.098 51.373 256.635 53.5759 255.702 55.5932C254.802 57.5169 253.631 59.3015 252.223 60.8921C250.838 62.443 249.306 63.8562 247.649 65.1118L242.914 68.639C241.561 69.6204 240.28 70.6968 239.081 71.8602C238.526 72.359 238.076 72.9636 237.758 73.6384C237.44 74.3132 237.26 75.0447 237.228 75.7901V80.6219L219.995 80.6058Z" fill="white"/>
<path d="M237.501 89.2852H220.059V105.407H237.501V89.2852Z" fill="white"/>
<path d="M69.8738 76.4112V71.9338C69.8715 71.298 70.0442 70.6739 70.373 70.1299C70.7758 69.4579 71.257 68.8361 71.8065 68.2777C72.4185 67.6496 73.0789 67.0214 73.7553 66.4255C74.4318 65.8296 75.1565 65.1209 75.8008 64.4284C76.4152 63.747 76.9552 63.0019 77.4114 62.2058C77.8749 61.3682 78.1135 60.4249 78.1039 59.4677C78.1085 58.8163 78.0051 58.1687 77.7979 57.5511C77.5785 56.959 77.2508 56.4128 76.8316 55.9405C76.3768 55.4552 75.8291 55.0663 75.221 54.797C74.5734 54.4856 73.8616 54.3311 73.1433 54.346C72.2868 54.3165 71.4375 54.5108 70.6791 54.9097C70.0564 55.2595 69.5349 55.7644 69.1651 56.3754C68.8107 56.9743 68.5756 57.636 68.4726 58.3242C68.3617 59.0111 68.3078 59.7061 68.3115 60.4019V61.4005H58.1164V60.8367C58.0914 60.4614 58.0914 60.0847 58.1164 59.7093C58.0859 57.8851 58.5064 56.0815 59.3405 54.4588C60.1627 52.8868 61.33 51.5213 62.7549 50.4645C64.3395 49.293 66.1242 48.4198 68.0216 47.8875C70.2117 47.2699 72.4784 46.9662 74.7539 46.9856C76.9332 46.9627 79.104 47.2612 81.1963 47.8714C82.9275 48.4026 84.5481 49.2429 85.9797 50.3517C87.294 51.3871 88.3613 52.702 89.1043 54.2011C89.8459 55.777 90.2204 57.5007 90.1995 59.2422C90.2247 60.4626 89.9771 61.6731 89.4747 62.7856C88.9781 63.8116 88.3442 64.7652 87.5903 65.6202C86.8339 66.4661 85.9979 67.2374 85.0939 67.9234C84.1598 68.632 83.2901 69.2763 82.4848 69.8561C81.7458 70.3963 81.0461 70.9884 80.391 71.6277C80.0843 71.8964 79.836 72.2251 79.6615 72.5936C79.4869 72.962 79.3899 73.3624 79.3763 73.7698V76.4112H69.8738Z" fill="white"/>
<path d="M79.4888 81.4629H69.9219V90.289H79.4888V81.4629Z" fill="white"/>
<path d="M199.64 354.954V344.42C199.639 342.923 200.045 341.453 200.815 340.168C201.769 338.591 202.904 337.132 204.198 335.82C205.615 334.354 207.161 332.888 208.756 331.471C210.35 330.054 212.057 328.395 213.588 326.8C215.074 325.208 216.366 323.446 217.437 321.55C218.523 319.578 219.078 317.358 219.047 315.107C219.046 313.584 218.796 312.072 218.307 310.63C217.818 309.197 217.046 307.877 216.036 306.748C215.018 305.62 213.786 304.706 212.412 304.059C210.901 303.35 209.249 302.992 207.58 303.012C205.57 302.937 203.576 303.393 201.798 304.332C200.339 305.155 199.114 306.335 198.239 307.763C197.412 309.176 196.865 310.734 196.628 312.353C196.371 313.951 196.242 315.567 196.241 317.185V319.52H172.05C172.05 319.086 171.954 318.635 171.921 318.216C171.823 317.339 171.774 316.457 171.776 315.574C171.712 311.29 172.696 307.054 174.643 303.237C176.603 299.552 179.353 296.346 182.696 293.847C186.413 291.104 190.599 289.063 195.05 287.824C200.193 286.365 205.519 285.649 210.866 285.698C215.965 285.647 221.045 286.348 225.941 287.776C230.106 288.993 234.01 290.97 237.457 293.606C240.552 296.03 243.058 299.125 244.785 302.657C246.548 306.351 247.436 310.402 247.378 314.495C247.434 317.36 246.845 320.2 245.655 322.806C244.487 325.24 242.98 327.496 241.177 329.506C239.394 331.502 237.425 333.325 235.298 334.95C233.124 336.561 231.079 338.171 229.194 339.476C227.451 340.731 225.804 342.115 224.266 343.615C223.551 344.253 222.972 345.028 222.562 345.894C222.153 346.76 221.922 347.699 221.882 348.656V354.889L199.64 354.954Z" fill="white"/>
<path d="M222.17 366.131H199.719V386.859H222.17V366.131Z" fill="white"/>
<path d="M14.1439 178.895V173.532C14.1417 172.766 14.3476 172.015 14.7398 171.358C15.225 170.552 15.8035 169.806 16.4632 169.135C17.1879 168.378 17.9771 167.637 18.7985 166.912C19.6199 166.187 20.4091 165.302 21.2466 164.529C21.9937 163.713 22.6473 162.816 23.1954 161.855C23.7451 160.87 24.0334 159.761 24.033 158.634C24.0355 157.855 23.9047 157.081 23.6464 156.347C23.4014 155.617 23.0125 154.943 22.5029 154.366C21.9824 153.791 21.3528 153.326 20.6507 152.997C19.8691 152.634 19.0158 152.453 18.1543 152.465C17.1316 152.431 16.1171 152.658 15.2069 153.126C14.4601 153.545 13.8334 154.15 13.3869 154.881C12.9676 155.608 12.6838 156.404 12.5494 157.233C12.4198 158.053 12.3552 158.882 12.3561 159.713V160.905H0.0189364C0.0189364 160.679 0.0189364 160.454 0.0189364 160.228C-0.00631214 159.783 -0.00631214 159.337 0.0189364 158.891C-0.0198236 156.704 0.48371 154.54 1.48459 152.594C2.46786 150.697 3.86613 149.045 5.57549 147.762C7.47334 146.358 9.61356 145.315 11.8891 144.686C14.5081 143.944 17.22 143.58 19.942 143.607C22.5455 143.58 25.139 143.933 27.6407 144.654C29.7668 145.277 31.7596 146.287 33.5194 147.633C35.0992 148.875 36.3813 150.455 37.2721 152.256C38.1639 154.143 38.6154 156.208 38.5927 158.296C38.6239 159.762 38.321 161.216 37.7069 162.548C37.11 163.793 36.3401 164.948 35.4199 165.978C34.5133 166.996 33.51 167.924 32.4242 168.748L29.2996 171.068C28.4085 171.704 27.5684 172.41 26.7871 173.177C26.4208 173.503 26.1236 173.899 25.9133 174.342C25.703 174.784 25.5839 175.265 25.563 175.754V178.976L14.1439 178.895Z" fill="white"/>
<path d="M25.6432 184.645H14.1758V195.226H25.6432V184.645Z" fill="white"/>
<path d="M235.222 225.029V219.65C235.217 218.882 235.429 218.128 235.834 217.475C236.323 216.672 236.901 215.927 237.557 215.253C238.282 214.512 239.071 213.755 239.893 213.03C240.743 212.277 241.554 211.481 242.325 210.647C243.082 209.835 243.741 208.938 244.29 207.973C244.836 206.987 245.124 205.879 245.127 204.752C245.127 203.973 244.997 203.2 244.741 202.465C244.493 201.732 244.098 201.058 243.581 200.484C243.062 199.914 242.439 199.449 241.745 199.115C240.963 198.752 240.11 198.57 239.248 198.583C238.218 198.543 237.196 198.777 236.285 199.26C235.546 199.685 234.926 200.288 234.481 201.015C234.051 201.737 233.767 202.536 233.644 203.367C233.514 204.182 233.449 205.006 233.45 205.831V207.039H221.113C221.113 206.813 221.113 206.588 221.113 206.362C221.061 205.919 221.034 205.472 221.033 205.026C221.002 202.833 221.505 200.666 222.498 198.712C223.491 196.816 224.894 195.166 226.605 193.88C228.496 192.471 230.631 191.422 232.903 190.788C235.524 190.055 238.234 189.692 240.956 189.709C243.56 189.679 246.155 190.037 248.654 190.772C250.783 191.389 252.777 192.399 254.533 193.751C256.112 194.99 257.389 196.571 258.27 198.374C259.176 200.257 259.634 202.324 259.606 204.414C259.63 205.879 259.328 207.331 258.721 208.665C258.122 209.905 257.352 211.054 256.434 212.08C255.526 213.108 254.517 214.041 253.422 214.866L250.313 217.186C249.419 217.818 248.579 218.524 247.801 219.295C247.434 219.621 247.137 220.017 246.927 220.46C246.717 220.902 246.598 221.383 246.577 221.872V225.094L235.222 225.029Z" fill="white"/>
<path d="M246.733 230.73H235.266V241.312H246.733V230.73Z" fill="white"/>
</svg>
