<svg width="40" height="40" viewBox="0 0 40 40" fill="none" xmlns="http://www.w3.org/2000/svg">
<g id="Telegram">
<rect x="0.5" y="0.5" width="39" height="39" rx="7.5" stroke="#CAD1D8"/>
<path id="Vector" fill-rule="evenodd" clip-rule="evenodd" d="M9.51239 19.7489C15.418 17.2087 19.3559 15.534 21.3263 14.7249C26.9521 12.4147 28.1211 12.0134 28.883 12.0001C29.0506 11.9972 29.4253 12.0382 29.668 12.2327C29.873 12.3968 29.9294 12.6186 29.9563 12.7743C29.9833 12.93 30.0169 13.2846 29.9902 13.5616C29.6854 16.7241 28.3662 24.3986 27.6951 27.9406C27.4111 29.4394 26.852 29.9419 26.3107 29.9911C25.1343 30.098 24.2409 29.2235 23.1015 28.4861C21.3186 27.3323 20.3113 26.614 18.5807 25.488C16.5806 24.1868 17.8772 23.4716 19.017 22.3027C19.3153 21.9969 24.4986 17.3423 24.5989 16.92C24.6115 16.8672 24.6231 16.6704 24.5047 16.5664C24.3862 16.4625 24.2114 16.498 24.0852 16.5263C23.9064 16.5664 21.0581 18.425 15.5404 22.1022C14.7319 22.6503 13.9996 22.9174 13.3435 22.9034C12.6202 22.888 11.2288 22.4996 10.1945 22.1677C8.92583 21.7606 7.91753 21.5453 8.00533 20.8539C8.05106 20.4937 8.55341 20.1254 9.51239 19.7489Z" fill="#CAD1D8"/>
</g>
</svg>
