<svg width="40" height="40" viewBox="0 0 40 40" fill="none" xmlns="http://www.w3.org/2000/svg">
<rect x="0.5" y="0.5" width="39" height="39" rx="7.5" stroke="#DCDCDD"/>
<path fill-rule="evenodd" clip-rule="evenodd" d="M11.2625 27.5568C10.8702 27.4408 10.5123 27.2343 10.219 26.9549C9.9256 26.6754 9.7054 26.3312 9.57695 25.9512C8.84292 23.9874 8.62543 15.7869 10.0391 14.1681C10.5096 13.6414 11.1739 13.3172 11.8878 13.2658C15.6802 12.8677 27.3975 12.9208 28.7432 13.3985C29.1217 13.5183 29.4675 13.7203 29.7547 13.9891C30.0419 14.258 30.263 14.5868 30.4015 14.951C31.2035 16.9812 31.2307 24.3589 30.2928 26.3095C30.044 26.8173 29.6275 27.2285 29.1102 27.4772C27.6965 28.1672 13.1383 28.1539 11.2625 27.5568ZM17.2842 23.7087L24.0808 20.2587L17.2842 16.7821V23.7087Z" fill="#DCDCDD"/>
</svg>
