<svg width="26" height="18" viewBox="0 0 26 18" fill="none" xmlns="http://www.w3.org/2000/svg">
<g id="Group">
<path id="Vector" d="M25.5117 8.02925C24.2137 5.88029 22.4684 4.15361 20.2761 2.84926C18.0836 1.54485 15.7685 0.892578 13.3304 0.892578C10.8923 0.892578 8.57706 1.54461 6.38461 2.84926C4.19212 4.15361 2.44693 5.88029 1.1491 8.02925C0.963779 8.35766 0.871094 8.68143 0.871094 9.00056C0.871094 9.3197 0.963779 9.64347 1.1491 9.97178C2.44693 12.1208 4.19212 13.8477 6.38461 15.1517C8.57706 16.4563 10.8923 17.1081 13.3304 17.1081C15.7686 17.1081 18.0837 16.4584 20.2761 15.1588C22.4684 13.8592 24.2139 12.1301 25.5117 9.97178C25.6971 9.64347 25.7897 9.31985 25.7897 9.00056C25.7897 8.68143 25.6971 8.35766 25.5117 8.02925ZM10.3475 4.17935C11.1771 3.33952 12.1713 2.91946 13.3302 2.91946C13.5156 2.91946 13.6733 2.98533 13.8031 3.11663C13.9328 3.24797 13.9979 3.40756 13.9979 3.59521C13.9979 3.783 13.9328 3.9425 13.8034 4.07364C13.6738 4.20513 13.516 4.2708 13.3306 4.2708C12.5334 4.2708 11.8518 4.55715 11.2864 5.12946C10.7208 5.70211 10.4382 6.39176 10.4382 7.19875C10.4382 7.38664 10.3731 7.54603 10.2434 7.67747C10.1135 7.80901 9.95598 7.87464 9.77061 7.87464C9.5851 7.87464 9.42754 7.80887 9.29769 7.67747C9.1678 7.54603 9.10292 7.38644 9.10292 7.19875C9.10292 6.02583 9.51788 5.01922 10.3475 4.17935ZM19.3724 13.5967C17.5136 14.7365 15.4997 15.3068 13.3304 15.3068C11.1611 15.3068 9.14719 14.7369 7.28852 13.5967C5.42985 12.4564 3.88402 10.9245 2.6511 9.00056C4.06018 6.78583 5.82617 5.12941 7.94906 4.03168C7.3836 5.00748 7.10077 6.0633 7.10077 7.1987C7.10077 8.93494 7.7104 10.4196 8.92934 11.6538C10.1483 12.888 11.6155 13.5048 13.3304 13.5048C15.0455 13.5048 16.5122 12.8876 17.7314 11.6538C18.9507 10.4199 19.5601 8.93494 19.5601 7.1987C19.5601 6.0633 19.2772 5.00734 18.7117 4.03168C20.8345 5.12941 22.6006 6.78598 24.0096 9.00056C22.7769 10.9245 21.2312 12.4564 19.3724 13.5967Z" fill="#2C3136"/>
</g>
</svg>
