<svg width="29" height="28" viewBox="0 0 29 28" fill="none" xmlns="http://www.w3.org/2000/svg">
<path d="M26.5117 13.0293C25.2137 10.8803 23.4684 9.15361 21.2761 7.84926C19.0836 6.54485 16.7685 5.89258 14.3304 5.89258C11.8923 5.89258 9.57706 6.54461 7.38461 7.84926C5.19212 9.15361 3.44693 10.8803 2.1491 13.0293C1.96378 13.3577 1.87109 13.6814 1.87109 14.0006C1.87109 14.3197 1.96378 14.6435 2.1491 14.9718C3.44693 17.1208 5.19212 18.8477 7.38461 20.1517C9.57706 21.4563 11.8923 22.1081 14.3304 22.1081C16.7686 22.1081 19.0837 21.4584 21.2761 20.1588C23.4684 18.8592 25.2139 17.1301 26.5117 14.9718C26.6971 14.6435 26.7897 14.3198 26.7897 14.0006C26.7897 13.6814 26.6971 13.3577 26.5117 13.0293ZM11.3475 9.17935C12.1771 8.33952 13.1713 7.91946 14.3302 7.91946C14.5156 7.91946 14.6733 7.98533 14.8031 8.11663C14.9328 8.24797 14.9979 8.40756 14.9979 8.59521C14.9979 8.783 14.9328 8.9425 14.8034 9.07364C14.6738 9.20513 14.516 9.2708 14.3306 9.2708C13.5334 9.2708 12.8518 9.55715 12.2864 10.1295C11.7208 10.7021 11.4382 11.3918 11.4382 12.1987C11.4382 12.3866 11.3731 12.546 11.2434 12.6775C11.1135 12.809 10.956 12.8746 10.7706 12.8746C10.5851 12.8746 10.4275 12.8089 10.2977 12.6775C10.1678 12.546 10.1029 12.3864 10.1029 12.1987C10.1029 11.0258 10.5179 10.0192 11.3475 9.17935ZM20.3724 18.5967C18.5136 19.7365 16.4997 20.3068 14.3304 20.3068C12.1611 20.3068 10.1472 19.7369 8.28852 18.5967C6.42985 17.4564 4.88402 15.9245 3.6511 14.0006C5.06018 11.7858 6.82617 10.1294 8.94906 9.03168C8.3836 10.0075 8.10077 11.0633 8.10077 12.1987C8.10077 13.9349 8.7104 15.4196 9.92934 16.6538C11.1483 17.888 12.6155 18.5048 14.3304 18.5048C16.0455 18.5048 17.5122 17.8876 18.7314 16.6538C19.9507 15.4199 20.5601 13.9349 20.5601 12.1987C20.5601 11.0633 20.2772 10.0073 19.7117 9.03168C21.8345 10.1294 23.6006 11.786 25.0096 14.0006C23.7769 15.9245 22.2312 17.4564 20.3724 18.5967Z" fill="#2C3136"/>
</svg>
