<svg width="29" height="28" viewBox="0 0 29 28" fill="none" xmlns="http://www.w3.org/2000/svg">
<path d="M26.5117 13.029C25.2137 10.88 23.4684 9.15337 21.2761 7.84901C19.0836 6.54461 16.7685 5.89233 14.3304 5.89233C11.8923 5.89233 9.57706 6.54436 7.38461 7.84901C5.19212 9.15337 3.44693 10.88 2.1491 13.029C1.96378 13.3574 1.87109 13.6812 1.87109 14.0003C1.87109 14.3195 1.96378 14.6432 2.1491 14.9715C3.44693 17.1206 5.19212 18.8474 7.38461 20.1515C9.57706 21.456 11.8923 22.1078 14.3304 22.1078C16.7686 22.1078 19.0837 21.4582 21.2761 20.1586C23.4684 18.8589 25.2139 17.1298 26.5117 14.9715C26.6971 14.6432 26.7897 14.3196 26.7897 14.0003C26.7897 13.6812 26.6971 13.3574 26.5117 13.029ZM11.3475 9.1791C12.1771 8.33928 13.1713 7.91922 14.3302 7.91922C14.5156 7.91922 14.6733 7.98509 14.8031 8.11638C14.9328 8.24772 14.9979 8.40732 14.9979 8.59496C14.9979 8.78276 14.9328 8.94225 14.8034 9.0734C14.6738 9.20489 14.516 9.27056 14.3306 9.27056C13.5334 9.27056 12.8518 9.55691 12.2864 10.1292C11.7208 10.7019 11.4382 11.3915 11.4382 12.1985C11.4382 12.3864 11.3731 12.5458 11.2434 12.6772C11.1135 12.8088 10.956 12.8744 10.7706 12.8744C10.5851 12.8744 10.4275 12.8086 10.2977 12.6772C10.1678 12.5458 10.1029 12.3862 10.1029 12.1985C10.1029 11.0256 10.5179 10.019 11.3475 9.1791ZM20.3724 18.5964C18.5136 19.7363 16.4997 20.3066 14.3304 20.3066C12.1611 20.3066 10.1472 19.7366 8.28852 18.5964C6.42985 17.4562 4.88402 15.9242 3.6511 14.0003C5.06018 11.7856 6.82617 10.1292 8.94906 9.03144C8.3836 10.0072 8.10077 11.0631 8.10077 12.1985C8.10077 13.9347 8.7104 15.4194 9.92934 16.6535C11.1483 17.8877 12.6155 18.5046 14.3304 18.5046C16.0455 18.5046 17.5122 17.8874 18.7314 16.6535C19.9507 15.4197 20.5601 13.9347 20.5601 12.1985C20.5601 11.0631 20.2772 10.0071 19.7117 9.03144C21.8345 10.1292 23.6006 11.7857 25.0096 14.0003C23.7769 15.9242 22.2312 17.4562 20.3724 18.5964Z" fill="#B00C2F"/>
</svg>
