<svg width="57" height="63" viewBox="0 0 57 63" fill="none" xmlns="http://www.w3.org/2000/svg">
<g id="Group">
<path id="Vector" d="M28.4534 0.628311C25.2792 0.900311 22.0914 1.8115 19.217 3.2939C16.8329 4.51789 15.2118 5.71468 13.1547 7.76827C10.035 10.869 8.03244 14.201 6.8881 18.1722C6.16608 20.6746 5.98898 22.0074 5.90724 25.353L5.8255 28.3857L3.50959 31.9489C2.24264 33.9073 1.11193 35.7025 1.01657 35.9473C0.75773 36.5321 0.771353 37.7833 1.03019 38.3953C1.49337 39.4833 1.8612 39.7825 3.94552 40.7753C5.03537 41.2921 5.94811 41.7409 5.96173 41.7545C5.97536 41.7681 6.30231 43.5497 6.68376 45.712C7.5965 50.8528 7.85534 51.5464 9.38112 53.1512C10.2802 54.0896 11.1657 54.6744 12.3782 55.1368C13.2637 55.4768 13.4135 55.4904 17.446 55.5584C21.1106 55.6264 21.6419 55.6672 21.9552 55.8848C22.4592 56.2248 22.5682 56.5376 23.1676 59.3528C23.5627 61.2295 23.7807 61.9503 23.985 62.1679C24.2575 62.4399 24.3801 62.4399 35.8779 62.4807C42.2535 62.4943 47.6891 62.4807 47.9343 62.4399C48.5201 62.3311 48.9152 61.9231 48.9152 61.4335C48.9152 61.2295 48.5474 59.2848 48.0978 57.1224C47.403 53.8312 47.2668 52.9744 47.2668 51.8184C47.2532 48.7992 47.621 47.888 51.1085 42.1761C54.1601 37.1577 54.9502 35.6345 55.7267 33.2953C56.5714 30.7385 56.8438 29.0929 56.9119 26.1962C57.0345 21.6402 56.2716 18.145 54.2963 14.2282C51.1085 7.86347 45.1416 3.0899 38.1666 1.30831C35.6327 0.669113 31.5049 0.369915 28.4534 0.628311ZM33.8617 2.8179C37.8942 3.1579 41.3953 4.39549 44.7738 6.62588C46.8172 7.98587 49.5827 10.7467 50.945 12.773C52.607 15.2754 53.7786 18.077 54.3917 21.001C54.6641 22.2658 54.705 22.8506 54.705 25.5162C54.6914 28.1681 54.6505 28.7529 54.3917 29.9361C53.6015 33.4857 52.7978 35.2265 49.2558 41.0201C45.8228 46.6368 45.3051 47.8336 45.1144 50.608C44.9918 52.4168 45.1416 53.6816 45.8364 56.9864C46.177 58.6184 46.4631 60.0328 46.4631 60.1416C46.4631 60.3048 44.8692 60.332 36.0414 60.332H25.6198L25.5517 60.0328C25.5108 59.856 25.2928 58.8904 25.0885 57.8704C24.6253 55.7488 24.3665 55.1504 23.59 54.4432C22.541 53.5048 22.4592 53.4912 17.8547 53.396C15.2935 53.3416 13.5089 53.2464 13.2092 53.1512C12.4463 52.8928 11.1521 51.9952 10.6617 51.3832C9.78981 50.2952 9.58546 49.6016 8.7817 45.0184C8.35939 42.6385 7.93708 40.5577 7.84171 40.4081C7.74635 40.2449 6.76549 39.7009 5.6484 39.1841C3.25075 38.0689 3.00553 37.8921 3.00553 37.2121C3.00553 36.7905 3.4006 36.0969 5.49855 32.9145L7.97795 29.1201L8.07331 25.7882C8.1278 23.7074 8.23678 22.021 8.37301 21.3138C9.27213 16.5402 11.3156 12.6234 14.6669 9.27786C19.5984 4.35469 26.1511 2.1379 33.8617 2.8179Z" fill="#B00C2F"/>
<path id="Vector_2" d="M24.2302 9.45444C21.274 10.4064 19.3532 13.5344 19.8709 16.5672C20.2251 18.58 20.4567 18.8928 24.9931 23.4488C29.5977 28.0727 29.8566 28.2767 31.396 28.2631C32.9762 28.2495 33.1397 28.1271 37.6898 23.5712C41.477 19.7768 41.8312 19.3824 42.2808 18.444C43.8747 15.18 42.5532 11.3176 39.311 9.78084C37.0087 8.69284 34.0797 9.14164 32.0771 10.896L31.396 11.4808L30.6603 10.8688C28.8076 9.33204 26.3282 8.78804 24.2302 9.45444ZM28.1401 11.7936C28.5079 11.9704 29.2844 12.5552 29.8429 13.0856C30.4015 13.616 30.9736 14.092 31.1099 14.1328C31.5186 14.2824 32.0362 13.9696 33.1125 12.9496C34.3522 11.7664 35.224 11.372 36.5727 11.372C37.8397 11.372 38.6298 11.6984 39.5289 12.5824C40.428 13.48 40.7959 14.3912 40.7822 15.6696C40.7686 17.288 40.5234 17.628 36.1368 22.0208C32.0907 26.0735 31.8319 26.2639 31.0009 26.0327C30.3742 25.8559 22.8543 18.308 22.4048 17.4104C21.3149 15.18 22.4184 12.4328 24.7615 11.5624C25.5517 11.2632 27.2954 11.3856 28.1401 11.7936Z" fill="#EF3340"/>
<path id="Vector_3" d="M11.0431 27.8281C10.8933 27.9777 10.7434 28.2361 10.6889 28.4265C10.4165 29.5009 12.5962 30.6841 14.844 30.6841C17.6367 30.6841 19.9117 29.0521 18.7402 27.8961C18.3042 27.4473 17.9228 27.4745 16.901 27.9913C16.1245 28.3993 15.9202 28.4401 14.8576 28.4401C13.795 28.4401 13.6043 28.3993 12.8414 27.9913C11.8605 27.4881 11.4246 27.4473 11.0431 27.8281Z" fill="#B00C2F"/>
</g>
</svg>
