<svg width="64" height="64" viewBox="0 0 64 64" fill="none" xmlns="http://www.w3.org/2000/svg">
<g clip-path="url(#clip0_668_45361)">
<path d="M50.3967 24.0773L50.3968 24.0772C51.6795 23.7434 52.9899 24.5124 53.324 25.7951C53.6581 27.078 52.8888 28.3884 51.6063 28.7224L51.6063 28.7224C48.0329 29.6529 44.8051 30.3595 41.7512 30.8428L41.6887 30.4478L41.7512 30.8428L40.4013 31.0564V41.8507L42.3828 57.702C42.5436 58.9888 41.653 60.1708 40.3714 60.371L40.3714 60.371C39.09 60.5709 37.8814 59.7167 37.6424 58.4419L34.6424 42.4419L34.6423 42.4415C34.6402 42.4302 34.6382 42.4189 34.6362 42.4076H31.3664C31.3645 42.4189 31.3624 42.4302 31.3603 42.4415L31.3603 42.4419L28.3603 58.4419C28.1212 59.7168 26.9126 60.5709 25.6311 60.371L25.631 60.371C24.3496 60.1708 23.459 58.9888 23.6198 57.7019L25.6013 41.8496V31.2619L24.2122 31.0771C20.5826 30.5946 16.7553 29.803 12.4241 28.7294L12.5203 28.3412L12.4241 28.7294C11.1375 28.4105 10.3531 27.109 10.672 25.8226L50.3967 24.0773ZM50.3967 24.0773C43.0923 25.9794 37.5211 26.8508 32.0107 26.8288C26.4929 26.8065 20.9126 25.8885 13.579 24.0705L13.4854 24.4477M50.3967 24.0773L13.4854 24.4477M13.4854 24.4477L13.579 24.0705C12.2924 23.7516 10.9908 24.5358 10.6721 25.8225L13.4854 24.4477ZM43.9305 33.7193L43.6013 33.7785V34.113V41.6266V41.6515L43.6044 41.6762L45.558 57.305C45.9334 60.3079 43.855 63.0659 40.865 63.5325C37.8806 63.9985 35.0658 62.0139 34.5005 59.049L33.5054 48.6629C33.4509 48.0941 32.6261 48.0796 32.5516 48.6461L31.9927 52.9005L31.9914 52.9106L31.9906 52.9208L31.5015 59.0521C30.9347 62.0153 28.1208 63.9983 25.1376 63.5325C22.1474 63.0659 20.0692 60.3079 20.4444 57.3049L22.3982 41.6752L22.4013 41.6505V41.6256V34.3949V34.0524L22.0628 33.9997C18.7991 33.4919 15.3869 32.7608 11.654 31.8353L11.6539 31.8353C8.65199 31.0913 6.82172 28.0544 7.56596 25.0524C8.31021 22.0504 11.3471 20.2202 14.3489 20.9644L14.3489 20.9644C21.5674 22.754 26.8687 23.6082 32.0235 23.6287C37.1613 23.6493 42.4406 22.8423 49.5903 20.9806C52.5833 20.2013 55.6415 21.9957 56.4208 24.9887C57.2001 27.9818 55.4055 31.0399 52.4125 31.8193C49.404 32.6026 46.6069 33.2379 43.9305 33.7193ZM33.3448 48.7504C33.3448 48.7507 33.3447 48.751 33.3447 48.7514L33.3448 48.7504L33.1089 48.7194L33.3448 48.7504Z" fill="#EF3340" stroke="white" stroke-width="0.8"/>
<path d="M51.2738 23.6827L51.2738 23.6827C52.6146 23.3272 53.9742 24.148 54.3194 25.4984C54.6639 26.8462 53.8725 28.2329 52.5349 28.5879L52.5349 28.5879C48.7917 29.581 45.4107 30.3351 42.212 30.8509L42.1483 30.456L42.2119 30.8509L40.7806 31.0817V42.6296L42.8566 59.5514L42.4596 59.6001L42.8567 59.5514C43.0225 60.9034 42.1043 62.1563 40.7665 62.3692L40.7664 62.3692C39.4271 62.5822 38.1746 61.6719 37.9278 60.3306L34.785 43.2523L34.785 43.2519C34.7815 43.233 34.7782 43.214 34.7752 43.195H31.3196C31.3166 43.214 31.3133 43.233 31.3098 43.2519L31.3098 43.2523L28.167 60.3306C27.9201 61.6719 26.6676 62.5821 25.3281 62.3692L25.328 62.3692C23.9904 62.1563 23.0723 60.9034 23.2381 59.5514L23.6351 59.6001L23.2381 59.5514L25.3142 42.6285V31.3005L23.8415 31.1009C23.8415 31.1009 23.8414 31.1009 23.8414 31.1009C20.0397 30.586 16.0307 29.7412 11.4936 28.5953L11.4936 28.5953C10.1516 28.2563 9.34453 26.8788 9.67338 25.5273L51.2738 23.6827ZM51.2738 23.6827C43.621 25.7133 37.7836 26.6436 32.0096 26.6201C26.2278 26.5964 20.3809 25.6162 12.6977 23.6756L12.5998 24.0634M51.2738 23.6827L12.5998 24.0634M12.5998 24.0634L12.6977 23.6756C11.3529 23.3359 10.0027 24.1729 9.6734 25.5272L12.5998 24.0634Z" fill="#EF3340" stroke="#EF3340" stroke-width="0.8"/>
<path d="M32 3.48C28.3992 3.48 25.48 6.399 25.48 10C25.48 13.601 28.3992 16.52 32 16.52C35.601 16.52 38.52 13.601 38.52 10C38.52 6.39901 35.601 3.48 32 3.48ZM22.52 10C22.52 4.76439 26.7644 0.52 32 0.52C37.2356 0.52 41.48 4.76439 41.48 10C41.48 15.2356 37.2356 19.48 32 19.48C26.7644 19.48 22.52 15.2356 22.52 10Z" fill="#B00C2F" stroke="white" stroke-width="1.04"/>
<circle cx="32" cy="10" r="8" fill="#B00C2F"/>
</g>
<defs>
<clipPath id="clip0_668_45361">
<rect width="64" height="64" fill="white"/>
</clipPath>
</defs>
</svg>
