<svg width="64" height="64" viewBox="0 0 64 64" fill="none" xmlns="http://www.w3.org/2000/svg">
<path d="M22.4785 15.1167C26.336 15.1167 29.4744 11.9784 29.4744 8.12088C29.4744 4.26338 26.336 1.125 22.4785 1.125C18.621 1.125 15.4826 4.26338 15.4826 8.12088C15.4826 11.9784 18.6209 15.1167 22.4785 15.1167ZM22.4785 2.875C25.3711 2.875 27.7244 5.22825 27.7244 8.12088C27.7244 11.0135 25.3711 13.3667 22.4785 13.3667C19.5859 13.3667 17.2326 11.0135 17.2326 8.12088C17.2326 5.22825 19.5859 2.875 22.4785 2.875ZM52.625 33.2929H45.9935C45.5576 29.4716 44.4604 25.96 42.7269 22.8444C40.8004 19.382 38.1224 16.4742 34.7674 14.2022C33.5555 13.381 32.0966 13.0806 30.6589 13.357C29.2214 13.6331 27.9772 14.4526 27.1561 15.6643C26.9436 15.9778 26.7605 16.3488 26.599 16.676C26.5536 16.768 26.509 16.8584 26.4651 16.9445L22.554 24.622L14.0035 32.5827C13.7723 32.7979 13.571 33.0365 13.4004 33.2929H11.375C5.72312 33.2929 1.125 37.891 1.125 43.5429V61.7366C1.125 62.2199 1.51675 62.6116 2 62.6116H5.75C6.23325 62.6116 6.625 62.2199 6.625 61.7366V43.5429C6.625 40.9236 8.75575 38.7929 11.375 38.7929H14.5448C15.1381 39.1791 15.8271 39.3988 16.553 39.425C16.6017 39.4268 16.6502 39.4276 16.6987 39.4276C17.4685 39.4276 18.2075 39.2064 18.8431 38.7929H35.108V57.3746C35.108 60.4076 37.5755 62.875 40.6084 62.875C43.6413 62.875 46.1087 60.4076 46.1087 57.3746V38.7929H52.625C55.2441 38.7929 57.375 40.9236 57.375 43.5429V61.7366C57.375 62.2199 57.7668 62.6116 58.25 62.6116H62C62.4832 62.6116 62.875 62.2199 62.875 61.7366V43.5429C62.875 37.891 58.2769 33.2929 52.625 33.2929ZM4.875 43.5429V60.8616H2.875V43.5429C2.875 38.8559 6.688 35.0429 11.375 35.0429H12.7683C12.7579 35.1391 12.7496 35.2359 12.7461 35.3335C12.7246 35.93 12.8354 36.5109 13.0656 37.0429H11.375C7.79087 37.0429 4.875 39.9587 4.875 43.5429ZM16.6161 37.6761C16.0284 37.655 15.4841 37.4061 15.0835 36.9756C14.6829 36.5451 14.4739 35.9842 14.495 35.3966C14.5161 34.8089 14.7649 34.2646 15.1956 33.8638L23.8595 25.7974C23.9345 25.7276 23.9965 25.6454 24.043 25.5541L28.0245 17.7386C28.0715 17.6461 28.1194 17.5492 28.168 17.4508C28.3112 17.1604 28.4595 16.8601 28.6046 16.6461C29.1636 15.8213 30.0104 15.2635 30.989 15.0755C31.9676 14.8876 32.9606 15.0919 33.7859 15.651C39.726 19.6737 43.3225 25.7599 44.2303 33.2929H36.6655C36.0037 29.1631 34.2381 25.7838 31.4096 23.2404C31.2075 23.0585 30.9325 22.9813 30.6649 23.0308C30.3975 23.0804 30.1685 23.2516 30.045 23.4939L27.7344 28.0298C27.6208 28.2531 27.4638 28.4587 27.2676 28.6414L18.1955 37.0877C17.7646 37.4884 17.2021 37.6971 16.6161 37.6761ZM34.8885 33.2929H24.8393L28.4596 29.9223C28.8062 29.5996 29.087 29.2299 29.2936 28.8235L31.0648 25.3468C33.0508 27.449 34.3314 30.1149 34.8885 33.2929ZM44.359 57.3746C44.359 59.4426 42.6766 61.125 40.6086 61.125C38.5406 61.125 36.8582 59.4426 36.8582 57.3746V38.7929H44.359V57.3746ZM61.125 60.8618H59.125V43.543C59.125 39.9589 56.2091 37.043 52.625 37.043H20.8114L22.9596 35.043H52.625C57.312 35.043 61.125 38.856 61.125 43.543V60.8618Z" fill="#B00C2F"/>
<path d="M16.6161 37.6761C16.0284 37.655 15.4841 37.4061 15.0835 36.9756C14.6829 36.5451 14.4739 35.9842 14.495 35.3966C14.5161 34.8089 14.7649 34.2646 15.1956 33.8638L23.8595 25.7974C23.9345 25.7276 23.9965 25.6454 24.043 25.5541L28.0245 17.7386C28.0715 17.6461 28.1194 17.5492 28.168 17.4508C28.3112 17.1604 28.4595 16.8601 28.6046 16.6461C29.1636 15.8213 30.0104 15.2635 30.989 15.0755C31.9676 14.8876 32.9606 15.0919 33.7859 15.651C39.726 19.6737 43.3225 25.7599 44.2303 33.2929H36.6655C36.0037 29.1631 34.2381 25.7838 31.4096 23.2404C31.2075 23.0585 30.9325 22.9813 30.6649 23.0308C30.3975 23.0804 30.1685 23.2516 30.045 23.4939L27.7344 28.0298C27.6208 28.2531 27.4638 28.4587 27.2676 28.6414L18.1955 37.0877C17.7646 37.4884 17.2021 37.6971 16.6161 37.6761Z" fill="#B00C2F"/>
<path d="M44.359 57.3746C44.359 59.4426 42.6766 61.125 40.6086 61.125C38.5406 61.125 36.8582 59.4426 36.8582 57.3746V38.7929H44.359V57.3746Z" fill="#B00C2F"/>
<path d="M61.125 60.8618H59.125V43.543C59.125 39.9589 56.2091 37.043 52.625 37.043H20.8114L22.9596 35.043H52.625C57.312 35.043 61.125 38.856 61.125 43.543V60.8618Z" fill="#FFF5F3"/>
<path d="M4.875 43.5429V60.8616H2.875V43.5429C2.875 38.8559 6.688 35.0429 11.375 35.0429H12.7683C12.7579 35.1391 12.7496 35.2359 12.7461 35.3335C12.7246 35.93 12.8354 36.5109 13.0656 37.0429H11.375C7.79087 37.0429 4.875 39.9587 4.875 43.5429Z" fill="#FFF5F3"/>
<path d="M22.4785 15.1167C26.336 15.1167 29.4744 11.9784 29.4744 8.12088C29.4744 4.26338 26.336 1.125 22.4785 1.125C18.621 1.125 15.4827 4.26338 15.4827 8.12088C15.4827 11.9784 18.6209 15.1167 22.4785 15.1167ZM22.4785 2.875C25.3712 2.875 27.7244 5.22825 27.7244 8.12088C27.7244 11.0135 25.3712 13.3667 22.4785 13.3667C19.5859 13.3667 17.2327 11.0135 17.2327 8.12088C17.2327 5.22825 19.5859 2.875 22.4785 2.875Z" fill="#EF3340"/>
<circle cx="23" cy="8" r="6" fill="#EF3340"/>
</svg>
