<svg width="64" height="64" viewBox="0 0 64 64" fill="none" xmlns="http://www.w3.org/2000/svg">
<path d="M30.8566 7.74385C38.4505 2.73053 48.3882 2.02475 54.7078 10.1581C61.0273 18.2914 58.7688 28.5636 57.8254 33.8598C56.8819 39.156 52.5428 60 45.6533 60C42.0704 60 40.2169 57.8817 40.2169 52.5314C40.2169 46.9299 38.2902 38.5277 31.8761 38.5277C23.5352 38.5277 22.6085 48.7971 22.6085 52.5314C22.6085 55.8418 22.1506 60 18.4714 60C14.7922 60 10.8479 55.3657 8.77284 46.8543C6.69783 38.3428 5 30.019 5 24.7229C5 15.1705 7.25296 7.04927 18.1109 4.48379C27.0106 2.38044 29.169 7.77746 35.5831 10.5203" fill="#EF3340"/>
<path d="M30.8566 7.74385C38.4505 2.73053 48.3882 2.02475 54.7078 10.1581C61.0273 18.2914 58.7688 28.5636 57.8254 33.8598C56.8819 39.156 52.5428 60 45.6533 60C42.0704 60 40.2169 57.8817 40.2169 52.5314C40.2169 46.9299 38.2902 38.5277 31.8761 38.5277C23.5352 38.5277 22.6085 48.7971 22.6085 52.5314C22.6085 55.8418 22.1506 60 18.4714 60C14.7922 60 10.8479 55.3657 8.77284 46.8543C6.69783 38.3428 5 30.019 5 24.7229C5 15.1705 7.25296 7.04927 18.1109 4.48379C27.0106 2.38044 29.169 7.77746 35.5831 10.5203" stroke="#EF3340" stroke-width="2.4" stroke-miterlimit="10" stroke-linecap="round" stroke-linejoin="round"/>
<path d="M39 12C41.2934 13.3333 43.7066 13.3333 46 12" stroke="white" stroke-width="2.4" stroke-miterlimit="10" stroke-linecap="round" stroke-linejoin="round"/>
</svg>
