<svg width="31" height="32" viewBox="0 0 31 32" fill="none" xmlns="http://www.w3.org/2000/svg">
<path fill-rule="evenodd" clip-rule="evenodd" d="M2.60938 9.14286C2.60938 8.51167 3.18651 8 3.89844 8H27.1016C27.8135 8 28.3906 8.51167 28.3906 9.14286C28.3906 9.77404 27.8135 10.2857 27.1016 10.2857H3.89844C3.18651 10.2857 2.60938 9.77404 2.60938 9.14286ZM2.60938 16C2.60938 15.3688 3.18651 14.8571 3.89844 14.8571H27.1016C27.8135 14.8571 28.3906 15.3688 28.3906 16C28.3906 16.6312 27.8135 17.1429 27.1016 17.1429H3.89844C3.18651 17.1429 2.60938 16.6312 2.60938 16ZM2.60938 22.8571C2.60938 22.226 3.18651 21.7143 3.89844 21.7143H18.0781C18.7901 21.7143 19.3672 22.226 19.3672 22.8571C19.3672 23.4883 18.7901 24 18.0781 24H3.89844C3.18651 24 2.60938 23.4883 2.60938 22.8571Z" fill="#2C3136"/>
</svg>
